M48
; DRILL file {KiCad 7.0.7} date Sat Sep 16 00:15:54 2023
; FORMAT={-:-/ absolute / inch / decimal}
; #@! TF.CreationDate,2023-09-16T00:15:54-05:00
; #@! TF.GenerationSoftware,Kicad,Pcbnew,7.0.7
; #@! TF.FileFunction,MixedPlating,1,2
FMAT,2
INCH
; #@! TA.AperFunction,Plated,PTH,ComponentDrill
T1C0.0315
; #@! TA.AperFunction,Plated,PTH,ComponentDrill
T2C0.0354
; #@! TA.AperFunction,Plated,PTH,ComponentDrill
T3C0.0394
%
G90
G05
T1
X4.325Y-2.525
X4.325Y-2.625
X4.325Y-2.725
X4.325Y-2.825
X4.325Y-2.925
X4.325Y-3.025
X4.325Y-3.125
X4.325Y-3.225
X4.325Y-3.325
X4.325Y-3.475
X4.325Y-3.575
X4.325Y-3.675
X4.325Y-3.775
X4.325Y-3.875
X4.325Y-3.975
X4.325Y-4.075
X4.325Y-4.175
X4.325Y-4.275
T2
X4.075Y-2.45
X4.075Y-2.5767
X4.075Y-2.7033
X4.075Y-2.9567
X4.075Y-3.21
X4.075Y-3.3367
X4.075Y-3.4633
X4.075Y-3.7167
X4.075Y-3.8433
X4.075Y-4.0967
X4.075Y-4.2233
X4.075Y-4.35
X4.0752Y-2.83
X4.0752Y-3.0833
X4.0752Y-3.59
X4.0752Y-3.97
X4.175Y-2.45
X4.175Y-2.5767
X4.175Y-2.7033
X4.175Y-2.9567
X4.175Y-3.21
X4.175Y-3.3367
X4.175Y-3.4633
X4.175Y-3.7167
X4.175Y-3.8433
X4.175Y-4.0967
X4.175Y-4.2233
X4.175Y-4.35
X4.1752Y-2.83
X4.1752Y-3.0833
X4.1752Y-3.59
X4.1752Y-3.97
T3
X3.8Y-2.45
X3.8Y-2.55
X3.8Y-2.65
X3.8Y-2.75
X3.8Y-2.85
X3.8Y-2.95
X3.8Y-3.05
X3.8Y-3.15
X3.8Y-3.25
X3.8Y-3.35
X3.8Y-3.45
X3.8Y-3.55
X3.8Y-3.65
X3.8Y-3.75
X3.8Y-3.85
X3.8Y-3.95
X3.8Y-4.05
X3.8Y-4.15
X3.8Y-4.25
X3.8Y-4.35
X3.9Y-2.45
X3.9Y-2.55
X3.9Y-2.65
X3.9Y-2.75
X3.9Y-2.85
X3.9Y-2.95
X3.9Y-3.05
X3.9Y-3.15
X3.9Y-3.25
X3.9Y-3.35
X3.9Y-3.45
X3.9Y-3.55
X3.9Y-3.65
X3.9Y-3.75
X3.9Y-3.85
X3.9Y-3.95
X3.9Y-4.05
X3.9Y-4.15
X3.9Y-4.25
X3.9Y-4.35
T0
M30
