%TF.GenerationSoftware,KiCad,Pcbnew,7.0.7*%
%TF.CreationDate,2023-09-16T00:15:51-05:00*%
%TF.ProjectId,pio-port-blinkenlights,70696f2d-706f-4727-942d-626c696e6b65,rev?*%
%TF.SameCoordinates,Original*%
%TF.FileFunction,Legend,Top*%
%TF.FilePolarity,Positive*%
%FSLAX46Y46*%
G04 Gerber Fmt 4.6, Leading zero omitted, Abs format (unit mm)*
G04 Created by KiCad (PCBNEW 7.0.7) date 2023-09-16 00:15:51*
%MOMM*%
%LPD*%
G01*
G04 APERTURE LIST*
%ADD10C,0.150000*%
%ADD11C,0.120000*%
G04 APERTURE END LIST*
D10*
X100250714Y-72051103D02*
X100726904Y-72051103D01*
X100155476Y-72336818D02*
X100488809Y-71336818D01*
X100488809Y-71336818D02*
X100822142Y-72336818D01*
X101060238Y-71336818D02*
X101679285Y-71336818D01*
X101679285Y-71336818D02*
X101345952Y-71717770D01*
X101345952Y-71717770D02*
X101488809Y-71717770D01*
X101488809Y-71717770D02*
X101584047Y-71765389D01*
X101584047Y-71765389D02*
X101631666Y-71813008D01*
X101631666Y-71813008D02*
X101679285Y-71908246D01*
X101679285Y-71908246D02*
X101679285Y-72146341D01*
X101679285Y-72146341D02*
X101631666Y-72241579D01*
X101631666Y-72241579D02*
X101584047Y-72289199D01*
X101584047Y-72289199D02*
X101488809Y-72336818D01*
X101488809Y-72336818D02*
X101203095Y-72336818D01*
X101203095Y-72336818D02*
X101107857Y-72289199D01*
X101107857Y-72289199D02*
X101060238Y-72241579D01*
X100560238Y-107203671D02*
X100703095Y-107251290D01*
X100703095Y-107251290D02*
X100750714Y-107298909D01*
X100750714Y-107298909D02*
X100798333Y-107394147D01*
X100798333Y-107394147D02*
X100798333Y-107537004D01*
X100798333Y-107537004D02*
X100750714Y-107632242D01*
X100750714Y-107632242D02*
X100703095Y-107679862D01*
X100703095Y-107679862D02*
X100607857Y-107727481D01*
X100607857Y-107727481D02*
X100226905Y-107727481D01*
X100226905Y-107727481D02*
X100226905Y-106727481D01*
X100226905Y-106727481D02*
X100560238Y-106727481D01*
X100560238Y-106727481D02*
X100655476Y-106775100D01*
X100655476Y-106775100D02*
X100703095Y-106822719D01*
X100703095Y-106822719D02*
X100750714Y-106917957D01*
X100750714Y-106917957D02*
X100750714Y-107013195D01*
X100750714Y-107013195D02*
X100703095Y-107108433D01*
X100703095Y-107108433D02*
X100655476Y-107156052D01*
X100655476Y-107156052D02*
X100560238Y-107203671D01*
X100560238Y-107203671D02*
X100226905Y-107203671D01*
X101655476Y-106727481D02*
X101465000Y-106727481D01*
X101465000Y-106727481D02*
X101369762Y-106775100D01*
X101369762Y-106775100D02*
X101322143Y-106822719D01*
X101322143Y-106822719D02*
X101226905Y-106965576D01*
X101226905Y-106965576D02*
X101179286Y-107156052D01*
X101179286Y-107156052D02*
X101179286Y-107537004D01*
X101179286Y-107537004D02*
X101226905Y-107632242D01*
X101226905Y-107632242D02*
X101274524Y-107679862D01*
X101274524Y-107679862D02*
X101369762Y-107727481D01*
X101369762Y-107727481D02*
X101560238Y-107727481D01*
X101560238Y-107727481D02*
X101655476Y-107679862D01*
X101655476Y-107679862D02*
X101703095Y-107632242D01*
X101703095Y-107632242D02*
X101750714Y-107537004D01*
X101750714Y-107537004D02*
X101750714Y-107298909D01*
X101750714Y-107298909D02*
X101703095Y-107203671D01*
X101703095Y-107203671D02*
X101655476Y-107156052D01*
X101655476Y-107156052D02*
X101560238Y-107108433D01*
X101560238Y-107108433D02*
X101369762Y-107108433D01*
X101369762Y-107108433D02*
X101274524Y-107156052D01*
X101274524Y-107156052D02*
X101226905Y-107203671D01*
X101226905Y-107203671D02*
X101179286Y-107298909D01*
X100250714Y-75268436D02*
X100726904Y-75268436D01*
X100155476Y-75554151D02*
X100488809Y-74554151D01*
X100488809Y-74554151D02*
X100822142Y-75554151D01*
X101584047Y-74887484D02*
X101584047Y-75554151D01*
X101345952Y-74506532D02*
X101107857Y-75220817D01*
X101107857Y-75220817D02*
X101726904Y-75220817D01*
X100250714Y-81703102D02*
X100726904Y-81703102D01*
X100155476Y-81988817D02*
X100488809Y-80988817D01*
X100488809Y-80988817D02*
X100822142Y-81988817D01*
X101584047Y-80988817D02*
X101393571Y-80988817D01*
X101393571Y-80988817D02*
X101298333Y-81036436D01*
X101298333Y-81036436D02*
X101250714Y-81084055D01*
X101250714Y-81084055D02*
X101155476Y-81226912D01*
X101155476Y-81226912D02*
X101107857Y-81417388D01*
X101107857Y-81417388D02*
X101107857Y-81798340D01*
X101107857Y-81798340D02*
X101155476Y-81893578D01*
X101155476Y-81893578D02*
X101203095Y-81941198D01*
X101203095Y-81941198D02*
X101298333Y-81988817D01*
X101298333Y-81988817D02*
X101488809Y-81988817D01*
X101488809Y-81988817D02*
X101584047Y-81941198D01*
X101584047Y-81941198D02*
X101631666Y-81893578D01*
X101631666Y-81893578D02*
X101679285Y-81798340D01*
X101679285Y-81798340D02*
X101679285Y-81560245D01*
X101679285Y-81560245D02*
X101631666Y-81465007D01*
X101631666Y-81465007D02*
X101584047Y-81417388D01*
X101584047Y-81417388D02*
X101488809Y-81369769D01*
X101488809Y-81369769D02*
X101298333Y-81369769D01*
X101298333Y-81369769D02*
X101203095Y-81417388D01*
X101203095Y-81417388D02*
X101155476Y-81465007D01*
X101155476Y-81465007D02*
X101107857Y-81560245D01*
X100560238Y-97551672D02*
X100703095Y-97599291D01*
X100703095Y-97599291D02*
X100750714Y-97646910D01*
X100750714Y-97646910D02*
X100798333Y-97742148D01*
X100798333Y-97742148D02*
X100798333Y-97885005D01*
X100798333Y-97885005D02*
X100750714Y-97980243D01*
X100750714Y-97980243D02*
X100703095Y-98027863D01*
X100703095Y-98027863D02*
X100607857Y-98075482D01*
X100607857Y-98075482D02*
X100226905Y-98075482D01*
X100226905Y-98075482D02*
X100226905Y-97075482D01*
X100226905Y-97075482D02*
X100560238Y-97075482D01*
X100560238Y-97075482D02*
X100655476Y-97123101D01*
X100655476Y-97123101D02*
X100703095Y-97170720D01*
X100703095Y-97170720D02*
X100750714Y-97265958D01*
X100750714Y-97265958D02*
X100750714Y-97361196D01*
X100750714Y-97361196D02*
X100703095Y-97456434D01*
X100703095Y-97456434D02*
X100655476Y-97504053D01*
X100655476Y-97504053D02*
X100560238Y-97551672D01*
X100560238Y-97551672D02*
X100226905Y-97551672D01*
X101131667Y-97075482D02*
X101750714Y-97075482D01*
X101750714Y-97075482D02*
X101417381Y-97456434D01*
X101417381Y-97456434D02*
X101560238Y-97456434D01*
X101560238Y-97456434D02*
X101655476Y-97504053D01*
X101655476Y-97504053D02*
X101703095Y-97551672D01*
X101703095Y-97551672D02*
X101750714Y-97646910D01*
X101750714Y-97646910D02*
X101750714Y-97885005D01*
X101750714Y-97885005D02*
X101703095Y-97980243D01*
X101703095Y-97980243D02*
X101655476Y-98027863D01*
X101655476Y-98027863D02*
X101560238Y-98075482D01*
X101560238Y-98075482D02*
X101274524Y-98075482D01*
X101274524Y-98075482D02*
X101179286Y-98027863D01*
X101179286Y-98027863D02*
X101131667Y-97980243D01*
X100250714Y-78485769D02*
X100726904Y-78485769D01*
X100155476Y-78771484D02*
X100488809Y-77771484D01*
X100488809Y-77771484D02*
X100822142Y-78771484D01*
X101631666Y-77771484D02*
X101155476Y-77771484D01*
X101155476Y-77771484D02*
X101107857Y-78247674D01*
X101107857Y-78247674D02*
X101155476Y-78200055D01*
X101155476Y-78200055D02*
X101250714Y-78152436D01*
X101250714Y-78152436D02*
X101488809Y-78152436D01*
X101488809Y-78152436D02*
X101584047Y-78200055D01*
X101584047Y-78200055D02*
X101631666Y-78247674D01*
X101631666Y-78247674D02*
X101679285Y-78342912D01*
X101679285Y-78342912D02*
X101679285Y-78581007D01*
X101679285Y-78581007D02*
X101631666Y-78676245D01*
X101631666Y-78676245D02*
X101584047Y-78723865D01*
X101584047Y-78723865D02*
X101488809Y-78771484D01*
X101488809Y-78771484D02*
X101250714Y-78771484D01*
X101250714Y-78771484D02*
X101155476Y-78723865D01*
X101155476Y-78723865D02*
X101107857Y-78676245D01*
X100250714Y-65616437D02*
X100726904Y-65616437D01*
X100155476Y-65902152D02*
X100488809Y-64902152D01*
X100488809Y-64902152D02*
X100822142Y-65902152D01*
X101679285Y-65902152D02*
X101107857Y-65902152D01*
X101393571Y-65902152D02*
X101393571Y-64902152D01*
X101393571Y-64902152D02*
X101298333Y-65045009D01*
X101298333Y-65045009D02*
X101203095Y-65140247D01*
X101203095Y-65140247D02*
X101107857Y-65187866D01*
X100555238Y-110421009D02*
X100698095Y-110468628D01*
X100698095Y-110468628D02*
X100745714Y-110516247D01*
X100745714Y-110516247D02*
X100793333Y-110611485D01*
X100793333Y-110611485D02*
X100793333Y-110754342D01*
X100793333Y-110754342D02*
X100745714Y-110849580D01*
X100745714Y-110849580D02*
X100698095Y-110897200D01*
X100698095Y-110897200D02*
X100602857Y-110944819D01*
X100602857Y-110944819D02*
X100221905Y-110944819D01*
X100221905Y-110944819D02*
X100221905Y-109944819D01*
X100221905Y-109944819D02*
X100555238Y-109944819D01*
X100555238Y-109944819D02*
X100650476Y-109992438D01*
X100650476Y-109992438D02*
X100698095Y-110040057D01*
X100698095Y-110040057D02*
X100745714Y-110135295D01*
X100745714Y-110135295D02*
X100745714Y-110230533D01*
X100745714Y-110230533D02*
X100698095Y-110325771D01*
X100698095Y-110325771D02*
X100650476Y-110373390D01*
X100650476Y-110373390D02*
X100555238Y-110421009D01*
X100555238Y-110421009D02*
X100221905Y-110421009D01*
X101126667Y-109944819D02*
X101793333Y-109944819D01*
X101793333Y-109944819D02*
X101364762Y-110944819D01*
X117040819Y-89082476D02*
X116564628Y-89415809D01*
X117040819Y-89653904D02*
X116040819Y-89653904D01*
X116040819Y-89653904D02*
X116040819Y-89272952D01*
X116040819Y-89272952D02*
X116088438Y-89177714D01*
X116088438Y-89177714D02*
X116136057Y-89130095D01*
X116136057Y-89130095D02*
X116231295Y-89082476D01*
X116231295Y-89082476D02*
X116374152Y-89082476D01*
X116374152Y-89082476D02*
X116469390Y-89130095D01*
X116469390Y-89130095D02*
X116517009Y-89177714D01*
X116517009Y-89177714D02*
X116564628Y-89272952D01*
X116564628Y-89272952D02*
X116564628Y-89653904D01*
X117040819Y-88653904D02*
X116040819Y-88653904D01*
X116040819Y-88653904D02*
X117040819Y-88082476D01*
X117040819Y-88082476D02*
X116040819Y-88082476D01*
X116136057Y-87653904D02*
X116088438Y-87606285D01*
X116088438Y-87606285D02*
X116040819Y-87511047D01*
X116040819Y-87511047D02*
X116040819Y-87272952D01*
X116040819Y-87272952D02*
X116088438Y-87177714D01*
X116088438Y-87177714D02*
X116136057Y-87130095D01*
X116136057Y-87130095D02*
X116231295Y-87082476D01*
X116231295Y-87082476D02*
X116326533Y-87082476D01*
X116326533Y-87082476D02*
X116469390Y-87130095D01*
X116469390Y-87130095D02*
X117040819Y-87701523D01*
X117040819Y-87701523D02*
X117040819Y-87082476D01*
X100560238Y-91117006D02*
X100703095Y-91164625D01*
X100703095Y-91164625D02*
X100750714Y-91212244D01*
X100750714Y-91212244D02*
X100798333Y-91307482D01*
X100798333Y-91307482D02*
X100798333Y-91450339D01*
X100798333Y-91450339D02*
X100750714Y-91545577D01*
X100750714Y-91545577D02*
X100703095Y-91593197D01*
X100703095Y-91593197D02*
X100607857Y-91640816D01*
X100607857Y-91640816D02*
X100226905Y-91640816D01*
X100226905Y-91640816D02*
X100226905Y-90640816D01*
X100226905Y-90640816D02*
X100560238Y-90640816D01*
X100560238Y-90640816D02*
X100655476Y-90688435D01*
X100655476Y-90688435D02*
X100703095Y-90736054D01*
X100703095Y-90736054D02*
X100750714Y-90831292D01*
X100750714Y-90831292D02*
X100750714Y-90926530D01*
X100750714Y-90926530D02*
X100703095Y-91021768D01*
X100703095Y-91021768D02*
X100655476Y-91069387D01*
X100655476Y-91069387D02*
X100560238Y-91117006D01*
X100560238Y-91117006D02*
X100226905Y-91117006D01*
X101750714Y-91640816D02*
X101179286Y-91640816D01*
X101465000Y-91640816D02*
X101465000Y-90640816D01*
X101465000Y-90640816D02*
X101369762Y-90783673D01*
X101369762Y-90783673D02*
X101274524Y-90878911D01*
X101274524Y-90878911D02*
X101179286Y-90926530D01*
X100560238Y-100769005D02*
X100703095Y-100816624D01*
X100703095Y-100816624D02*
X100750714Y-100864243D01*
X100750714Y-100864243D02*
X100798333Y-100959481D01*
X100798333Y-100959481D02*
X100798333Y-101102338D01*
X100798333Y-101102338D02*
X100750714Y-101197576D01*
X100750714Y-101197576D02*
X100703095Y-101245196D01*
X100703095Y-101245196D02*
X100607857Y-101292815D01*
X100607857Y-101292815D02*
X100226905Y-101292815D01*
X100226905Y-101292815D02*
X100226905Y-100292815D01*
X100226905Y-100292815D02*
X100560238Y-100292815D01*
X100560238Y-100292815D02*
X100655476Y-100340434D01*
X100655476Y-100340434D02*
X100703095Y-100388053D01*
X100703095Y-100388053D02*
X100750714Y-100483291D01*
X100750714Y-100483291D02*
X100750714Y-100578529D01*
X100750714Y-100578529D02*
X100703095Y-100673767D01*
X100703095Y-100673767D02*
X100655476Y-100721386D01*
X100655476Y-100721386D02*
X100560238Y-100769005D01*
X100560238Y-100769005D02*
X100226905Y-100769005D01*
X101655476Y-100626148D02*
X101655476Y-101292815D01*
X101417381Y-100245196D02*
X101179286Y-100959481D01*
X101179286Y-100959481D02*
X101798333Y-100959481D01*
X100250714Y-62399104D02*
X100726904Y-62399104D01*
X100155476Y-62684819D02*
X100488809Y-61684819D01*
X100488809Y-61684819D02*
X100822142Y-62684819D01*
X101345952Y-61684819D02*
X101441190Y-61684819D01*
X101441190Y-61684819D02*
X101536428Y-61732438D01*
X101536428Y-61732438D02*
X101584047Y-61780057D01*
X101584047Y-61780057D02*
X101631666Y-61875295D01*
X101631666Y-61875295D02*
X101679285Y-62065771D01*
X101679285Y-62065771D02*
X101679285Y-62303866D01*
X101679285Y-62303866D02*
X101631666Y-62494342D01*
X101631666Y-62494342D02*
X101584047Y-62589580D01*
X101584047Y-62589580D02*
X101536428Y-62637200D01*
X101536428Y-62637200D02*
X101441190Y-62684819D01*
X101441190Y-62684819D02*
X101345952Y-62684819D01*
X101345952Y-62684819D02*
X101250714Y-62637200D01*
X101250714Y-62637200D02*
X101203095Y-62589580D01*
X101203095Y-62589580D02*
X101155476Y-62494342D01*
X101155476Y-62494342D02*
X101107857Y-62303866D01*
X101107857Y-62303866D02*
X101107857Y-62065771D01*
X101107857Y-62065771D02*
X101155476Y-61875295D01*
X101155476Y-61875295D02*
X101203095Y-61780057D01*
X101203095Y-61780057D02*
X101250714Y-61732438D01*
X101250714Y-61732438D02*
X101345952Y-61684819D01*
X117040819Y-85018476D02*
X116564628Y-85351809D01*
X117040819Y-85589904D02*
X116040819Y-85589904D01*
X116040819Y-85589904D02*
X116040819Y-85208952D01*
X116040819Y-85208952D02*
X116088438Y-85113714D01*
X116088438Y-85113714D02*
X116136057Y-85066095D01*
X116136057Y-85066095D02*
X116231295Y-85018476D01*
X116231295Y-85018476D02*
X116374152Y-85018476D01*
X116374152Y-85018476D02*
X116469390Y-85066095D01*
X116469390Y-85066095D02*
X116517009Y-85113714D01*
X116517009Y-85113714D02*
X116564628Y-85208952D01*
X116564628Y-85208952D02*
X116564628Y-85589904D01*
X117040819Y-84589904D02*
X116040819Y-84589904D01*
X116040819Y-84589904D02*
X117040819Y-84018476D01*
X117040819Y-84018476D02*
X116040819Y-84018476D01*
X117040819Y-83018476D02*
X117040819Y-83589904D01*
X117040819Y-83304190D02*
X116040819Y-83304190D01*
X116040819Y-83304190D02*
X116183676Y-83399428D01*
X116183676Y-83399428D02*
X116278914Y-83494666D01*
X116278914Y-83494666D02*
X116326533Y-83589904D01*
X100250714Y-84920435D02*
X100726904Y-84920435D01*
X100155476Y-85206150D02*
X100488809Y-84206150D01*
X100488809Y-84206150D02*
X100822142Y-85206150D01*
X101060238Y-84206150D02*
X101726904Y-84206150D01*
X101726904Y-84206150D02*
X101298333Y-85206150D01*
X100560238Y-103986338D02*
X100703095Y-104033957D01*
X100703095Y-104033957D02*
X100750714Y-104081576D01*
X100750714Y-104081576D02*
X100798333Y-104176814D01*
X100798333Y-104176814D02*
X100798333Y-104319671D01*
X100798333Y-104319671D02*
X100750714Y-104414909D01*
X100750714Y-104414909D02*
X100703095Y-104462529D01*
X100703095Y-104462529D02*
X100607857Y-104510148D01*
X100607857Y-104510148D02*
X100226905Y-104510148D01*
X100226905Y-104510148D02*
X100226905Y-103510148D01*
X100226905Y-103510148D02*
X100560238Y-103510148D01*
X100560238Y-103510148D02*
X100655476Y-103557767D01*
X100655476Y-103557767D02*
X100703095Y-103605386D01*
X100703095Y-103605386D02*
X100750714Y-103700624D01*
X100750714Y-103700624D02*
X100750714Y-103795862D01*
X100750714Y-103795862D02*
X100703095Y-103891100D01*
X100703095Y-103891100D02*
X100655476Y-103938719D01*
X100655476Y-103938719D02*
X100560238Y-103986338D01*
X100560238Y-103986338D02*
X100226905Y-103986338D01*
X101703095Y-103510148D02*
X101226905Y-103510148D01*
X101226905Y-103510148D02*
X101179286Y-103986338D01*
X101179286Y-103986338D02*
X101226905Y-103938719D01*
X101226905Y-103938719D02*
X101322143Y-103891100D01*
X101322143Y-103891100D02*
X101560238Y-103891100D01*
X101560238Y-103891100D02*
X101655476Y-103938719D01*
X101655476Y-103938719D02*
X101703095Y-103986338D01*
X101703095Y-103986338D02*
X101750714Y-104081576D01*
X101750714Y-104081576D02*
X101750714Y-104319671D01*
X101750714Y-104319671D02*
X101703095Y-104414909D01*
X101703095Y-104414909D02*
X101655476Y-104462529D01*
X101655476Y-104462529D02*
X101560238Y-104510148D01*
X101560238Y-104510148D02*
X101322143Y-104510148D01*
X101322143Y-104510148D02*
X101226905Y-104462529D01*
X101226905Y-104462529D02*
X101179286Y-104414909D01*
X100560238Y-87899673D02*
X100703095Y-87947292D01*
X100703095Y-87947292D02*
X100750714Y-87994911D01*
X100750714Y-87994911D02*
X100798333Y-88090149D01*
X100798333Y-88090149D02*
X100798333Y-88233006D01*
X100798333Y-88233006D02*
X100750714Y-88328244D01*
X100750714Y-88328244D02*
X100703095Y-88375864D01*
X100703095Y-88375864D02*
X100607857Y-88423483D01*
X100607857Y-88423483D02*
X100226905Y-88423483D01*
X100226905Y-88423483D02*
X100226905Y-87423483D01*
X100226905Y-87423483D02*
X100560238Y-87423483D01*
X100560238Y-87423483D02*
X100655476Y-87471102D01*
X100655476Y-87471102D02*
X100703095Y-87518721D01*
X100703095Y-87518721D02*
X100750714Y-87613959D01*
X100750714Y-87613959D02*
X100750714Y-87709197D01*
X100750714Y-87709197D02*
X100703095Y-87804435D01*
X100703095Y-87804435D02*
X100655476Y-87852054D01*
X100655476Y-87852054D02*
X100560238Y-87899673D01*
X100560238Y-87899673D02*
X100226905Y-87899673D01*
X101417381Y-87423483D02*
X101512619Y-87423483D01*
X101512619Y-87423483D02*
X101607857Y-87471102D01*
X101607857Y-87471102D02*
X101655476Y-87518721D01*
X101655476Y-87518721D02*
X101703095Y-87613959D01*
X101703095Y-87613959D02*
X101750714Y-87804435D01*
X101750714Y-87804435D02*
X101750714Y-88042530D01*
X101750714Y-88042530D02*
X101703095Y-88233006D01*
X101703095Y-88233006D02*
X101655476Y-88328244D01*
X101655476Y-88328244D02*
X101607857Y-88375864D01*
X101607857Y-88375864D02*
X101512619Y-88423483D01*
X101512619Y-88423483D02*
X101417381Y-88423483D01*
X101417381Y-88423483D02*
X101322143Y-88375864D01*
X101322143Y-88375864D02*
X101274524Y-88328244D01*
X101274524Y-88328244D02*
X101226905Y-88233006D01*
X101226905Y-88233006D02*
X101179286Y-88042530D01*
X101179286Y-88042530D02*
X101179286Y-87804435D01*
X101179286Y-87804435D02*
X101226905Y-87613959D01*
X101226905Y-87613959D02*
X101274524Y-87518721D01*
X101274524Y-87518721D02*
X101322143Y-87471102D01*
X101322143Y-87471102D02*
X101417381Y-87423483D01*
X100560238Y-94334339D02*
X100703095Y-94381958D01*
X100703095Y-94381958D02*
X100750714Y-94429577D01*
X100750714Y-94429577D02*
X100798333Y-94524815D01*
X100798333Y-94524815D02*
X100798333Y-94667672D01*
X100798333Y-94667672D02*
X100750714Y-94762910D01*
X100750714Y-94762910D02*
X100703095Y-94810530D01*
X100703095Y-94810530D02*
X100607857Y-94858149D01*
X100607857Y-94858149D02*
X100226905Y-94858149D01*
X100226905Y-94858149D02*
X100226905Y-93858149D01*
X100226905Y-93858149D02*
X100560238Y-93858149D01*
X100560238Y-93858149D02*
X100655476Y-93905768D01*
X100655476Y-93905768D02*
X100703095Y-93953387D01*
X100703095Y-93953387D02*
X100750714Y-94048625D01*
X100750714Y-94048625D02*
X100750714Y-94143863D01*
X100750714Y-94143863D02*
X100703095Y-94239101D01*
X100703095Y-94239101D02*
X100655476Y-94286720D01*
X100655476Y-94286720D02*
X100560238Y-94334339D01*
X100560238Y-94334339D02*
X100226905Y-94334339D01*
X101179286Y-93953387D02*
X101226905Y-93905768D01*
X101226905Y-93905768D02*
X101322143Y-93858149D01*
X101322143Y-93858149D02*
X101560238Y-93858149D01*
X101560238Y-93858149D02*
X101655476Y-93905768D01*
X101655476Y-93905768D02*
X101703095Y-93953387D01*
X101703095Y-93953387D02*
X101750714Y-94048625D01*
X101750714Y-94048625D02*
X101750714Y-94143863D01*
X101750714Y-94143863D02*
X101703095Y-94286720D01*
X101703095Y-94286720D02*
X101131667Y-94858149D01*
X101131667Y-94858149D02*
X101750714Y-94858149D01*
X100250714Y-68833770D02*
X100726904Y-68833770D01*
X100155476Y-69119485D02*
X100488809Y-68119485D01*
X100488809Y-68119485D02*
X100822142Y-69119485D01*
X101107857Y-68214723D02*
X101155476Y-68167104D01*
X101155476Y-68167104D02*
X101250714Y-68119485D01*
X101250714Y-68119485D02*
X101488809Y-68119485D01*
X101488809Y-68119485D02*
X101584047Y-68167104D01*
X101584047Y-68167104D02*
X101631666Y-68214723D01*
X101631666Y-68214723D02*
X101679285Y-68309961D01*
X101679285Y-68309961D02*
X101679285Y-68405199D01*
X101679285Y-68405199D02*
X101631666Y-68548056D01*
X101631666Y-68548056D02*
X101060238Y-69119485D01*
X101060238Y-69119485D02*
X101679285Y-69119485D01*
D11*
%TO.C,A3*%
X107340000Y-72941999D02*
X107340000Y-70821999D01*
X107340000Y-72941999D02*
X107130000Y-72941999D01*
X107340000Y-70821999D02*
X107130000Y-70821999D01*
X107220000Y-72941999D02*
X107220000Y-70821999D01*
X104970000Y-72941999D02*
X104239000Y-72941999D01*
X104970000Y-70821999D02*
X104239000Y-70821999D01*
X102780000Y-72941999D02*
X102220000Y-72941999D01*
X102780000Y-70821999D02*
X102220000Y-70821999D01*
X102220000Y-72941999D02*
X102220000Y-70821999D01*
%TO.C,B6*%
X107335000Y-108332662D02*
X107335000Y-106212662D01*
X107335000Y-108332662D02*
X107125000Y-108332662D01*
X107335000Y-106212662D02*
X107125000Y-106212662D01*
X107215000Y-108332662D02*
X107215000Y-106212662D01*
X104965000Y-108332662D02*
X104234000Y-108332662D01*
X104965000Y-106212662D02*
X104234000Y-106212662D01*
X102775000Y-108332662D02*
X102215000Y-108332662D01*
X102775000Y-106212662D02*
X102215000Y-106212662D01*
X102215000Y-108332662D02*
X102215000Y-106212662D01*
%TO.C,A4*%
X107335000Y-76159332D02*
X107335000Y-74039332D01*
X107335000Y-76159332D02*
X107125000Y-76159332D01*
X107335000Y-74039332D02*
X107125000Y-74039332D01*
X107215000Y-76159332D02*
X107215000Y-74039332D01*
X104965000Y-76159332D02*
X104234000Y-76159332D01*
X104965000Y-74039332D02*
X104234000Y-74039332D01*
X102775000Y-76159332D02*
X102215000Y-76159332D01*
X102775000Y-74039332D02*
X102215000Y-74039332D01*
X102215000Y-76159332D02*
X102215000Y-74039332D01*
%TO.C,A6*%
X107335000Y-82593998D02*
X107335000Y-80473998D01*
X107335000Y-82593998D02*
X107125000Y-82593998D01*
X107335000Y-80473998D02*
X107125000Y-80473998D01*
X107215000Y-82593998D02*
X107215000Y-80473998D01*
X104965000Y-82593998D02*
X104234000Y-82593998D01*
X104965000Y-80473998D02*
X104234000Y-80473998D01*
X102775000Y-82593998D02*
X102215000Y-82593998D01*
X102775000Y-80473998D02*
X102215000Y-80473998D01*
X102215000Y-82593998D02*
X102215000Y-80473998D01*
%TO.C,B3*%
X107335000Y-98680663D02*
X107335000Y-96560663D01*
X107335000Y-98680663D02*
X107125000Y-98680663D01*
X107335000Y-96560663D02*
X107125000Y-96560663D01*
X107215000Y-98680663D02*
X107215000Y-96560663D01*
X104965000Y-98680663D02*
X104234000Y-98680663D01*
X104965000Y-96560663D02*
X104234000Y-96560663D01*
X102775000Y-98680663D02*
X102215000Y-98680663D01*
X102775000Y-96560663D02*
X102215000Y-96560663D01*
X102215000Y-98680663D02*
X102215000Y-96560663D01*
%TO.C,A5*%
X107340000Y-79376665D02*
X107340000Y-77256665D01*
X107340000Y-79376665D02*
X107130000Y-79376665D01*
X107340000Y-77256665D02*
X107130000Y-77256665D01*
X107220000Y-79376665D02*
X107220000Y-77256665D01*
X104970000Y-79376665D02*
X104239000Y-79376665D01*
X104970000Y-77256665D02*
X104239000Y-77256665D01*
X102780000Y-79376665D02*
X102220000Y-79376665D01*
X102780000Y-77256665D02*
X102220000Y-77256665D01*
X102220000Y-79376665D02*
X102220000Y-77256665D01*
%TO.C,A1*%
X107335000Y-66507333D02*
X107335000Y-64387333D01*
X107335000Y-66507333D02*
X107125000Y-66507333D01*
X107335000Y-64387333D02*
X107125000Y-64387333D01*
X107215000Y-66507333D02*
X107215000Y-64387333D01*
X104965000Y-66507333D02*
X104234000Y-66507333D01*
X104965000Y-64387333D02*
X104234000Y-64387333D01*
X102775000Y-66507333D02*
X102215000Y-66507333D01*
X102775000Y-64387333D02*
X102215000Y-64387333D01*
X102215000Y-66507333D02*
X102215000Y-64387333D01*
%TO.C,B7*%
X107335000Y-111550000D02*
X107335000Y-109430000D01*
X107335000Y-111550000D02*
X107125000Y-111550000D01*
X107335000Y-109430000D02*
X107125000Y-109430000D01*
X107215000Y-111550000D02*
X107215000Y-109430000D01*
X104965000Y-111550000D02*
X104234000Y-111550000D01*
X104965000Y-109430000D02*
X104234000Y-109430000D01*
X102775000Y-111550000D02*
X102215000Y-111550000D01*
X102775000Y-109430000D02*
X102215000Y-109430000D01*
X102215000Y-111550000D02*
X102215000Y-109430000D01*
%TO.C,RN2*%
X111255000Y-86825000D02*
X108455000Y-86825000D01*
X108455000Y-86825000D02*
X108455000Y-110025000D01*
X111255000Y-89535000D02*
X108455000Y-89535000D01*
X111255000Y-110025000D02*
X111255000Y-86825000D01*
X108455000Y-110025000D02*
X111255000Y-110025000D01*
%TO.C,B1*%
X107340000Y-92245997D02*
X107340000Y-90125997D01*
X107340000Y-92245997D02*
X107130000Y-92245997D01*
X107340000Y-90125997D02*
X107130000Y-90125997D01*
X107220000Y-92245997D02*
X107220000Y-90125997D01*
X104970000Y-92245997D02*
X104239000Y-92245997D01*
X104970000Y-90125997D02*
X104239000Y-90125997D01*
X102780000Y-92245997D02*
X102220000Y-92245997D01*
X102780000Y-90125997D02*
X102220000Y-90125997D01*
X102220000Y-92245997D02*
X102220000Y-90125997D01*
%TO.C,B4*%
X107340000Y-101897996D02*
X107340000Y-99777996D01*
X107340000Y-101897996D02*
X107130000Y-101897996D01*
X107340000Y-99777996D02*
X107130000Y-99777996D01*
X107220000Y-101897996D02*
X107220000Y-99777996D01*
X104970000Y-101897996D02*
X104239000Y-101897996D01*
X104970000Y-99777996D02*
X104239000Y-99777996D01*
X102780000Y-101897996D02*
X102220000Y-101897996D01*
X102780000Y-99777996D02*
X102220000Y-99777996D01*
X102220000Y-101897996D02*
X102220000Y-99777996D01*
%TO.C,A0*%
X107335000Y-63290000D02*
X107335000Y-61170000D01*
X107335000Y-63290000D02*
X107125000Y-63290000D01*
X107335000Y-61170000D02*
X107125000Y-61170000D01*
X107215000Y-63290000D02*
X107215000Y-61170000D01*
X104965000Y-63290000D02*
X104234000Y-63290000D01*
X104965000Y-61170000D02*
X104234000Y-61170000D01*
X102775000Y-63290000D02*
X102215000Y-63290000D01*
X102775000Y-61170000D02*
X102215000Y-61170000D01*
X102215000Y-63290000D02*
X102215000Y-61170000D01*
%TO.C,RN1*%
X108455000Y-85895000D02*
X111255000Y-85895000D01*
X111255000Y-85895000D02*
X111255000Y-62695000D01*
X108455000Y-83185000D02*
X111255000Y-83185000D01*
X108455000Y-62695000D02*
X108455000Y-85895000D01*
X111255000Y-62695000D02*
X108455000Y-62695000D01*
%TO.C,A7*%
X107335000Y-85811331D02*
X107335000Y-83691331D01*
X107335000Y-85811331D02*
X107125000Y-85811331D01*
X107335000Y-83691331D02*
X107125000Y-83691331D01*
X107215000Y-85811331D02*
X107215000Y-83691331D01*
X104965000Y-85811331D02*
X104234000Y-85811331D01*
X104965000Y-83691331D02*
X104234000Y-83691331D01*
X102775000Y-85811331D02*
X102215000Y-85811331D01*
X102775000Y-83691331D02*
X102215000Y-83691331D01*
X102215000Y-85811331D02*
X102215000Y-83691331D01*
%TO.C,B5*%
X107335000Y-105115329D02*
X107335000Y-102995329D01*
X107335000Y-105115329D02*
X107125000Y-105115329D01*
X107335000Y-102995329D02*
X107125000Y-102995329D01*
X107215000Y-105115329D02*
X107215000Y-102995329D01*
X104965000Y-105115329D02*
X104234000Y-105115329D01*
X104965000Y-102995329D02*
X104234000Y-102995329D01*
X102775000Y-105115329D02*
X102215000Y-105115329D01*
X102775000Y-102995329D02*
X102215000Y-102995329D01*
X102215000Y-105115329D02*
X102215000Y-102995329D01*
%TO.C,B0*%
X107335000Y-89028664D02*
X107335000Y-86908664D01*
X107335000Y-89028664D02*
X107125000Y-89028664D01*
X107335000Y-86908664D02*
X107125000Y-86908664D01*
X107215000Y-89028664D02*
X107215000Y-86908664D01*
X104965000Y-89028664D02*
X104234000Y-89028664D01*
X104965000Y-86908664D02*
X104234000Y-86908664D01*
X102775000Y-89028664D02*
X102215000Y-89028664D01*
X102775000Y-86908664D02*
X102215000Y-86908664D01*
X102215000Y-89028664D02*
X102215000Y-86908664D01*
%TO.C,B2*%
X107335000Y-95463330D02*
X107335000Y-93343330D01*
X107335000Y-95463330D02*
X107125000Y-95463330D01*
X107335000Y-93343330D02*
X107125000Y-93343330D01*
X107215000Y-95463330D02*
X107215000Y-93343330D01*
X104965000Y-95463330D02*
X104234000Y-95463330D01*
X104965000Y-93343330D02*
X104234000Y-93343330D01*
X102775000Y-95463330D02*
X102215000Y-95463330D01*
X102775000Y-93343330D02*
X102215000Y-93343330D01*
X102215000Y-95463330D02*
X102215000Y-93343330D01*
%TO.C,A2*%
X107335000Y-69724666D02*
X107335000Y-67604666D01*
X107335000Y-69724666D02*
X107125000Y-69724666D01*
X107335000Y-67604666D02*
X107125000Y-67604666D01*
X107215000Y-69724666D02*
X107215000Y-67604666D01*
X104965000Y-69724666D02*
X104234000Y-69724666D01*
X104965000Y-67604666D02*
X104234000Y-67604666D01*
X102775000Y-69724666D02*
X102215000Y-69724666D01*
X102775000Y-67604666D02*
X102215000Y-67604666D01*
X102215000Y-69724666D02*
X102215000Y-67604666D01*
%TD*%
M02*
