%TF.GenerationSoftware,KiCad,Pcbnew,7.0.7*%
%TF.CreationDate,2023-09-16T00:15:51-05:00*%
%TF.ProjectId,pio-port-blinkenlights,70696f2d-706f-4727-942d-626c696e6b65,rev?*%
%TF.SameCoordinates,Original*%
%TF.FileFunction,Soldermask,Bot*%
%TF.FilePolarity,Negative*%
%FSLAX46Y46*%
G04 Gerber Fmt 4.6, Leading zero omitted, Abs format (unit mm)*
G04 Created by KiCad (PCBNEW 7.0.7) date 2023-09-16 00:15:51*
%MOMM*%
%LPD*%
G01*
G04 APERTURE LIST*
%ADD10R,1.800000X1.800000*%
%ADD11C,1.800000*%
%ADD12R,1.600000X1.600000*%
%ADD13O,1.600000X1.600000*%
%ADD14R,1.700000X1.700000*%
%ADD15O,1.700000X1.700000*%
G04 APERTURE END LIST*
D10*
%TO.C,A3*%
X106050000Y-71881999D03*
D11*
X103510000Y-71881999D03*
%TD*%
D10*
%TO.C,B6*%
X106045000Y-107272662D03*
D11*
X103505000Y-107272662D03*
%TD*%
D10*
%TO.C,A4*%
X106045000Y-75099332D03*
D11*
X103505000Y-75099332D03*
%TD*%
D10*
%TO.C,A6*%
X106045000Y-81533998D03*
D11*
X103505000Y-81533998D03*
%TD*%
D10*
%TO.C,B3*%
X106045000Y-97620663D03*
D11*
X103505000Y-97620663D03*
%TD*%
D10*
%TO.C,A5*%
X106050000Y-78316665D03*
D11*
X103510000Y-78316665D03*
%TD*%
D10*
%TO.C,A1*%
X106045000Y-65447333D03*
D11*
X103505000Y-65447333D03*
%TD*%
D10*
%TO.C,B7*%
X106045000Y-110490000D03*
D11*
X103505000Y-110490000D03*
%TD*%
D12*
%TO.C,RN2*%
X109855000Y-88265000D03*
D13*
X109855000Y-90805000D03*
X109855000Y-93345000D03*
X109855000Y-95885000D03*
X109855000Y-98425000D03*
X109855000Y-100965000D03*
X109855000Y-103505000D03*
X109855000Y-106045000D03*
X109855000Y-108585000D03*
%TD*%
D10*
%TO.C,B1*%
X106050000Y-91185997D03*
D11*
X103510000Y-91185997D03*
%TD*%
D10*
%TO.C,B4*%
X106050000Y-100837996D03*
D11*
X103510000Y-100837996D03*
%TD*%
D10*
%TO.C,A0*%
X106045000Y-62230000D03*
D11*
X103505000Y-62230000D03*
%TD*%
D12*
%TO.C,RN1*%
X109855000Y-84455000D03*
D13*
X109855000Y-81915000D03*
X109855000Y-79375000D03*
X109855000Y-76835000D03*
X109855000Y-74295000D03*
X109855000Y-71755000D03*
X109855000Y-69215000D03*
X109855000Y-66675000D03*
X109855000Y-64135000D03*
%TD*%
D10*
%TO.C,A7*%
X106045000Y-84751331D03*
D11*
X103505000Y-84751331D03*
%TD*%
D10*
%TO.C,B5*%
X106045000Y-104055329D03*
D11*
X103505000Y-104055329D03*
%TD*%
D10*
%TO.C,B0*%
X106045000Y-87968664D03*
D11*
X103505000Y-87968664D03*
%TD*%
D10*
%TO.C,B2*%
X106045000Y-94403330D03*
D11*
X103505000Y-94403330D03*
%TD*%
D10*
%TO.C,A2*%
X106045000Y-68664666D03*
D11*
X103505000Y-68664666D03*
%TD*%
D14*
%TO.C,J5*%
X96520000Y-62230000D03*
D15*
X99060000Y-62230000D03*
X96520000Y-64770000D03*
X99060000Y-64770000D03*
X96520000Y-67310000D03*
X99060000Y-67310000D03*
X96520000Y-69850000D03*
X99060000Y-69850000D03*
X96520000Y-72390000D03*
X99060000Y-72390000D03*
X96520000Y-74930000D03*
X99060000Y-74930000D03*
X96520000Y-77470000D03*
X99060000Y-77470000D03*
X96520000Y-80010000D03*
X99060000Y-80010000D03*
X96520000Y-82550000D03*
X99060000Y-82550000D03*
X96520000Y-85090000D03*
X99060000Y-85090000D03*
X96520000Y-87630000D03*
X99060000Y-87630000D03*
X96520000Y-90170000D03*
X99060000Y-90170000D03*
X96520000Y-92710000D03*
X99060000Y-92710000D03*
X96520000Y-95250000D03*
X99060000Y-95250000D03*
X96520000Y-97790000D03*
X99060000Y-97790000D03*
X96520000Y-100330000D03*
X99060000Y-100330000D03*
X96520000Y-102870000D03*
X99060000Y-102870000D03*
X96520000Y-105410000D03*
X99060000Y-105410000D03*
X96520000Y-107950000D03*
X99060000Y-107950000D03*
X96520000Y-110490000D03*
X99060000Y-110490000D03*
%TD*%
M02*
