%TF.GenerationSoftware,KiCad,Pcbnew,7.0.7*%
%TF.CreationDate,2023-09-16T00:15:51-05:00*%
%TF.ProjectId,pio-port-blinkenlights,70696f2d-706f-4727-942d-626c696e6b65,rev?*%
%TF.SameCoordinates,Original*%
%TF.FileFunction,Copper,L1,Top*%
%TF.FilePolarity,Positive*%
%FSLAX46Y46*%
G04 Gerber Fmt 4.6, Leading zero omitted, Abs format (unit mm)*
G04 Created by KiCad (PCBNEW 7.0.7) date 2023-09-16 00:15:51*
%MOMM*%
%LPD*%
G01*
G04 APERTURE LIST*
%TA.AperFunction,ComponentPad*%
%ADD10R,1.800000X1.800000*%
%TD*%
%TA.AperFunction,ComponentPad*%
%ADD11C,1.800000*%
%TD*%
%TA.AperFunction,ComponentPad*%
%ADD12R,1.600000X1.600000*%
%TD*%
%TA.AperFunction,ComponentPad*%
%ADD13O,1.600000X1.600000*%
%TD*%
%TA.AperFunction,ComponentPad*%
%ADD14R,1.700000X1.700000*%
%TD*%
%TA.AperFunction,ComponentPad*%
%ADD15O,1.700000X1.700000*%
%TD*%
%TA.AperFunction,Conductor*%
%ADD16C,0.250000*%
%TD*%
G04 APERTURE END LIST*
D10*
%TO.P,A3,1,K*%
%TO.N,Net-(A3-K)*%
X106050000Y-71881999D03*
D11*
%TO.P,A3,2,A*%
%TO.N,Net-(A3-A)*%
X103510000Y-71881999D03*
%TD*%
D10*
%TO.P,B6,1,K*%
%TO.N,Net-(B6-K)*%
X106045000Y-107272662D03*
D11*
%TO.P,B6,2,A*%
%TO.N,Net-(B6-A)*%
X103505000Y-107272662D03*
%TD*%
D10*
%TO.P,A4,1,K*%
%TO.N,Net-(A4-K)*%
X106045000Y-75099332D03*
D11*
%TO.P,A4,2,A*%
%TO.N,Net-(A4-A)*%
X103505000Y-75099332D03*
%TD*%
D10*
%TO.P,A6,1,K*%
%TO.N,Net-(A6-K)*%
X106045000Y-81533998D03*
D11*
%TO.P,A6,2,A*%
%TO.N,Net-(A6-A)*%
X103505000Y-81533998D03*
%TD*%
D10*
%TO.P,B3,1,K*%
%TO.N,Net-(B3-K)*%
X106045000Y-97620663D03*
D11*
%TO.P,B3,2,A*%
%TO.N,Net-(B3-A)*%
X103505000Y-97620663D03*
%TD*%
D10*
%TO.P,A5,1,K*%
%TO.N,Net-(A5-K)*%
X106050000Y-78316665D03*
D11*
%TO.P,A5,2,A*%
%TO.N,Net-(A5-A)*%
X103510000Y-78316665D03*
%TD*%
D10*
%TO.P,A1,1,K*%
%TO.N,Net-(A1-K)*%
X106045000Y-65447333D03*
D11*
%TO.P,A1,2,A*%
%TO.N,Net-(A1-A)*%
X103505000Y-65447333D03*
%TD*%
D10*
%TO.P,B7,1,K*%
%TO.N,Net-(B7-K)*%
X106045000Y-110490000D03*
D11*
%TO.P,B7,2,A*%
%TO.N,Net-(B7-A)*%
X103505000Y-110490000D03*
%TD*%
D12*
%TO.P,RN2,1,common*%
%TO.N,GND*%
X109855000Y-88265000D03*
D13*
%TO.P,RN2,2,R1*%
%TO.N,Net-(B0-K)*%
X109855000Y-90805000D03*
%TO.P,RN2,3,R2*%
%TO.N,Net-(B1-K)*%
X109855000Y-93345000D03*
%TO.P,RN2,4,R3*%
%TO.N,Net-(B2-K)*%
X109855000Y-95885000D03*
%TO.P,RN2,5,R4*%
%TO.N,Net-(B3-K)*%
X109855000Y-98425000D03*
%TO.P,RN2,6,R5*%
%TO.N,Net-(B4-K)*%
X109855000Y-100965000D03*
%TO.P,RN2,7,R6*%
%TO.N,Net-(B5-K)*%
X109855000Y-103505000D03*
%TO.P,RN2,8,R7*%
%TO.N,Net-(B6-K)*%
X109855000Y-106045000D03*
%TO.P,RN2,9,R8*%
%TO.N,Net-(B7-K)*%
X109855000Y-108585000D03*
%TD*%
D10*
%TO.P,B1,1,K*%
%TO.N,Net-(B1-K)*%
X106050000Y-91185997D03*
D11*
%TO.P,B1,2,A*%
%TO.N,Net-(B1-A)*%
X103510000Y-91185997D03*
%TD*%
D10*
%TO.P,B4,1,K*%
%TO.N,Net-(B4-K)*%
X106050000Y-100837996D03*
D11*
%TO.P,B4,2,A*%
%TO.N,Net-(B4-A)*%
X103510000Y-100837996D03*
%TD*%
D10*
%TO.P,A0,1,K*%
%TO.N,Net-(A0-K)*%
X106045000Y-62230000D03*
D11*
%TO.P,A0,2,A*%
%TO.N,Net-(A0-A)*%
X103505000Y-62230000D03*
%TD*%
D12*
%TO.P,RN1,1,common*%
%TO.N,GND*%
X109855000Y-84455000D03*
D13*
%TO.P,RN1,2,R1*%
%TO.N,Net-(A7-K)*%
X109855000Y-81915000D03*
%TO.P,RN1,3,R2*%
%TO.N,Net-(A6-K)*%
X109855000Y-79375000D03*
%TO.P,RN1,4,R3*%
%TO.N,Net-(A5-K)*%
X109855000Y-76835000D03*
%TO.P,RN1,5,R4*%
%TO.N,Net-(A4-K)*%
X109855000Y-74295000D03*
%TO.P,RN1,6,R5*%
%TO.N,Net-(A3-K)*%
X109855000Y-71755000D03*
%TO.P,RN1,7,R6*%
%TO.N,Net-(A2-K)*%
X109855000Y-69215000D03*
%TO.P,RN1,8,R7*%
%TO.N,Net-(A1-K)*%
X109855000Y-66675000D03*
%TO.P,RN1,9,R8*%
%TO.N,Net-(A0-K)*%
X109855000Y-64135000D03*
%TD*%
D10*
%TO.P,A7,1,K*%
%TO.N,Net-(A7-K)*%
X106045000Y-84751331D03*
D11*
%TO.P,A7,2,A*%
%TO.N,Net-(A7-A)*%
X103505000Y-84751331D03*
%TD*%
D10*
%TO.P,B5,1,K*%
%TO.N,Net-(B5-K)*%
X106045000Y-104055329D03*
D11*
%TO.P,B5,2,A*%
%TO.N,Net-(B5-A)*%
X103505000Y-104055329D03*
%TD*%
D10*
%TO.P,B0,1,K*%
%TO.N,Net-(B0-K)*%
X106045000Y-87968664D03*
D11*
%TO.P,B0,2,A*%
%TO.N,Net-(B0-A)*%
X103505000Y-87968664D03*
%TD*%
D10*
%TO.P,B2,1,K*%
%TO.N,Net-(B2-K)*%
X106045000Y-94403330D03*
D11*
%TO.P,B2,2,A*%
%TO.N,Net-(B2-A)*%
X103505000Y-94403330D03*
%TD*%
D10*
%TO.P,A2,1,K*%
%TO.N,Net-(A2-K)*%
X106045000Y-68664666D03*
D11*
%TO.P,A2,2,A*%
%TO.N,Net-(A2-A)*%
X103505000Y-68664666D03*
%TD*%
D14*
%TO.P,J5,1,Pin_1*%
%TO.N,GND*%
X96520000Y-62230000D03*
D15*
%TO.P,J5,2,Pin_2*%
%TO.N,unconnected-(J5-Pin_2-Pad2)*%
X99060000Y-62230000D03*
%TO.P,J5,3,Pin_3*%
%TO.N,GND*%
X96520000Y-64770000D03*
%TO.P,J5,4,Pin_4*%
%TO.N,unconnected-(J5-Pin_4-Pad4)*%
X99060000Y-64770000D03*
%TO.P,J5,5,Pin_5*%
%TO.N,GND*%
X96520000Y-67310000D03*
%TO.P,J5,6,Pin_6*%
%TO.N,Net-(A0-A)*%
X99060000Y-67310000D03*
%TO.P,J5,7,Pin_7*%
%TO.N,GND*%
X96520000Y-69850000D03*
%TO.P,J5,8,Pin_8*%
%TO.N,Net-(A1-A)*%
X99060000Y-69850000D03*
%TO.P,J5,9,Pin_9*%
%TO.N,GND*%
X96520000Y-72390000D03*
%TO.P,J5,10,Pin_10*%
%TO.N,Net-(A2-A)*%
X99060000Y-72390000D03*
%TO.P,J5,11,Pin_11*%
%TO.N,GND*%
X96520000Y-74930000D03*
%TO.P,J5,12,Pin_12*%
%TO.N,Net-(A3-A)*%
X99060000Y-74930000D03*
%TO.P,J5,13,Pin_13*%
%TO.N,GND*%
X96520000Y-77470000D03*
%TO.P,J5,14,Pin_14*%
%TO.N,Net-(A4-A)*%
X99060000Y-77470000D03*
%TO.P,J5,15,Pin_15*%
%TO.N,GND*%
X96520000Y-80010000D03*
%TO.P,J5,16,Pin_16*%
%TO.N,Net-(A5-A)*%
X99060000Y-80010000D03*
%TO.P,J5,17,Pin_17*%
%TO.N,GND*%
X96520000Y-82550000D03*
%TO.P,J5,18,Pin_18*%
%TO.N,Net-(A6-A)*%
X99060000Y-82550000D03*
%TO.P,J5,19,Pin_19*%
%TO.N,GND*%
X96520000Y-85090000D03*
%TO.P,J5,20,Pin_20*%
%TO.N,Net-(A7-A)*%
X99060000Y-85090000D03*
%TO.P,J5,21,Pin_21*%
%TO.N,GND*%
X96520000Y-87630000D03*
%TO.P,J5,22,Pin_22*%
%TO.N,unconnected-(J5-Pin_22-Pad22)*%
X99060000Y-87630000D03*
%TO.P,J5,23,Pin_23*%
%TO.N,GND*%
X96520000Y-90170000D03*
%TO.P,J5,24,Pin_24*%
%TO.N,unconnected-(J5-Pin_24-Pad24)*%
X99060000Y-90170000D03*
%TO.P,J5,25,Pin_25*%
%TO.N,GND*%
X96520000Y-92710000D03*
%TO.P,J5,26,Pin_26*%
%TO.N,Net-(B0-A)*%
X99060000Y-92710000D03*
%TO.P,J5,27,Pin_27*%
%TO.N,GND*%
X96520000Y-95250000D03*
%TO.P,J5,28,Pin_28*%
%TO.N,Net-(B1-A)*%
X99060000Y-95250000D03*
%TO.P,J5,29,Pin_29*%
%TO.N,GND*%
X96520000Y-97790000D03*
%TO.P,J5,30,Pin_30*%
%TO.N,Net-(B2-A)*%
X99060000Y-97790000D03*
%TO.P,J5,31,Pin_31*%
%TO.N,GND*%
X96520000Y-100330000D03*
%TO.P,J5,32,Pin_32*%
%TO.N,Net-(B3-A)*%
X99060000Y-100330000D03*
%TO.P,J5,33,Pin_33*%
%TO.N,GND*%
X96520000Y-102870000D03*
%TO.P,J5,34,Pin_34*%
%TO.N,Net-(B4-A)*%
X99060000Y-102870000D03*
%TO.P,J5,35,Pin_35*%
%TO.N,GND*%
X96520000Y-105410000D03*
%TO.P,J5,36,Pin_36*%
%TO.N,Net-(B5-A)*%
X99060000Y-105410000D03*
%TO.P,J5,37,Pin_37*%
%TO.N,GND*%
X96520000Y-107950000D03*
%TO.P,J5,38,Pin_38*%
%TO.N,Net-(B6-A)*%
X99060000Y-107950000D03*
%TO.P,J5,39,Pin_39*%
%TO.N,GND*%
X96520000Y-110490000D03*
%TO.P,J5,40,Pin_40*%
%TO.N,Net-(B7-A)*%
X99060000Y-110490000D03*
%TD*%
D16*
%TO.N,GND*%
X96520000Y-72390000D02*
X97790000Y-73660000D01*
X97790000Y-99060000D02*
X100330000Y-99060000D01*
X96520000Y-82550000D02*
X97790000Y-83820000D01*
X96520000Y-92710000D02*
X97790000Y-93980000D01*
X96520000Y-85090000D02*
X97790000Y-86360000D01*
X96520000Y-74930000D02*
X97790000Y-76200000D01*
X97790000Y-68580000D02*
X100330000Y-68580000D01*
X96520000Y-62230000D02*
X97790000Y-63500000D01*
X97790000Y-66040000D02*
X100330000Y-66040000D01*
X96520000Y-95250000D02*
X97790000Y-96520000D01*
X96520000Y-97790000D02*
X97790000Y-99060000D01*
X97790000Y-83820000D02*
X100330000Y-83820000D01*
X97790000Y-63500000D02*
X100330000Y-63500000D01*
X96520000Y-107950000D02*
X97790000Y-109220000D01*
X96520000Y-105410000D02*
X97790000Y-106680000D01*
X96520000Y-64770000D02*
X97790000Y-66040000D01*
X96520000Y-69850000D02*
X97790000Y-71120000D01*
X96520000Y-77470000D02*
X97790000Y-78740000D01*
X97790000Y-106680000D02*
X100330000Y-106680000D01*
X97790000Y-91440000D02*
X100330000Y-91440000D01*
X96520000Y-80010000D02*
X97790000Y-81280000D01*
X97790000Y-71120000D02*
X100330000Y-71120000D01*
X97790000Y-81280000D02*
X100330000Y-81280000D01*
X96520000Y-90170000D02*
X97790000Y-91440000D01*
X96520000Y-87630000D02*
X97790000Y-88900000D01*
X97790000Y-93980000D02*
X100330000Y-93980000D01*
X96520000Y-102870000D02*
X97790000Y-104140000D01*
X97790000Y-86360000D02*
X100330000Y-86360000D01*
X97790000Y-78740000D02*
X100330000Y-78740000D01*
X97790000Y-101600000D02*
X100330000Y-101600000D01*
X97790000Y-104140000D02*
X100330000Y-104140000D01*
X97790000Y-109220000D02*
X100330000Y-109220000D01*
X97790000Y-96520000D02*
X100330000Y-96520000D01*
X96520000Y-100330000D02*
X97790000Y-101600000D01*
X97790000Y-73660000D02*
X100330000Y-73660000D01*
X96520000Y-67310000D02*
X97790000Y-68580000D01*
X97790000Y-76200000D02*
X100330000Y-76200000D01*
X97790000Y-88900000D02*
X100330000Y-88900000D01*
%TD*%
%TA.AperFunction,Conductor*%
%TO.N,GND*%
G36*
X96697512Y-108449507D02*
G01*
X96750315Y-108495262D01*
X96770000Y-108562301D01*
X96770000Y-109877698D01*
X96750315Y-109944737D01*
X96697511Y-109990492D01*
X96628355Y-110000436D01*
X96555766Y-109990000D01*
X96555763Y-109990000D01*
X96484237Y-109990000D01*
X96484233Y-109990000D01*
X96411645Y-110000436D01*
X96342487Y-109990492D01*
X96289684Y-109944736D01*
X96270000Y-109877698D01*
X96270000Y-108562301D01*
X96289685Y-108495262D01*
X96342489Y-108449507D01*
X96411647Y-108439563D01*
X96484237Y-108450000D01*
X96484238Y-108450000D01*
X96555762Y-108450000D01*
X96555763Y-108450000D01*
X96628353Y-108439563D01*
X96697512Y-108449507D01*
G37*
%TD.AperFunction*%
%TA.AperFunction,Conductor*%
G36*
X97874549Y-108616110D02*
G01*
X97891269Y-108635405D01*
X98021505Y-108821401D01*
X98021506Y-108821402D01*
X98188597Y-108988493D01*
X98188603Y-108988498D01*
X98374158Y-109118425D01*
X98417783Y-109173002D01*
X98424977Y-109242500D01*
X98393454Y-109304855D01*
X98374158Y-109321575D01*
X98188597Y-109451505D01*
X98021508Y-109618594D01*
X97891269Y-109804595D01*
X97836692Y-109848219D01*
X97767193Y-109855412D01*
X97704839Y-109823890D01*
X97688119Y-109804594D01*
X97558113Y-109618926D01*
X97558108Y-109618920D01*
X97391082Y-109451894D01*
X97204968Y-109321575D01*
X97161344Y-109266998D01*
X97154151Y-109197499D01*
X97185673Y-109135145D01*
X97204968Y-109118425D01*
X97391082Y-108988105D01*
X97558105Y-108821082D01*
X97688119Y-108635405D01*
X97742696Y-108591781D01*
X97812195Y-108584588D01*
X97874549Y-108616110D01*
G37*
%TD.AperFunction*%
%TA.AperFunction,Conductor*%
G36*
X96697512Y-105909507D02*
G01*
X96750315Y-105955262D01*
X96770000Y-106022301D01*
X96770000Y-107337698D01*
X96750315Y-107404737D01*
X96697511Y-107450492D01*
X96628355Y-107460436D01*
X96555766Y-107450000D01*
X96555763Y-107450000D01*
X96484237Y-107450000D01*
X96484233Y-107450000D01*
X96411645Y-107460436D01*
X96342487Y-107450492D01*
X96289684Y-107404736D01*
X96270000Y-107337698D01*
X96270000Y-106022301D01*
X96289685Y-105955262D01*
X96342489Y-105909507D01*
X96411647Y-105899563D01*
X96484237Y-105910000D01*
X96484238Y-105910000D01*
X96555762Y-105910000D01*
X96555763Y-105910000D01*
X96628353Y-105899563D01*
X96697512Y-105909507D01*
G37*
%TD.AperFunction*%
%TA.AperFunction,Conductor*%
G36*
X97874549Y-106076110D02*
G01*
X97891269Y-106095405D01*
X98021505Y-106281401D01*
X98021506Y-106281402D01*
X98188597Y-106448493D01*
X98188603Y-106448498D01*
X98374158Y-106578425D01*
X98417783Y-106633002D01*
X98424977Y-106702500D01*
X98393454Y-106764855D01*
X98374158Y-106781575D01*
X98188597Y-106911505D01*
X98021508Y-107078594D01*
X97891269Y-107264595D01*
X97836692Y-107308219D01*
X97767193Y-107315412D01*
X97704839Y-107283890D01*
X97688119Y-107264594D01*
X97558113Y-107078926D01*
X97558108Y-107078920D01*
X97391082Y-106911894D01*
X97204968Y-106781575D01*
X97161344Y-106726998D01*
X97154151Y-106657499D01*
X97185673Y-106595145D01*
X97204968Y-106578425D01*
X97391082Y-106448105D01*
X97558105Y-106281082D01*
X97688119Y-106095405D01*
X97742696Y-106051781D01*
X97812195Y-106044588D01*
X97874549Y-106076110D01*
G37*
%TD.AperFunction*%
%TA.AperFunction,Conductor*%
G36*
X96697512Y-103369507D02*
G01*
X96750315Y-103415262D01*
X96770000Y-103482301D01*
X96770000Y-104797698D01*
X96750315Y-104864737D01*
X96697511Y-104910492D01*
X96628355Y-104920436D01*
X96555766Y-104910000D01*
X96555763Y-104910000D01*
X96484237Y-104910000D01*
X96484233Y-104910000D01*
X96411645Y-104920436D01*
X96342487Y-104910492D01*
X96289684Y-104864736D01*
X96270000Y-104797698D01*
X96270000Y-103482301D01*
X96289685Y-103415262D01*
X96342489Y-103369507D01*
X96411647Y-103359563D01*
X96484237Y-103370000D01*
X96484238Y-103370000D01*
X96555762Y-103370000D01*
X96555763Y-103370000D01*
X96628353Y-103359563D01*
X96697512Y-103369507D01*
G37*
%TD.AperFunction*%
%TA.AperFunction,Conductor*%
G36*
X97874549Y-103536110D02*
G01*
X97891269Y-103555405D01*
X98021505Y-103741401D01*
X98021506Y-103741402D01*
X98188597Y-103908493D01*
X98188603Y-103908498D01*
X98374158Y-104038425D01*
X98417783Y-104093002D01*
X98424977Y-104162500D01*
X98393454Y-104224855D01*
X98374158Y-104241575D01*
X98188597Y-104371505D01*
X98021508Y-104538594D01*
X97891269Y-104724595D01*
X97836692Y-104768219D01*
X97767193Y-104775412D01*
X97704839Y-104743890D01*
X97688119Y-104724594D01*
X97558113Y-104538926D01*
X97558108Y-104538920D01*
X97391082Y-104371894D01*
X97204968Y-104241575D01*
X97161344Y-104186998D01*
X97154151Y-104117499D01*
X97185673Y-104055145D01*
X97204968Y-104038425D01*
X97391082Y-103908105D01*
X97558105Y-103741082D01*
X97688119Y-103555405D01*
X97742696Y-103511781D01*
X97812195Y-103504588D01*
X97874549Y-103536110D01*
G37*
%TD.AperFunction*%
%TA.AperFunction,Conductor*%
G36*
X96697512Y-100829507D02*
G01*
X96750315Y-100875262D01*
X96770000Y-100942301D01*
X96770000Y-102257698D01*
X96750315Y-102324737D01*
X96697511Y-102370492D01*
X96628355Y-102380436D01*
X96555766Y-102370000D01*
X96555763Y-102370000D01*
X96484237Y-102370000D01*
X96484233Y-102370000D01*
X96411645Y-102380436D01*
X96342487Y-102370492D01*
X96289684Y-102324736D01*
X96270000Y-102257698D01*
X96270000Y-100942301D01*
X96289685Y-100875262D01*
X96342489Y-100829507D01*
X96411647Y-100819563D01*
X96484237Y-100830000D01*
X96484238Y-100830000D01*
X96555762Y-100830000D01*
X96555763Y-100830000D01*
X96628353Y-100819563D01*
X96697512Y-100829507D01*
G37*
%TD.AperFunction*%
%TA.AperFunction,Conductor*%
G36*
X97874549Y-100996110D02*
G01*
X97891269Y-101015405D01*
X98021505Y-101201401D01*
X98021506Y-101201402D01*
X98188597Y-101368493D01*
X98188603Y-101368498D01*
X98374158Y-101498425D01*
X98417783Y-101553002D01*
X98424977Y-101622500D01*
X98393454Y-101684855D01*
X98374158Y-101701575D01*
X98188597Y-101831505D01*
X98021508Y-101998594D01*
X97891269Y-102184595D01*
X97836692Y-102228219D01*
X97767193Y-102235412D01*
X97704839Y-102203890D01*
X97688119Y-102184594D01*
X97558113Y-101998926D01*
X97558108Y-101998920D01*
X97391082Y-101831894D01*
X97204968Y-101701575D01*
X97161344Y-101646998D01*
X97154151Y-101577499D01*
X97185673Y-101515145D01*
X97204968Y-101498425D01*
X97391082Y-101368105D01*
X97558105Y-101201082D01*
X97688119Y-101015405D01*
X97742696Y-100971781D01*
X97812195Y-100964588D01*
X97874549Y-100996110D01*
G37*
%TD.AperFunction*%
%TA.AperFunction,Conductor*%
G36*
X96697512Y-98289507D02*
G01*
X96750315Y-98335262D01*
X96770000Y-98402301D01*
X96770000Y-99717698D01*
X96750315Y-99784737D01*
X96697511Y-99830492D01*
X96628355Y-99840436D01*
X96555766Y-99830000D01*
X96555763Y-99830000D01*
X96484237Y-99830000D01*
X96484233Y-99830000D01*
X96411645Y-99840436D01*
X96342487Y-99830492D01*
X96289684Y-99784736D01*
X96270000Y-99717698D01*
X96270000Y-98402301D01*
X96289685Y-98335262D01*
X96342489Y-98289507D01*
X96411647Y-98279563D01*
X96484237Y-98290000D01*
X96484238Y-98290000D01*
X96555762Y-98290000D01*
X96555763Y-98290000D01*
X96628353Y-98279563D01*
X96697512Y-98289507D01*
G37*
%TD.AperFunction*%
%TA.AperFunction,Conductor*%
G36*
X97874549Y-98456110D02*
G01*
X97891269Y-98475405D01*
X97904180Y-98493844D01*
X98021505Y-98661401D01*
X98021506Y-98661402D01*
X98188597Y-98828493D01*
X98188603Y-98828498D01*
X98374158Y-98958425D01*
X98417783Y-99013002D01*
X98424977Y-99082500D01*
X98393454Y-99144855D01*
X98374158Y-99161575D01*
X98188597Y-99291505D01*
X98021508Y-99458594D01*
X97891269Y-99644595D01*
X97836692Y-99688219D01*
X97767193Y-99695412D01*
X97704839Y-99663890D01*
X97688119Y-99644594D01*
X97558113Y-99458926D01*
X97558108Y-99458920D01*
X97391082Y-99291894D01*
X97204968Y-99161575D01*
X97161344Y-99106998D01*
X97154151Y-99037499D01*
X97185673Y-98975145D01*
X97204968Y-98958425D01*
X97391082Y-98828105D01*
X97558105Y-98661082D01*
X97688119Y-98475405D01*
X97742696Y-98431781D01*
X97812195Y-98424588D01*
X97874549Y-98456110D01*
G37*
%TD.AperFunction*%
%TA.AperFunction,Conductor*%
G36*
X96697512Y-95749507D02*
G01*
X96750315Y-95795262D01*
X96770000Y-95862301D01*
X96770000Y-97177698D01*
X96750315Y-97244737D01*
X96697511Y-97290492D01*
X96628355Y-97300436D01*
X96555766Y-97290000D01*
X96555763Y-97290000D01*
X96484237Y-97290000D01*
X96484233Y-97290000D01*
X96411645Y-97300436D01*
X96342487Y-97290492D01*
X96289684Y-97244736D01*
X96270000Y-97177698D01*
X96270000Y-95862301D01*
X96289685Y-95795262D01*
X96342489Y-95749507D01*
X96411647Y-95739563D01*
X96484237Y-95750000D01*
X96484238Y-95750000D01*
X96555762Y-95750000D01*
X96555763Y-95750000D01*
X96628353Y-95739563D01*
X96697512Y-95749507D01*
G37*
%TD.AperFunction*%
%TA.AperFunction,Conductor*%
G36*
X97874549Y-95916110D02*
G01*
X97891269Y-95935405D01*
X98021505Y-96121401D01*
X98021506Y-96121402D01*
X98188597Y-96288493D01*
X98188603Y-96288498D01*
X98374158Y-96418425D01*
X98417783Y-96473002D01*
X98424977Y-96542500D01*
X98393454Y-96604855D01*
X98374158Y-96621575D01*
X98188597Y-96751505D01*
X98021508Y-96918594D01*
X97891269Y-97104595D01*
X97836692Y-97148219D01*
X97767193Y-97155412D01*
X97704839Y-97123890D01*
X97688119Y-97104594D01*
X97558113Y-96918926D01*
X97558108Y-96918920D01*
X97391082Y-96751894D01*
X97204968Y-96621575D01*
X97161344Y-96566998D01*
X97154151Y-96497499D01*
X97185673Y-96435145D01*
X97204968Y-96418425D01*
X97391082Y-96288105D01*
X97558105Y-96121082D01*
X97688119Y-95935405D01*
X97742696Y-95891781D01*
X97812195Y-95884588D01*
X97874549Y-95916110D01*
G37*
%TD.AperFunction*%
%TA.AperFunction,Conductor*%
G36*
X96697512Y-93209507D02*
G01*
X96750315Y-93255262D01*
X96770000Y-93322301D01*
X96770000Y-94637698D01*
X96750315Y-94704737D01*
X96697511Y-94750492D01*
X96628355Y-94760436D01*
X96555766Y-94750000D01*
X96555763Y-94750000D01*
X96484237Y-94750000D01*
X96484233Y-94750000D01*
X96411645Y-94760436D01*
X96342487Y-94750492D01*
X96289684Y-94704736D01*
X96270000Y-94637698D01*
X96270000Y-93322301D01*
X96289685Y-93255262D01*
X96342489Y-93209507D01*
X96411647Y-93199563D01*
X96484237Y-93210000D01*
X96484238Y-93210000D01*
X96555762Y-93210000D01*
X96555763Y-93210000D01*
X96628353Y-93199563D01*
X96697512Y-93209507D01*
G37*
%TD.AperFunction*%
%TA.AperFunction,Conductor*%
G36*
X97874549Y-93376110D02*
G01*
X97891269Y-93395405D01*
X97896822Y-93403336D01*
X98021505Y-93581401D01*
X98021506Y-93581402D01*
X98188597Y-93748493D01*
X98188603Y-93748498D01*
X98374158Y-93878425D01*
X98417783Y-93933002D01*
X98424977Y-94002500D01*
X98393454Y-94064855D01*
X98374158Y-94081575D01*
X98188597Y-94211505D01*
X98021508Y-94378594D01*
X97891269Y-94564595D01*
X97836692Y-94608219D01*
X97767193Y-94615412D01*
X97704839Y-94583890D01*
X97688119Y-94564594D01*
X97558113Y-94378926D01*
X97558108Y-94378920D01*
X97391082Y-94211894D01*
X97204968Y-94081575D01*
X97161344Y-94026998D01*
X97154151Y-93957499D01*
X97185673Y-93895145D01*
X97204968Y-93878425D01*
X97391082Y-93748105D01*
X97558105Y-93581082D01*
X97688119Y-93395405D01*
X97742696Y-93351781D01*
X97812195Y-93344588D01*
X97874549Y-93376110D01*
G37*
%TD.AperFunction*%
%TA.AperFunction,Conductor*%
G36*
X96697512Y-90669507D02*
G01*
X96750315Y-90715262D01*
X96770000Y-90782301D01*
X96770000Y-92097698D01*
X96750315Y-92164737D01*
X96697511Y-92210492D01*
X96628355Y-92220436D01*
X96555766Y-92210000D01*
X96555763Y-92210000D01*
X96484237Y-92210000D01*
X96484233Y-92210000D01*
X96411645Y-92220436D01*
X96342487Y-92210492D01*
X96289684Y-92164736D01*
X96270000Y-92097698D01*
X96270000Y-90782301D01*
X96289685Y-90715262D01*
X96342489Y-90669507D01*
X96411647Y-90659563D01*
X96484237Y-90670000D01*
X96484238Y-90670000D01*
X96555762Y-90670000D01*
X96555763Y-90670000D01*
X96628353Y-90659563D01*
X96697512Y-90669507D01*
G37*
%TD.AperFunction*%
%TA.AperFunction,Conductor*%
G36*
X97874549Y-90836110D02*
G01*
X97891269Y-90855405D01*
X98021505Y-91041401D01*
X98021506Y-91041402D01*
X98188597Y-91208493D01*
X98188603Y-91208498D01*
X98374158Y-91338425D01*
X98417783Y-91393002D01*
X98424977Y-91462500D01*
X98393454Y-91524855D01*
X98374158Y-91541575D01*
X98188597Y-91671505D01*
X98021508Y-91838594D01*
X97891269Y-92024595D01*
X97836692Y-92068219D01*
X97767193Y-92075412D01*
X97704839Y-92043890D01*
X97688119Y-92024594D01*
X97558113Y-91838926D01*
X97558108Y-91838920D01*
X97391082Y-91671894D01*
X97204968Y-91541575D01*
X97161344Y-91486998D01*
X97154151Y-91417499D01*
X97185673Y-91355145D01*
X97204968Y-91338425D01*
X97391082Y-91208105D01*
X97558105Y-91041082D01*
X97688119Y-90855405D01*
X97742696Y-90811781D01*
X97812195Y-90804588D01*
X97874549Y-90836110D01*
G37*
%TD.AperFunction*%
%TA.AperFunction,Conductor*%
G36*
X96697512Y-88129507D02*
G01*
X96750315Y-88175262D01*
X96770000Y-88242301D01*
X96770000Y-89557698D01*
X96750315Y-89624737D01*
X96697511Y-89670492D01*
X96628355Y-89680436D01*
X96555766Y-89670000D01*
X96555763Y-89670000D01*
X96484237Y-89670000D01*
X96484233Y-89670000D01*
X96411645Y-89680436D01*
X96342487Y-89670492D01*
X96289684Y-89624736D01*
X96270000Y-89557698D01*
X96270000Y-88242301D01*
X96289685Y-88175262D01*
X96342489Y-88129507D01*
X96411647Y-88119563D01*
X96484237Y-88130000D01*
X96484238Y-88130000D01*
X96555762Y-88130000D01*
X96555763Y-88130000D01*
X96628353Y-88119563D01*
X96697512Y-88129507D01*
G37*
%TD.AperFunction*%
%TA.AperFunction,Conductor*%
G36*
X97874549Y-88296110D02*
G01*
X97891269Y-88315405D01*
X98021505Y-88501401D01*
X98021506Y-88501402D01*
X98188597Y-88668493D01*
X98188603Y-88668498D01*
X98374158Y-88798425D01*
X98417783Y-88853002D01*
X98424977Y-88922500D01*
X98393454Y-88984855D01*
X98374158Y-89001575D01*
X98188597Y-89131505D01*
X98021508Y-89298594D01*
X97891269Y-89484595D01*
X97836692Y-89528219D01*
X97767193Y-89535412D01*
X97704839Y-89503890D01*
X97688119Y-89484594D01*
X97558113Y-89298926D01*
X97558108Y-89298920D01*
X97391082Y-89131894D01*
X97204968Y-89001575D01*
X97161344Y-88946998D01*
X97154151Y-88877499D01*
X97185673Y-88815145D01*
X97204968Y-88798425D01*
X97391082Y-88668105D01*
X97558105Y-88501082D01*
X97688119Y-88315405D01*
X97742696Y-88271781D01*
X97812195Y-88264588D01*
X97874549Y-88296110D01*
G37*
%TD.AperFunction*%
%TA.AperFunction,Conductor*%
G36*
X96697512Y-85589507D02*
G01*
X96750315Y-85635262D01*
X96770000Y-85702301D01*
X96770000Y-87017698D01*
X96750315Y-87084737D01*
X96697511Y-87130492D01*
X96628355Y-87140436D01*
X96555766Y-87130000D01*
X96555763Y-87130000D01*
X96484237Y-87130000D01*
X96484233Y-87130000D01*
X96411645Y-87140436D01*
X96342487Y-87130492D01*
X96289684Y-87084736D01*
X96270000Y-87017698D01*
X96270000Y-85702301D01*
X96289685Y-85635262D01*
X96342489Y-85589507D01*
X96411647Y-85579563D01*
X96484237Y-85590000D01*
X96484238Y-85590000D01*
X96555762Y-85590000D01*
X96555763Y-85590000D01*
X96628353Y-85579563D01*
X96697512Y-85589507D01*
G37*
%TD.AperFunction*%
%TA.AperFunction,Conductor*%
G36*
X97874549Y-85756110D02*
G01*
X97891269Y-85775405D01*
X98021505Y-85961401D01*
X98021506Y-85961402D01*
X98188597Y-86128493D01*
X98188603Y-86128498D01*
X98374158Y-86258425D01*
X98417783Y-86313002D01*
X98424977Y-86382500D01*
X98393454Y-86444855D01*
X98374158Y-86461575D01*
X98188597Y-86591505D01*
X98021508Y-86758594D01*
X97891269Y-86944595D01*
X97836692Y-86988219D01*
X97767193Y-86995412D01*
X97704839Y-86963890D01*
X97688119Y-86944594D01*
X97558113Y-86758926D01*
X97558108Y-86758920D01*
X97391082Y-86591894D01*
X97204968Y-86461575D01*
X97161344Y-86406998D01*
X97154151Y-86337499D01*
X97185673Y-86275145D01*
X97204968Y-86258425D01*
X97391082Y-86128105D01*
X97558105Y-85961082D01*
X97688119Y-85775405D01*
X97742696Y-85731781D01*
X97812195Y-85724588D01*
X97874549Y-85756110D01*
G37*
%TD.AperFunction*%
%TA.AperFunction,Conductor*%
G36*
X96697512Y-83049507D02*
G01*
X96750315Y-83095262D01*
X96770000Y-83162301D01*
X96770000Y-84477698D01*
X96750315Y-84544737D01*
X96697511Y-84590492D01*
X96628355Y-84600436D01*
X96555766Y-84590000D01*
X96555763Y-84590000D01*
X96484237Y-84590000D01*
X96484233Y-84590000D01*
X96411645Y-84600436D01*
X96342487Y-84590492D01*
X96289684Y-84544736D01*
X96270000Y-84477698D01*
X96270000Y-83162301D01*
X96289685Y-83095262D01*
X96342489Y-83049507D01*
X96411647Y-83039563D01*
X96484237Y-83050000D01*
X96484238Y-83050000D01*
X96555762Y-83050000D01*
X96555763Y-83050000D01*
X96628353Y-83039563D01*
X96697512Y-83049507D01*
G37*
%TD.AperFunction*%
%TA.AperFunction,Conductor*%
G36*
X97874549Y-83216110D02*
G01*
X97891269Y-83235405D01*
X98021505Y-83421401D01*
X98021506Y-83421402D01*
X98188597Y-83588493D01*
X98188603Y-83588498D01*
X98374158Y-83718425D01*
X98417783Y-83773002D01*
X98424977Y-83842500D01*
X98393454Y-83904855D01*
X98374158Y-83921575D01*
X98188597Y-84051505D01*
X98021508Y-84218594D01*
X97891269Y-84404595D01*
X97836692Y-84448219D01*
X97767193Y-84455412D01*
X97704839Y-84423890D01*
X97688119Y-84404594D01*
X97558113Y-84218926D01*
X97558108Y-84218920D01*
X97391082Y-84051894D01*
X97204968Y-83921575D01*
X97161344Y-83866998D01*
X97154151Y-83797499D01*
X97185673Y-83735145D01*
X97204968Y-83718425D01*
X97391082Y-83588105D01*
X97558105Y-83421082D01*
X97688119Y-83235405D01*
X97742696Y-83191781D01*
X97812195Y-83184588D01*
X97874549Y-83216110D01*
G37*
%TD.AperFunction*%
%TA.AperFunction,Conductor*%
G36*
X96697512Y-80509507D02*
G01*
X96750315Y-80555262D01*
X96770000Y-80622301D01*
X96770000Y-81937698D01*
X96750315Y-82004737D01*
X96697511Y-82050492D01*
X96628355Y-82060436D01*
X96555766Y-82050000D01*
X96555763Y-82050000D01*
X96484237Y-82050000D01*
X96484233Y-82050000D01*
X96411645Y-82060436D01*
X96342487Y-82050492D01*
X96289684Y-82004736D01*
X96270000Y-81937698D01*
X96270000Y-80622301D01*
X96289685Y-80555262D01*
X96342489Y-80509507D01*
X96411647Y-80499563D01*
X96484237Y-80510000D01*
X96484238Y-80510000D01*
X96555762Y-80510000D01*
X96555763Y-80510000D01*
X96628353Y-80499563D01*
X96697512Y-80509507D01*
G37*
%TD.AperFunction*%
%TA.AperFunction,Conductor*%
G36*
X97874549Y-80676110D02*
G01*
X97891269Y-80695405D01*
X98021505Y-80881401D01*
X98021506Y-80881402D01*
X98188597Y-81048493D01*
X98188603Y-81048498D01*
X98374158Y-81178425D01*
X98417783Y-81233002D01*
X98424977Y-81302500D01*
X98393454Y-81364855D01*
X98374158Y-81381575D01*
X98188597Y-81511505D01*
X98021508Y-81678594D01*
X97891269Y-81864595D01*
X97836692Y-81908219D01*
X97767193Y-81915412D01*
X97704839Y-81883890D01*
X97688119Y-81864594D01*
X97558113Y-81678926D01*
X97558108Y-81678920D01*
X97391082Y-81511894D01*
X97204968Y-81381575D01*
X97161344Y-81326998D01*
X97154151Y-81257499D01*
X97185673Y-81195145D01*
X97204968Y-81178425D01*
X97391082Y-81048105D01*
X97558105Y-80881082D01*
X97688119Y-80695405D01*
X97742696Y-80651781D01*
X97812195Y-80644588D01*
X97874549Y-80676110D01*
G37*
%TD.AperFunction*%
%TA.AperFunction,Conductor*%
G36*
X96697512Y-77969507D02*
G01*
X96750315Y-78015262D01*
X96770000Y-78082301D01*
X96770000Y-79397698D01*
X96750315Y-79464737D01*
X96697511Y-79510492D01*
X96628355Y-79520436D01*
X96555766Y-79510000D01*
X96555763Y-79510000D01*
X96484237Y-79510000D01*
X96484233Y-79510000D01*
X96411645Y-79520436D01*
X96342487Y-79510492D01*
X96289684Y-79464736D01*
X96270000Y-79397698D01*
X96270000Y-78082301D01*
X96289685Y-78015262D01*
X96342489Y-77969507D01*
X96411647Y-77959563D01*
X96484237Y-77970000D01*
X96484238Y-77970000D01*
X96555762Y-77970000D01*
X96555763Y-77970000D01*
X96628353Y-77959563D01*
X96697512Y-77969507D01*
G37*
%TD.AperFunction*%
%TA.AperFunction,Conductor*%
G36*
X97874549Y-78136110D02*
G01*
X97891269Y-78155405D01*
X98021505Y-78341401D01*
X98021506Y-78341402D01*
X98188597Y-78508493D01*
X98188603Y-78508498D01*
X98374158Y-78638425D01*
X98417783Y-78693002D01*
X98424977Y-78762500D01*
X98393454Y-78824855D01*
X98374158Y-78841575D01*
X98188597Y-78971505D01*
X98021508Y-79138594D01*
X97891269Y-79324595D01*
X97836692Y-79368219D01*
X97767193Y-79375412D01*
X97704839Y-79343890D01*
X97688119Y-79324594D01*
X97558113Y-79138926D01*
X97558108Y-79138920D01*
X97391082Y-78971894D01*
X97204968Y-78841575D01*
X97161344Y-78786998D01*
X97154151Y-78717499D01*
X97185673Y-78655145D01*
X97204968Y-78638425D01*
X97391082Y-78508105D01*
X97558105Y-78341082D01*
X97688119Y-78155405D01*
X97742696Y-78111781D01*
X97812195Y-78104588D01*
X97874549Y-78136110D01*
G37*
%TD.AperFunction*%
%TA.AperFunction,Conductor*%
G36*
X96697512Y-75429507D02*
G01*
X96750315Y-75475262D01*
X96770000Y-75542301D01*
X96770000Y-76857698D01*
X96750315Y-76924737D01*
X96697511Y-76970492D01*
X96628355Y-76980436D01*
X96555766Y-76970000D01*
X96555763Y-76970000D01*
X96484237Y-76970000D01*
X96484233Y-76970000D01*
X96411645Y-76980436D01*
X96342487Y-76970492D01*
X96289684Y-76924736D01*
X96270000Y-76857698D01*
X96270000Y-75542301D01*
X96289685Y-75475262D01*
X96342489Y-75429507D01*
X96411647Y-75419563D01*
X96484237Y-75430000D01*
X96484238Y-75430000D01*
X96555762Y-75430000D01*
X96555763Y-75430000D01*
X96628353Y-75419563D01*
X96697512Y-75429507D01*
G37*
%TD.AperFunction*%
%TA.AperFunction,Conductor*%
G36*
X97874549Y-75596110D02*
G01*
X97891269Y-75615405D01*
X98021505Y-75801401D01*
X98021506Y-75801402D01*
X98188597Y-75968493D01*
X98188603Y-75968498D01*
X98374158Y-76098425D01*
X98417783Y-76153002D01*
X98424977Y-76222500D01*
X98393454Y-76284855D01*
X98374158Y-76301575D01*
X98188597Y-76431505D01*
X98021508Y-76598594D01*
X97891269Y-76784595D01*
X97836692Y-76828219D01*
X97767193Y-76835412D01*
X97704839Y-76803890D01*
X97688119Y-76784594D01*
X97558113Y-76598926D01*
X97558108Y-76598920D01*
X97391082Y-76431894D01*
X97204968Y-76301575D01*
X97161344Y-76246998D01*
X97154151Y-76177499D01*
X97185673Y-76115145D01*
X97204968Y-76098425D01*
X97391082Y-75968105D01*
X97558105Y-75801082D01*
X97688119Y-75615405D01*
X97742696Y-75571781D01*
X97812195Y-75564588D01*
X97874549Y-75596110D01*
G37*
%TD.AperFunction*%
%TA.AperFunction,Conductor*%
G36*
X96697512Y-72889507D02*
G01*
X96750315Y-72935262D01*
X96770000Y-73002301D01*
X96770000Y-74317698D01*
X96750315Y-74384737D01*
X96697511Y-74430492D01*
X96628355Y-74440436D01*
X96555766Y-74430000D01*
X96555763Y-74430000D01*
X96484237Y-74430000D01*
X96484233Y-74430000D01*
X96411645Y-74440436D01*
X96342487Y-74430492D01*
X96289684Y-74384736D01*
X96270000Y-74317698D01*
X96270000Y-73002301D01*
X96289685Y-72935262D01*
X96342489Y-72889507D01*
X96411647Y-72879563D01*
X96484237Y-72890000D01*
X96484238Y-72890000D01*
X96555762Y-72890000D01*
X96555763Y-72890000D01*
X96628353Y-72879563D01*
X96697512Y-72889507D01*
G37*
%TD.AperFunction*%
%TA.AperFunction,Conductor*%
G36*
X97874549Y-73056110D02*
G01*
X97891269Y-73075405D01*
X98021505Y-73261401D01*
X98021506Y-73261402D01*
X98188597Y-73428493D01*
X98188603Y-73428498D01*
X98374158Y-73558425D01*
X98417783Y-73613002D01*
X98424977Y-73682500D01*
X98393454Y-73744855D01*
X98374158Y-73761575D01*
X98188597Y-73891505D01*
X98021508Y-74058594D01*
X97891269Y-74244595D01*
X97836692Y-74288219D01*
X97767193Y-74295412D01*
X97704839Y-74263890D01*
X97688119Y-74244594D01*
X97558113Y-74058926D01*
X97558108Y-74058920D01*
X97391082Y-73891894D01*
X97204968Y-73761575D01*
X97161344Y-73706998D01*
X97154151Y-73637499D01*
X97185673Y-73575145D01*
X97204968Y-73558425D01*
X97391082Y-73428105D01*
X97558105Y-73261082D01*
X97688119Y-73075405D01*
X97742696Y-73031781D01*
X97812195Y-73024588D01*
X97874549Y-73056110D01*
G37*
%TD.AperFunction*%
%TA.AperFunction,Conductor*%
G36*
X96697512Y-70349507D02*
G01*
X96750315Y-70395262D01*
X96770000Y-70462301D01*
X96770000Y-71777698D01*
X96750315Y-71844737D01*
X96697511Y-71890492D01*
X96628355Y-71900436D01*
X96555766Y-71890000D01*
X96555763Y-71890000D01*
X96484237Y-71890000D01*
X96484233Y-71890000D01*
X96411645Y-71900436D01*
X96342487Y-71890492D01*
X96289684Y-71844736D01*
X96270000Y-71777698D01*
X96270000Y-70462301D01*
X96289685Y-70395262D01*
X96342489Y-70349507D01*
X96411647Y-70339563D01*
X96484237Y-70350000D01*
X96484238Y-70350000D01*
X96555762Y-70350000D01*
X96555763Y-70350000D01*
X96628353Y-70339563D01*
X96697512Y-70349507D01*
G37*
%TD.AperFunction*%
%TA.AperFunction,Conductor*%
G36*
X97874549Y-70516110D02*
G01*
X97891269Y-70535405D01*
X98021505Y-70721401D01*
X98021506Y-70721402D01*
X98188597Y-70888493D01*
X98188603Y-70888498D01*
X98374158Y-71018425D01*
X98417783Y-71073002D01*
X98424977Y-71142500D01*
X98393454Y-71204855D01*
X98374158Y-71221575D01*
X98188597Y-71351505D01*
X98021508Y-71518594D01*
X97891269Y-71704595D01*
X97836692Y-71748219D01*
X97767193Y-71755412D01*
X97704839Y-71723890D01*
X97688119Y-71704594D01*
X97558113Y-71518926D01*
X97558108Y-71518920D01*
X97391082Y-71351894D01*
X97204968Y-71221575D01*
X97161344Y-71166998D01*
X97154151Y-71097499D01*
X97185673Y-71035145D01*
X97204968Y-71018425D01*
X97391082Y-70888105D01*
X97558105Y-70721082D01*
X97688119Y-70535405D01*
X97742696Y-70491781D01*
X97812195Y-70484588D01*
X97874549Y-70516110D01*
G37*
%TD.AperFunction*%
%TA.AperFunction,Conductor*%
G36*
X96697512Y-67809507D02*
G01*
X96750315Y-67855262D01*
X96770000Y-67922301D01*
X96770000Y-69237698D01*
X96750315Y-69304737D01*
X96697511Y-69350492D01*
X96628355Y-69360436D01*
X96555766Y-69350000D01*
X96555763Y-69350000D01*
X96484237Y-69350000D01*
X96484233Y-69350000D01*
X96411645Y-69360436D01*
X96342487Y-69350492D01*
X96289684Y-69304736D01*
X96270000Y-69237698D01*
X96270000Y-67922301D01*
X96289685Y-67855262D01*
X96342489Y-67809507D01*
X96411647Y-67799563D01*
X96484237Y-67810000D01*
X96484238Y-67810000D01*
X96555762Y-67810000D01*
X96555763Y-67810000D01*
X96628353Y-67799563D01*
X96697512Y-67809507D01*
G37*
%TD.AperFunction*%
%TA.AperFunction,Conductor*%
G36*
X97874549Y-67976110D02*
G01*
X97891269Y-67995405D01*
X97902336Y-68011210D01*
X98021505Y-68181401D01*
X98021506Y-68181402D01*
X98188597Y-68348493D01*
X98188603Y-68348498D01*
X98374158Y-68478425D01*
X98417783Y-68533002D01*
X98424977Y-68602500D01*
X98393454Y-68664855D01*
X98374158Y-68681575D01*
X98188597Y-68811505D01*
X98021508Y-68978594D01*
X97891269Y-69164595D01*
X97836692Y-69208219D01*
X97767193Y-69215412D01*
X97704839Y-69183890D01*
X97688119Y-69164594D01*
X97558113Y-68978926D01*
X97558108Y-68978920D01*
X97391082Y-68811894D01*
X97204968Y-68681575D01*
X97161344Y-68626998D01*
X97154151Y-68557499D01*
X97185673Y-68495145D01*
X97204968Y-68478425D01*
X97391082Y-68348105D01*
X97558105Y-68181082D01*
X97688119Y-67995405D01*
X97742696Y-67951781D01*
X97812195Y-67944588D01*
X97874549Y-67976110D01*
G37*
%TD.AperFunction*%
%TA.AperFunction,Conductor*%
G36*
X96697512Y-65269507D02*
G01*
X96750315Y-65315262D01*
X96770000Y-65382301D01*
X96770000Y-66697698D01*
X96750315Y-66764737D01*
X96697511Y-66810492D01*
X96628355Y-66820436D01*
X96555766Y-66810000D01*
X96555763Y-66810000D01*
X96484237Y-66810000D01*
X96484233Y-66810000D01*
X96411645Y-66820436D01*
X96342487Y-66810492D01*
X96289684Y-66764736D01*
X96270000Y-66697698D01*
X96270000Y-65382301D01*
X96289685Y-65315262D01*
X96342489Y-65269507D01*
X96411647Y-65259563D01*
X96484237Y-65270000D01*
X96484238Y-65270000D01*
X96555762Y-65270000D01*
X96555763Y-65270000D01*
X96628353Y-65259563D01*
X96697512Y-65269507D01*
G37*
%TD.AperFunction*%
%TA.AperFunction,Conductor*%
G36*
X97874549Y-65436110D02*
G01*
X97891269Y-65455405D01*
X98021505Y-65641401D01*
X98021506Y-65641402D01*
X98188597Y-65808493D01*
X98188603Y-65808498D01*
X98374158Y-65938425D01*
X98417783Y-65993002D01*
X98424977Y-66062500D01*
X98393454Y-66124855D01*
X98374158Y-66141575D01*
X98188597Y-66271505D01*
X98021508Y-66438594D01*
X97891269Y-66624595D01*
X97836692Y-66668219D01*
X97767193Y-66675412D01*
X97704839Y-66643890D01*
X97688119Y-66624594D01*
X97558113Y-66438926D01*
X97558108Y-66438920D01*
X97391082Y-66271894D01*
X97204968Y-66141575D01*
X97161344Y-66086998D01*
X97154151Y-66017499D01*
X97185673Y-65955145D01*
X97204968Y-65938425D01*
X97391082Y-65808105D01*
X97558105Y-65641082D01*
X97688119Y-65455405D01*
X97742696Y-65411781D01*
X97812195Y-65404588D01*
X97874549Y-65436110D01*
G37*
%TD.AperFunction*%
%TA.AperFunction,Conductor*%
G36*
X96697512Y-62729507D02*
G01*
X96750315Y-62775262D01*
X96770000Y-62842301D01*
X96770000Y-64157698D01*
X96750315Y-64224737D01*
X96697511Y-64270492D01*
X96628355Y-64280436D01*
X96555766Y-64270000D01*
X96555763Y-64270000D01*
X96484237Y-64270000D01*
X96484233Y-64270000D01*
X96411645Y-64280436D01*
X96342487Y-64270492D01*
X96289684Y-64224736D01*
X96270000Y-64157698D01*
X96270000Y-62842301D01*
X96289685Y-62775262D01*
X96342489Y-62729507D01*
X96411647Y-62719563D01*
X96484237Y-62730000D01*
X96484238Y-62730000D01*
X96555762Y-62730000D01*
X96555763Y-62730000D01*
X96628353Y-62719563D01*
X96697512Y-62729507D01*
G37*
%TD.AperFunction*%
%TA.AperFunction,Conductor*%
G36*
X98038030Y-63125030D02*
G01*
X98066285Y-63146181D01*
X98188597Y-63268493D01*
X98188603Y-63268498D01*
X98374158Y-63398425D01*
X98417783Y-63453002D01*
X98424977Y-63522500D01*
X98393454Y-63584855D01*
X98374158Y-63601575D01*
X98188597Y-63731505D01*
X98021508Y-63898594D01*
X97891269Y-64084595D01*
X97836692Y-64128219D01*
X97767193Y-64135412D01*
X97704839Y-64103890D01*
X97688119Y-64084594D01*
X97558113Y-63898926D01*
X97558108Y-63898920D01*
X97435665Y-63776477D01*
X97402180Y-63715154D01*
X97407164Y-63645462D01*
X97449036Y-63589529D01*
X97480013Y-63572614D01*
X97612086Y-63523354D01*
X97612093Y-63523350D01*
X97727187Y-63437190D01*
X97727190Y-63437187D01*
X97813350Y-63322093D01*
X97813354Y-63322086D01*
X97862422Y-63190529D01*
X97904293Y-63134595D01*
X97969757Y-63110178D01*
X98038030Y-63125030D01*
G37*
%TD.AperFunction*%
%TA.AperFunction,Conductor*%
G36*
X103189476Y-60645185D02*
G01*
X103235231Y-60697989D01*
X103245175Y-60767147D01*
X103216150Y-60830703D01*
X103162700Y-60866781D01*
X102940504Y-60943061D01*
X102940495Y-60943064D01*
X102736371Y-61053531D01*
X102736365Y-61053535D01*
X102553222Y-61196081D01*
X102553219Y-61196084D01*
X102553216Y-61196086D01*
X102553216Y-61196087D01*
X102508319Y-61244858D01*
X102396016Y-61366852D01*
X102269075Y-61561151D01*
X102175842Y-61773699D01*
X102118866Y-61998691D01*
X102118864Y-61998702D01*
X102099700Y-62229993D01*
X102099700Y-62230006D01*
X102118864Y-62461297D01*
X102118866Y-62461308D01*
X102175842Y-62686300D01*
X102269075Y-62898848D01*
X102396016Y-63093147D01*
X102396019Y-63093151D01*
X102396021Y-63093153D01*
X102553216Y-63263913D01*
X102553219Y-63263915D01*
X102553222Y-63263918D01*
X102736365Y-63406464D01*
X102736371Y-63406468D01*
X102736374Y-63406470D01*
X102940497Y-63516936D01*
X103028065Y-63546998D01*
X103160015Y-63592297D01*
X103160017Y-63592297D01*
X103160019Y-63592298D01*
X103388951Y-63630500D01*
X103388952Y-63630500D01*
X103621048Y-63630500D01*
X103621049Y-63630500D01*
X103849981Y-63592298D01*
X104069503Y-63516936D01*
X104273626Y-63406470D01*
X104283963Y-63398425D01*
X104450893Y-63268498D01*
X104456784Y-63263913D01*
X104465130Y-63254846D01*
X104525010Y-63218854D01*
X104594849Y-63220949D01*
X104652468Y-63260469D01*
X104672544Y-63295491D01*
X104701203Y-63372330D01*
X104701206Y-63372335D01*
X104787452Y-63487544D01*
X104787455Y-63487547D01*
X104902664Y-63573793D01*
X104902671Y-63573797D01*
X105037517Y-63624091D01*
X105037516Y-63624091D01*
X105044444Y-63624835D01*
X105097127Y-63630500D01*
X106992872Y-63630499D01*
X107052483Y-63624091D01*
X107187331Y-63573796D01*
X107302546Y-63487546D01*
X107388796Y-63372331D01*
X107439091Y-63237483D01*
X107445500Y-63177873D01*
X107445499Y-61282128D01*
X107439091Y-61222517D01*
X107429233Y-61196087D01*
X107388797Y-61087671D01*
X107388793Y-61087664D01*
X107302547Y-60972455D01*
X107302544Y-60972452D01*
X107187335Y-60886206D01*
X107187328Y-60886202D01*
X107132310Y-60865682D01*
X107076376Y-60823811D01*
X107051959Y-60758346D01*
X107066811Y-60690073D01*
X107116216Y-60640668D01*
X107175643Y-60625500D01*
X111335500Y-60625500D01*
X111402539Y-60645185D01*
X111448294Y-60697989D01*
X111459500Y-60749500D01*
X111459500Y-111970500D01*
X111439815Y-112037539D01*
X111387011Y-112083294D01*
X111335500Y-112094500D01*
X107175643Y-112094500D01*
X107108604Y-112074815D01*
X107062849Y-112022011D01*
X107052905Y-111952853D01*
X107081930Y-111889297D01*
X107132310Y-111854318D01*
X107187328Y-111833797D01*
X107187327Y-111833797D01*
X107187331Y-111833796D01*
X107302546Y-111747546D01*
X107388796Y-111632331D01*
X107439091Y-111497483D01*
X107445500Y-111437873D01*
X107445499Y-109542128D01*
X107439091Y-109482517D01*
X107429233Y-109456087D01*
X107388797Y-109347671D01*
X107388793Y-109347664D01*
X107302547Y-109232455D01*
X107302544Y-109232452D01*
X107187335Y-109146206D01*
X107187328Y-109146202D01*
X107052482Y-109095908D01*
X107052483Y-109095908D01*
X106992883Y-109089501D01*
X106992881Y-109089500D01*
X106992873Y-109089500D01*
X106992864Y-109089500D01*
X105097129Y-109089500D01*
X105097123Y-109089501D01*
X105037516Y-109095908D01*
X104902671Y-109146202D01*
X104902664Y-109146206D01*
X104787455Y-109232452D01*
X104787452Y-109232455D01*
X104701206Y-109347664D01*
X104701203Y-109347670D01*
X104672544Y-109424508D01*
X104630672Y-109480441D01*
X104565208Y-109504858D01*
X104496935Y-109490006D01*
X104465135Y-109465158D01*
X104456784Y-109456087D01*
X104456778Y-109456082D01*
X104456777Y-109456081D01*
X104273634Y-109313535D01*
X104273628Y-109313531D01*
X104069504Y-109203064D01*
X104069495Y-109203061D01*
X103849984Y-109127702D01*
X103659450Y-109095908D01*
X103621049Y-109089500D01*
X103388951Y-109089500D01*
X103350550Y-109095908D01*
X103160015Y-109127702D01*
X102940504Y-109203061D01*
X102940495Y-109203064D01*
X102736371Y-109313531D01*
X102736365Y-109313535D01*
X102553222Y-109456081D01*
X102553219Y-109456084D01*
X102553216Y-109456086D01*
X102553216Y-109456087D01*
X102508319Y-109504858D01*
X102396016Y-109626852D01*
X102269075Y-109821151D01*
X102175842Y-110033699D01*
X102118866Y-110258691D01*
X102118864Y-110258702D01*
X102099700Y-110489993D01*
X102099700Y-110490006D01*
X102118864Y-110721297D01*
X102118866Y-110721308D01*
X102175842Y-110946300D01*
X102269075Y-111158848D01*
X102396016Y-111353147D01*
X102396019Y-111353151D01*
X102396021Y-111353153D01*
X102553216Y-111523913D01*
X102553219Y-111523915D01*
X102553222Y-111523918D01*
X102736365Y-111666464D01*
X102736371Y-111666468D01*
X102736374Y-111666470D01*
X102940497Y-111776936D01*
X103028781Y-111807244D01*
X103162700Y-111853219D01*
X103219715Y-111893604D01*
X103245846Y-111958404D01*
X103232795Y-112027044D01*
X103184706Y-112077732D01*
X103122437Y-112094500D01*
X95039500Y-112094500D01*
X94972461Y-112074815D01*
X94926706Y-112022011D01*
X94915500Y-111970500D01*
X94915500Y-61979999D01*
X95169999Y-61979999D01*
X95170000Y-61980000D01*
X95906653Y-61980000D01*
X95973692Y-61999685D01*
X96019447Y-62052489D01*
X96029391Y-62121647D01*
X96025631Y-62138933D01*
X96020000Y-62158111D01*
X96020000Y-62301888D01*
X96025631Y-62321067D01*
X96025630Y-62390936D01*
X95987855Y-62449714D01*
X95924299Y-62478738D01*
X95906653Y-62480000D01*
X95170000Y-62480000D01*
X95170000Y-63127844D01*
X95176401Y-63187372D01*
X95176403Y-63187379D01*
X95226645Y-63322086D01*
X95226649Y-63322093D01*
X95312809Y-63437187D01*
X95312812Y-63437190D01*
X95427906Y-63523350D01*
X95427913Y-63523354D01*
X95559986Y-63572614D01*
X95615920Y-63614485D01*
X95640337Y-63679949D01*
X95625486Y-63748222D01*
X95604335Y-63776477D01*
X95481886Y-63898926D01*
X95346400Y-64092420D01*
X95346399Y-64092422D01*
X95246570Y-64306507D01*
X95246567Y-64306513D01*
X95189364Y-64519999D01*
X95189364Y-64520000D01*
X95906653Y-64520000D01*
X95973692Y-64539685D01*
X96019447Y-64592489D01*
X96029391Y-64661647D01*
X96025631Y-64678933D01*
X96020000Y-64698111D01*
X96020000Y-64841888D01*
X96025631Y-64861067D01*
X96025630Y-64930936D01*
X95987855Y-64989714D01*
X95924299Y-65018738D01*
X95906653Y-65020000D01*
X95189364Y-65020000D01*
X95246567Y-65233486D01*
X95246570Y-65233492D01*
X95346399Y-65447578D01*
X95481894Y-65641082D01*
X95648917Y-65808105D01*
X95835031Y-65938425D01*
X95878656Y-65993003D01*
X95885848Y-66062501D01*
X95854326Y-66124856D01*
X95835031Y-66141575D01*
X95648922Y-66271890D01*
X95648920Y-66271891D01*
X95481891Y-66438920D01*
X95481886Y-66438926D01*
X95346400Y-66632420D01*
X95346399Y-66632422D01*
X95246570Y-66846507D01*
X95246567Y-66846513D01*
X95189364Y-67059999D01*
X95189364Y-67060000D01*
X95906653Y-67060000D01*
X95973692Y-67079685D01*
X96019447Y-67132489D01*
X96029391Y-67201647D01*
X96025631Y-67218933D01*
X96020000Y-67238111D01*
X96020000Y-67381888D01*
X96025631Y-67401067D01*
X96025630Y-67470936D01*
X95987855Y-67529714D01*
X95924299Y-67558738D01*
X95906653Y-67560000D01*
X95189364Y-67560000D01*
X95246567Y-67773486D01*
X95246570Y-67773492D01*
X95346399Y-67987578D01*
X95481894Y-68181082D01*
X95648917Y-68348105D01*
X95835031Y-68478425D01*
X95878656Y-68533003D01*
X95885848Y-68602501D01*
X95854326Y-68664856D01*
X95835031Y-68681575D01*
X95648922Y-68811890D01*
X95648920Y-68811891D01*
X95481891Y-68978920D01*
X95481886Y-68978926D01*
X95346400Y-69172420D01*
X95346399Y-69172422D01*
X95246570Y-69386507D01*
X95246567Y-69386513D01*
X95189364Y-69599999D01*
X95189364Y-69600000D01*
X95906653Y-69600000D01*
X95973692Y-69619685D01*
X96019447Y-69672489D01*
X96029391Y-69741647D01*
X96025631Y-69758933D01*
X96020000Y-69778111D01*
X96020000Y-69921889D01*
X96020095Y-69922212D01*
X96025631Y-69941067D01*
X96025630Y-70010936D01*
X95987855Y-70069714D01*
X95924299Y-70098738D01*
X95906653Y-70100000D01*
X95189364Y-70100000D01*
X95246567Y-70313486D01*
X95246570Y-70313492D01*
X95346399Y-70527578D01*
X95481894Y-70721082D01*
X95648917Y-70888105D01*
X95835031Y-71018425D01*
X95878656Y-71073003D01*
X95885848Y-71142501D01*
X95854326Y-71204856D01*
X95835031Y-71221575D01*
X95648922Y-71351890D01*
X95648920Y-71351891D01*
X95481891Y-71518920D01*
X95481886Y-71518926D01*
X95346400Y-71712420D01*
X95346399Y-71712422D01*
X95246570Y-71926507D01*
X95246567Y-71926513D01*
X95189364Y-72139999D01*
X95189364Y-72140000D01*
X95906653Y-72140000D01*
X95973692Y-72159685D01*
X96019447Y-72212489D01*
X96029391Y-72281647D01*
X96025631Y-72298933D01*
X96020000Y-72318111D01*
X96020000Y-72461888D01*
X96025631Y-72481067D01*
X96025630Y-72550936D01*
X95987855Y-72609714D01*
X95924299Y-72638738D01*
X95906653Y-72640000D01*
X95189364Y-72640000D01*
X95246567Y-72853486D01*
X95246570Y-72853492D01*
X95346399Y-73067578D01*
X95481894Y-73261082D01*
X95648917Y-73428105D01*
X95835031Y-73558425D01*
X95878656Y-73613003D01*
X95885848Y-73682501D01*
X95854326Y-73744856D01*
X95835031Y-73761575D01*
X95648922Y-73891890D01*
X95648920Y-73891891D01*
X95481891Y-74058920D01*
X95481886Y-74058926D01*
X95346400Y-74252420D01*
X95346399Y-74252422D01*
X95246570Y-74466507D01*
X95246567Y-74466513D01*
X95189364Y-74679999D01*
X95189364Y-74680000D01*
X95906653Y-74680000D01*
X95973692Y-74699685D01*
X96019447Y-74752489D01*
X96029391Y-74821647D01*
X96025631Y-74838933D01*
X96020000Y-74858111D01*
X96020000Y-75001888D01*
X96025631Y-75021067D01*
X96025630Y-75090936D01*
X95987855Y-75149714D01*
X95924299Y-75178738D01*
X95906653Y-75180000D01*
X95189364Y-75180000D01*
X95246567Y-75393486D01*
X95246570Y-75393492D01*
X95346399Y-75607578D01*
X95481894Y-75801082D01*
X95648917Y-75968105D01*
X95835031Y-76098425D01*
X95878656Y-76153003D01*
X95885848Y-76222501D01*
X95854326Y-76284856D01*
X95835031Y-76301575D01*
X95648922Y-76431890D01*
X95648920Y-76431891D01*
X95481891Y-76598920D01*
X95481886Y-76598926D01*
X95346400Y-76792420D01*
X95346399Y-76792422D01*
X95246570Y-77006507D01*
X95246567Y-77006513D01*
X95189364Y-77219999D01*
X95189364Y-77220000D01*
X95906653Y-77220000D01*
X95973692Y-77239685D01*
X96019447Y-77292489D01*
X96029391Y-77361647D01*
X96025631Y-77378933D01*
X96020000Y-77398111D01*
X96020000Y-77541888D01*
X96025631Y-77561067D01*
X96025630Y-77630936D01*
X95987855Y-77689714D01*
X95924299Y-77718738D01*
X95906653Y-77720000D01*
X95189364Y-77720000D01*
X95246567Y-77933486D01*
X95246570Y-77933492D01*
X95346399Y-78147578D01*
X95481894Y-78341082D01*
X95648917Y-78508105D01*
X95835031Y-78638425D01*
X95878656Y-78693003D01*
X95885848Y-78762501D01*
X95854326Y-78824856D01*
X95835031Y-78841575D01*
X95648922Y-78971890D01*
X95648920Y-78971891D01*
X95481891Y-79138920D01*
X95481886Y-79138926D01*
X95346400Y-79332420D01*
X95346399Y-79332422D01*
X95246570Y-79546507D01*
X95246567Y-79546513D01*
X95189364Y-79759999D01*
X95189364Y-79760000D01*
X95906653Y-79760000D01*
X95973692Y-79779685D01*
X96019447Y-79832489D01*
X96029391Y-79901647D01*
X96025631Y-79918933D01*
X96020000Y-79938111D01*
X96020000Y-80081888D01*
X96025631Y-80101067D01*
X96025630Y-80170936D01*
X95987855Y-80229714D01*
X95924299Y-80258738D01*
X95906653Y-80260000D01*
X95189364Y-80260000D01*
X95246567Y-80473486D01*
X95246570Y-80473492D01*
X95346399Y-80687578D01*
X95481894Y-80881082D01*
X95648917Y-81048105D01*
X95835031Y-81178425D01*
X95878656Y-81233003D01*
X95885848Y-81302501D01*
X95854326Y-81364856D01*
X95835031Y-81381575D01*
X95648922Y-81511890D01*
X95648920Y-81511891D01*
X95481891Y-81678920D01*
X95481886Y-81678926D01*
X95346400Y-81872420D01*
X95346399Y-81872422D01*
X95246570Y-82086507D01*
X95246567Y-82086513D01*
X95189364Y-82299999D01*
X95189364Y-82300000D01*
X95906653Y-82300000D01*
X95973692Y-82319685D01*
X96019447Y-82372489D01*
X96029391Y-82441647D01*
X96025631Y-82458933D01*
X96020000Y-82478111D01*
X96020000Y-82621888D01*
X96025631Y-82641067D01*
X96025630Y-82710936D01*
X95987855Y-82769714D01*
X95924299Y-82798738D01*
X95906653Y-82800000D01*
X95189364Y-82800000D01*
X95246567Y-83013486D01*
X95246570Y-83013492D01*
X95346399Y-83227578D01*
X95481894Y-83421082D01*
X95648917Y-83588105D01*
X95835031Y-83718425D01*
X95878656Y-83773003D01*
X95885848Y-83842501D01*
X95854326Y-83904856D01*
X95835031Y-83921575D01*
X95648922Y-84051890D01*
X95648920Y-84051891D01*
X95481891Y-84218920D01*
X95481886Y-84218926D01*
X95346400Y-84412420D01*
X95346399Y-84412422D01*
X95246570Y-84626507D01*
X95246567Y-84626513D01*
X95189364Y-84839999D01*
X95189364Y-84840000D01*
X95906653Y-84840000D01*
X95973692Y-84859685D01*
X96019447Y-84912489D01*
X96029391Y-84981647D01*
X96025631Y-84998933D01*
X96020000Y-85018111D01*
X96020000Y-85161888D01*
X96025631Y-85181067D01*
X96025630Y-85250936D01*
X95987855Y-85309714D01*
X95924299Y-85338738D01*
X95906653Y-85340000D01*
X95189364Y-85340000D01*
X95246567Y-85553486D01*
X95246570Y-85553492D01*
X95346399Y-85767578D01*
X95481894Y-85961082D01*
X95648917Y-86128105D01*
X95835031Y-86258425D01*
X95878656Y-86313003D01*
X95885848Y-86382501D01*
X95854326Y-86444856D01*
X95835031Y-86461575D01*
X95648922Y-86591890D01*
X95648920Y-86591891D01*
X95481891Y-86758920D01*
X95481886Y-86758926D01*
X95346400Y-86952420D01*
X95346399Y-86952422D01*
X95246570Y-87166507D01*
X95246567Y-87166513D01*
X95189364Y-87379999D01*
X95189364Y-87380000D01*
X95906653Y-87380000D01*
X95973692Y-87399685D01*
X96019447Y-87452489D01*
X96029391Y-87521647D01*
X96025631Y-87538933D01*
X96020000Y-87558111D01*
X96020000Y-87701888D01*
X96025631Y-87721067D01*
X96025630Y-87790936D01*
X95987855Y-87849714D01*
X95924299Y-87878738D01*
X95906653Y-87880000D01*
X95189364Y-87880000D01*
X95246567Y-88093486D01*
X95246570Y-88093492D01*
X95346399Y-88307578D01*
X95481894Y-88501082D01*
X95648917Y-88668105D01*
X95835031Y-88798425D01*
X95878656Y-88853003D01*
X95885848Y-88922501D01*
X95854326Y-88984856D01*
X95835031Y-89001575D01*
X95648922Y-89131890D01*
X95648920Y-89131891D01*
X95481891Y-89298920D01*
X95481886Y-89298926D01*
X95346400Y-89492420D01*
X95346399Y-89492422D01*
X95246570Y-89706507D01*
X95246567Y-89706513D01*
X95189364Y-89919999D01*
X95189364Y-89920000D01*
X95906653Y-89920000D01*
X95973692Y-89939685D01*
X96019447Y-89992489D01*
X96029391Y-90061647D01*
X96025631Y-90078933D01*
X96020000Y-90098111D01*
X96020000Y-90241888D01*
X96025631Y-90261067D01*
X96025630Y-90330936D01*
X95987855Y-90389714D01*
X95924299Y-90418738D01*
X95906653Y-90420000D01*
X95189364Y-90420000D01*
X95246567Y-90633486D01*
X95246570Y-90633492D01*
X95346399Y-90847578D01*
X95481894Y-91041082D01*
X95648917Y-91208105D01*
X95835031Y-91338425D01*
X95878656Y-91393003D01*
X95885848Y-91462501D01*
X95854326Y-91524856D01*
X95835031Y-91541575D01*
X95648922Y-91671890D01*
X95648920Y-91671891D01*
X95481891Y-91838920D01*
X95481886Y-91838926D01*
X95346400Y-92032420D01*
X95346399Y-92032422D01*
X95246570Y-92246507D01*
X95246567Y-92246513D01*
X95189364Y-92459999D01*
X95189364Y-92460000D01*
X95906653Y-92460000D01*
X95973692Y-92479685D01*
X96019447Y-92532489D01*
X96029391Y-92601647D01*
X96025631Y-92618933D01*
X96020000Y-92638111D01*
X96020000Y-92781888D01*
X96025631Y-92801067D01*
X96025630Y-92870936D01*
X95987855Y-92929714D01*
X95924299Y-92958738D01*
X95906653Y-92960000D01*
X95189364Y-92960000D01*
X95246567Y-93173486D01*
X95246570Y-93173492D01*
X95346399Y-93387578D01*
X95481894Y-93581082D01*
X95648917Y-93748105D01*
X95835031Y-93878425D01*
X95878656Y-93933003D01*
X95885848Y-94002501D01*
X95854326Y-94064856D01*
X95835031Y-94081575D01*
X95648922Y-94211890D01*
X95648920Y-94211891D01*
X95481891Y-94378920D01*
X95481886Y-94378926D01*
X95346400Y-94572420D01*
X95346399Y-94572422D01*
X95246570Y-94786507D01*
X95246567Y-94786513D01*
X95189364Y-94999999D01*
X95189364Y-95000000D01*
X95906653Y-95000000D01*
X95973692Y-95019685D01*
X96019447Y-95072489D01*
X96029391Y-95141647D01*
X96025631Y-95158933D01*
X96020000Y-95178111D01*
X96020000Y-95321888D01*
X96025631Y-95341067D01*
X96025630Y-95410936D01*
X95987855Y-95469714D01*
X95924299Y-95498738D01*
X95906653Y-95500000D01*
X95189364Y-95500000D01*
X95246567Y-95713486D01*
X95246570Y-95713492D01*
X95346399Y-95927578D01*
X95481894Y-96121082D01*
X95648917Y-96288105D01*
X95835031Y-96418425D01*
X95878656Y-96473003D01*
X95885848Y-96542501D01*
X95854326Y-96604856D01*
X95835031Y-96621575D01*
X95648922Y-96751890D01*
X95648920Y-96751891D01*
X95481891Y-96918920D01*
X95481886Y-96918926D01*
X95346400Y-97112420D01*
X95346399Y-97112422D01*
X95246570Y-97326507D01*
X95246567Y-97326513D01*
X95189364Y-97539999D01*
X95189364Y-97540000D01*
X95906653Y-97540000D01*
X95973692Y-97559685D01*
X96019447Y-97612489D01*
X96029391Y-97681647D01*
X96025631Y-97698933D01*
X96020000Y-97718111D01*
X96020000Y-97861888D01*
X96025631Y-97881067D01*
X96025630Y-97950936D01*
X95987855Y-98009714D01*
X95924299Y-98038738D01*
X95906653Y-98040000D01*
X95189364Y-98040000D01*
X95246567Y-98253486D01*
X95246570Y-98253492D01*
X95346399Y-98467578D01*
X95481894Y-98661082D01*
X95648917Y-98828105D01*
X95835031Y-98958425D01*
X95878656Y-99013003D01*
X95885848Y-99082501D01*
X95854326Y-99144856D01*
X95835031Y-99161575D01*
X95648922Y-99291890D01*
X95648920Y-99291891D01*
X95481891Y-99458920D01*
X95481886Y-99458926D01*
X95346400Y-99652420D01*
X95346399Y-99652422D01*
X95246570Y-99866507D01*
X95246567Y-99866513D01*
X95189364Y-100079999D01*
X95189364Y-100080000D01*
X95906653Y-100080000D01*
X95973692Y-100099685D01*
X96019447Y-100152489D01*
X96029391Y-100221647D01*
X96025631Y-100238933D01*
X96020000Y-100258111D01*
X96020000Y-100401888D01*
X96025631Y-100421067D01*
X96025630Y-100490936D01*
X95987855Y-100549714D01*
X95924299Y-100578738D01*
X95906653Y-100580000D01*
X95189364Y-100580000D01*
X95246567Y-100793486D01*
X95246570Y-100793492D01*
X95346399Y-101007578D01*
X95481894Y-101201082D01*
X95648917Y-101368105D01*
X95835031Y-101498425D01*
X95878656Y-101553003D01*
X95885848Y-101622501D01*
X95854326Y-101684856D01*
X95835031Y-101701575D01*
X95648922Y-101831890D01*
X95648920Y-101831891D01*
X95481891Y-101998920D01*
X95481886Y-101998926D01*
X95346400Y-102192420D01*
X95346399Y-102192422D01*
X95246570Y-102406507D01*
X95246567Y-102406513D01*
X95189364Y-102619999D01*
X95189364Y-102620000D01*
X95906653Y-102620000D01*
X95973692Y-102639685D01*
X96019447Y-102692489D01*
X96029391Y-102761647D01*
X96025631Y-102778933D01*
X96020000Y-102798111D01*
X96020000Y-102941888D01*
X96025631Y-102961067D01*
X96025630Y-103030936D01*
X95987855Y-103089714D01*
X95924299Y-103118738D01*
X95906653Y-103120000D01*
X95189364Y-103120000D01*
X95246567Y-103333486D01*
X95246570Y-103333492D01*
X95346399Y-103547578D01*
X95481894Y-103741082D01*
X95648917Y-103908105D01*
X95835031Y-104038425D01*
X95878656Y-104093003D01*
X95885848Y-104162501D01*
X95854326Y-104224856D01*
X95835031Y-104241575D01*
X95648922Y-104371890D01*
X95648920Y-104371891D01*
X95481891Y-104538920D01*
X95481886Y-104538926D01*
X95346400Y-104732420D01*
X95346399Y-104732422D01*
X95246570Y-104946507D01*
X95246567Y-104946513D01*
X95189364Y-105159999D01*
X95189364Y-105160000D01*
X95906653Y-105160000D01*
X95973692Y-105179685D01*
X96019447Y-105232489D01*
X96029391Y-105301647D01*
X96025631Y-105318933D01*
X96020000Y-105338111D01*
X96020000Y-105481888D01*
X96025631Y-105501067D01*
X96025630Y-105570936D01*
X95987855Y-105629714D01*
X95924299Y-105658738D01*
X95906653Y-105660000D01*
X95189364Y-105660000D01*
X95246567Y-105873486D01*
X95246570Y-105873492D01*
X95346399Y-106087578D01*
X95481894Y-106281082D01*
X95648917Y-106448105D01*
X95835031Y-106578425D01*
X95878656Y-106633003D01*
X95885848Y-106702501D01*
X95854326Y-106764856D01*
X95835031Y-106781575D01*
X95648922Y-106911890D01*
X95648920Y-106911891D01*
X95481891Y-107078920D01*
X95481886Y-107078926D01*
X95346400Y-107272420D01*
X95346399Y-107272422D01*
X95246570Y-107486507D01*
X95246567Y-107486513D01*
X95189364Y-107699999D01*
X95189364Y-107700000D01*
X95906653Y-107700000D01*
X95973692Y-107719685D01*
X96019447Y-107772489D01*
X96029391Y-107841647D01*
X96025631Y-107858933D01*
X96020000Y-107878111D01*
X96020000Y-108021888D01*
X96025631Y-108041067D01*
X96025630Y-108110936D01*
X95987855Y-108169714D01*
X95924299Y-108198738D01*
X95906653Y-108200000D01*
X95189364Y-108200000D01*
X95246567Y-108413486D01*
X95246570Y-108413492D01*
X95346399Y-108627578D01*
X95481894Y-108821082D01*
X95648917Y-108988105D01*
X95835031Y-109118425D01*
X95878656Y-109173003D01*
X95885848Y-109242501D01*
X95854326Y-109304856D01*
X95835031Y-109321575D01*
X95648922Y-109451890D01*
X95648920Y-109451891D01*
X95481891Y-109618920D01*
X95481886Y-109618926D01*
X95346400Y-109812420D01*
X95346399Y-109812422D01*
X95246570Y-110026507D01*
X95246567Y-110026513D01*
X95189364Y-110239999D01*
X95189364Y-110240000D01*
X95906653Y-110240000D01*
X95973692Y-110259685D01*
X96019447Y-110312489D01*
X96029391Y-110381647D01*
X96025631Y-110398933D01*
X96020000Y-110418111D01*
X96020000Y-110561888D01*
X96025631Y-110581067D01*
X96025630Y-110650936D01*
X95987855Y-110709714D01*
X95924299Y-110738738D01*
X95906653Y-110740000D01*
X95189364Y-110740000D01*
X95246567Y-110953486D01*
X95246570Y-110953492D01*
X95346399Y-111167578D01*
X95481894Y-111361082D01*
X95648917Y-111528105D01*
X95842421Y-111663600D01*
X96056507Y-111763429D01*
X96056516Y-111763433D01*
X96270000Y-111820634D01*
X96270000Y-111102301D01*
X96289685Y-111035262D01*
X96342489Y-110989507D01*
X96411647Y-110979563D01*
X96484237Y-110990000D01*
X96484238Y-110990000D01*
X96555762Y-110990000D01*
X96555763Y-110990000D01*
X96628353Y-110979563D01*
X96697512Y-110989507D01*
X96750315Y-111035262D01*
X96770000Y-111102301D01*
X96770000Y-111820633D01*
X96983483Y-111763433D01*
X96983492Y-111763429D01*
X97197578Y-111663600D01*
X97391082Y-111528105D01*
X97558105Y-111361082D01*
X97688119Y-111175405D01*
X97742696Y-111131781D01*
X97812195Y-111124588D01*
X97874549Y-111156110D01*
X97891269Y-111175405D01*
X98021505Y-111361401D01*
X98188599Y-111528495D01*
X98285384Y-111596264D01*
X98382165Y-111664032D01*
X98382167Y-111664033D01*
X98382170Y-111664035D01*
X98596337Y-111763903D01*
X98824592Y-111825063D01*
X99012918Y-111841539D01*
X99059999Y-111845659D01*
X99060000Y-111845659D01*
X99060001Y-111845659D01*
X99099234Y-111842226D01*
X99295408Y-111825063D01*
X99523663Y-111763903D01*
X99737830Y-111664035D01*
X99931401Y-111528495D01*
X100098495Y-111361401D01*
X100234035Y-111167830D01*
X100333903Y-110953663D01*
X100395063Y-110725408D01*
X100415659Y-110490000D01*
X100395063Y-110254592D01*
X100333903Y-110026337D01*
X100234035Y-109812171D01*
X100228731Y-109804595D01*
X100098494Y-109618597D01*
X99931402Y-109451506D01*
X99931396Y-109451501D01*
X99745842Y-109321575D01*
X99702217Y-109266998D01*
X99695023Y-109197500D01*
X99726546Y-109135145D01*
X99745842Y-109118425D01*
X99787151Y-109089500D01*
X99931401Y-108988495D01*
X100098495Y-108821401D01*
X100234035Y-108627830D01*
X100333903Y-108413663D01*
X100395063Y-108185408D01*
X100415659Y-107950000D01*
X100395063Y-107714592D01*
X100333903Y-107486337D01*
X100234267Y-107272668D01*
X102099700Y-107272668D01*
X102118864Y-107503959D01*
X102118866Y-107503970D01*
X102175842Y-107728962D01*
X102269075Y-107941510D01*
X102396016Y-108135809D01*
X102396019Y-108135813D01*
X102396021Y-108135815D01*
X102553216Y-108306575D01*
X102553219Y-108306577D01*
X102553222Y-108306580D01*
X102736365Y-108449126D01*
X102736371Y-108449130D01*
X102736374Y-108449132D01*
X102940497Y-108559598D01*
X103034243Y-108591781D01*
X103160015Y-108634959D01*
X103160017Y-108634959D01*
X103160019Y-108634960D01*
X103388951Y-108673162D01*
X103388952Y-108673162D01*
X103621048Y-108673162D01*
X103621049Y-108673162D01*
X103849981Y-108634960D01*
X104069503Y-108559598D01*
X104273626Y-108449132D01*
X104285921Y-108439563D01*
X104368933Y-108374952D01*
X104456784Y-108306575D01*
X104465130Y-108297508D01*
X104525010Y-108261516D01*
X104594849Y-108263611D01*
X104652468Y-108303131D01*
X104672544Y-108338153D01*
X104701203Y-108414992D01*
X104701206Y-108414997D01*
X104787452Y-108530206D01*
X104787455Y-108530209D01*
X104902664Y-108616455D01*
X104902671Y-108616459D01*
X105037517Y-108666753D01*
X105037516Y-108666753D01*
X105044444Y-108667497D01*
X105097127Y-108673162D01*
X106992872Y-108673161D01*
X107052483Y-108666753D01*
X107187331Y-108616458D01*
X107229352Y-108585001D01*
X108549532Y-108585001D01*
X108569364Y-108811686D01*
X108569366Y-108811697D01*
X108628258Y-109031488D01*
X108628261Y-109031497D01*
X108724431Y-109237732D01*
X108724432Y-109237734D01*
X108854954Y-109424141D01*
X109015858Y-109585045D01*
X109015861Y-109585047D01*
X109202266Y-109715568D01*
X109408504Y-109811739D01*
X109408509Y-109811740D01*
X109408511Y-109811741D01*
X109411053Y-109812422D01*
X109628308Y-109870635D01*
X109790230Y-109884801D01*
X109854998Y-109890468D01*
X109855000Y-109890468D01*
X109855002Y-109890468D01*
X109911672Y-109885509D01*
X110081692Y-109870635D01*
X110301496Y-109811739D01*
X110507734Y-109715568D01*
X110694139Y-109585047D01*
X110855047Y-109424139D01*
X110985568Y-109237734D01*
X111081739Y-109031496D01*
X111140635Y-108811692D01*
X111160468Y-108585000D01*
X111140635Y-108358308D01*
X111081739Y-108138504D01*
X110985568Y-107932266D01*
X110855047Y-107745861D01*
X110855045Y-107745858D01*
X110694141Y-107584954D01*
X110507734Y-107454432D01*
X110507728Y-107454429D01*
X110449725Y-107427382D01*
X110397285Y-107381210D01*
X110378133Y-107314017D01*
X110398348Y-107247135D01*
X110449725Y-107202618D01*
X110507734Y-107175568D01*
X110694139Y-107045047D01*
X110855047Y-106884139D01*
X110985568Y-106697734D01*
X111081739Y-106491496D01*
X111140635Y-106271692D01*
X111160468Y-106045000D01*
X111157853Y-106015116D01*
X111150308Y-105928868D01*
X111140635Y-105818308D01*
X111081739Y-105598504D01*
X110985568Y-105392266D01*
X110855047Y-105205861D01*
X110855045Y-105205858D01*
X110694141Y-105044954D01*
X110507734Y-104914432D01*
X110507728Y-104914429D01*
X110449725Y-104887382D01*
X110397285Y-104841210D01*
X110378133Y-104774017D01*
X110398348Y-104707135D01*
X110449725Y-104662618D01*
X110507734Y-104635568D01*
X110694139Y-104505047D01*
X110855047Y-104344139D01*
X110985568Y-104157734D01*
X111081739Y-103951496D01*
X111140635Y-103731692D01*
X111160468Y-103505000D01*
X111140635Y-103278308D01*
X111087457Y-103079844D01*
X111081741Y-103058511D01*
X111081738Y-103058502D01*
X111068884Y-103030936D01*
X110985568Y-102852266D01*
X110887025Y-102711531D01*
X110855045Y-102665858D01*
X110694141Y-102504954D01*
X110507734Y-102374432D01*
X110507728Y-102374429D01*
X110449725Y-102347382D01*
X110397285Y-102301210D01*
X110378133Y-102234017D01*
X110398348Y-102167135D01*
X110449725Y-102122618D01*
X110507734Y-102095568D01*
X110694139Y-101965047D01*
X110855047Y-101804139D01*
X110985568Y-101617734D01*
X111081739Y-101411496D01*
X111140635Y-101191692D01*
X111160468Y-100965000D01*
X111140635Y-100738308D01*
X111081739Y-100518504D01*
X110985568Y-100312266D01*
X110855047Y-100125861D01*
X110855045Y-100125858D01*
X110694141Y-99964954D01*
X110507734Y-99834432D01*
X110507728Y-99834429D01*
X110449725Y-99807382D01*
X110397285Y-99761210D01*
X110378133Y-99694017D01*
X110398348Y-99627135D01*
X110449725Y-99582618D01*
X110507734Y-99555568D01*
X110694139Y-99425047D01*
X110855047Y-99264139D01*
X110985568Y-99077734D01*
X111081739Y-98871496D01*
X111140635Y-98651692D01*
X111160468Y-98425000D01*
X111140635Y-98198308D01*
X111081739Y-97978504D01*
X110985568Y-97772266D01*
X110879415Y-97620663D01*
X110855045Y-97585858D01*
X110694141Y-97424954D01*
X110507734Y-97294432D01*
X110507728Y-97294429D01*
X110449725Y-97267382D01*
X110397285Y-97221210D01*
X110378133Y-97154017D01*
X110398348Y-97087135D01*
X110449725Y-97042618D01*
X110507734Y-97015568D01*
X110694139Y-96885047D01*
X110855047Y-96724139D01*
X110985568Y-96537734D01*
X111081739Y-96331496D01*
X111140635Y-96111692D01*
X111160468Y-95885000D01*
X111140635Y-95658308D01*
X111081739Y-95438504D01*
X110985568Y-95232266D01*
X110855047Y-95045861D01*
X110855045Y-95045858D01*
X110694141Y-94884954D01*
X110507734Y-94754432D01*
X110507728Y-94754429D01*
X110449725Y-94727382D01*
X110397285Y-94681210D01*
X110378133Y-94614017D01*
X110398348Y-94547135D01*
X110449725Y-94502618D01*
X110507734Y-94475568D01*
X110694139Y-94345047D01*
X110855047Y-94184139D01*
X110985568Y-93997734D01*
X111081739Y-93791496D01*
X111140635Y-93571692D01*
X111160468Y-93345000D01*
X111159841Y-93337838D01*
X111152617Y-93255262D01*
X111140635Y-93118308D01*
X111081739Y-92898504D01*
X110985568Y-92692266D01*
X110855047Y-92505861D01*
X110855045Y-92505858D01*
X110694141Y-92344954D01*
X110507734Y-92214432D01*
X110507728Y-92214429D01*
X110480038Y-92201517D01*
X110449724Y-92187381D01*
X110397285Y-92141210D01*
X110378133Y-92074017D01*
X110398348Y-92007135D01*
X110449725Y-91962618D01*
X110507734Y-91935568D01*
X110694139Y-91805047D01*
X110855047Y-91644139D01*
X110985568Y-91457734D01*
X111081739Y-91251496D01*
X111140635Y-91031692D01*
X111160468Y-90805000D01*
X111140635Y-90578308D01*
X111087457Y-90379844D01*
X111081741Y-90358511D01*
X111081738Y-90358502D01*
X111027360Y-90241889D01*
X110985568Y-90152266D01*
X110855047Y-89965861D01*
X110855045Y-89965858D01*
X110694143Y-89804956D01*
X110668912Y-89787289D01*
X110625287Y-89732712D01*
X110618095Y-89663213D01*
X110649617Y-89600859D01*
X110709847Y-89565445D01*
X110726781Y-89562424D01*
X110762380Y-89558596D01*
X110897086Y-89508354D01*
X110897093Y-89508350D01*
X111012187Y-89422190D01*
X111012190Y-89422187D01*
X111098350Y-89307093D01*
X111098354Y-89307086D01*
X111148596Y-89172379D01*
X111148598Y-89172372D01*
X111154999Y-89112844D01*
X111155000Y-89112827D01*
X111155000Y-88515000D01*
X110365576Y-88515000D01*
X110298537Y-88495315D01*
X110252782Y-88442511D01*
X110242838Y-88373353D01*
X110243103Y-88371603D01*
X110259986Y-88265003D01*
X110259986Y-88264996D01*
X110243103Y-88158397D01*
X110252058Y-88089104D01*
X110297054Y-88035652D01*
X110363806Y-88015013D01*
X110365576Y-88015000D01*
X111155000Y-88015000D01*
X111155000Y-87417172D01*
X111154999Y-87417155D01*
X111148598Y-87357627D01*
X111148596Y-87357620D01*
X111098354Y-87222913D01*
X111098350Y-87222906D01*
X111012190Y-87107812D01*
X111012187Y-87107809D01*
X110897093Y-87021649D01*
X110897086Y-87021645D01*
X110762379Y-86971403D01*
X110762372Y-86971401D01*
X110702844Y-86965000D01*
X110105000Y-86965000D01*
X110105000Y-87754424D01*
X110085315Y-87821463D01*
X110032511Y-87867218D01*
X109963353Y-87877162D01*
X109961602Y-87876897D01*
X109886486Y-87865000D01*
X109886481Y-87865000D01*
X109823519Y-87865000D01*
X109823514Y-87865000D01*
X109748398Y-87876897D01*
X109679104Y-87867942D01*
X109625652Y-87822946D01*
X109605013Y-87756194D01*
X109605000Y-87754424D01*
X109605000Y-86965000D01*
X109007155Y-86965000D01*
X108947627Y-86971401D01*
X108947620Y-86971403D01*
X108812913Y-87021645D01*
X108812906Y-87021649D01*
X108697812Y-87107809D01*
X108697809Y-87107812D01*
X108611649Y-87222906D01*
X108611645Y-87222913D01*
X108561403Y-87357620D01*
X108561401Y-87357627D01*
X108555000Y-87417155D01*
X108555000Y-87417172D01*
X108554999Y-88015000D01*
X109344424Y-88015000D01*
X109411463Y-88034685D01*
X109457218Y-88087489D01*
X109467162Y-88156647D01*
X109466897Y-88158397D01*
X109450014Y-88264996D01*
X109450014Y-88265003D01*
X109466897Y-88371603D01*
X109457942Y-88440896D01*
X109412946Y-88494348D01*
X109346194Y-88514987D01*
X109344424Y-88515000D01*
X108555000Y-88515000D01*
X108555000Y-89112844D01*
X108561401Y-89172372D01*
X108561403Y-89172379D01*
X108611645Y-89307086D01*
X108611649Y-89307093D01*
X108697809Y-89422187D01*
X108697812Y-89422190D01*
X108812906Y-89508350D01*
X108812913Y-89508354D01*
X108947620Y-89558596D01*
X108947627Y-89558598D01*
X108983218Y-89562425D01*
X109047769Y-89589163D01*
X109087618Y-89646555D01*
X109090111Y-89716380D01*
X109054459Y-89776469D01*
X109041088Y-89787287D01*
X109015861Y-89804951D01*
X108854954Y-89965858D01*
X108724432Y-90152265D01*
X108724431Y-90152267D01*
X108628261Y-90358502D01*
X108628258Y-90358511D01*
X108569366Y-90578302D01*
X108569364Y-90578313D01*
X108549532Y-90804998D01*
X108549532Y-90805001D01*
X108569364Y-91031686D01*
X108569366Y-91031697D01*
X108628258Y-91251488D01*
X108628261Y-91251497D01*
X108724431Y-91457732D01*
X108724432Y-91457734D01*
X108854954Y-91644141D01*
X109015858Y-91805045D01*
X109015861Y-91805047D01*
X109202266Y-91935568D01*
X109260275Y-91962618D01*
X109312714Y-92008791D01*
X109331866Y-92075984D01*
X109311650Y-92142865D01*
X109260275Y-92187381D01*
X109243272Y-92195310D01*
X109202267Y-92214431D01*
X109202265Y-92214432D01*
X109015858Y-92344954D01*
X108854954Y-92505858D01*
X108724432Y-92692265D01*
X108724431Y-92692267D01*
X108628261Y-92898502D01*
X108628258Y-92898511D01*
X108569366Y-93118302D01*
X108569364Y-93118313D01*
X108549532Y-93344998D01*
X108549532Y-93345001D01*
X108569364Y-93571686D01*
X108569366Y-93571697D01*
X108628258Y-93791488D01*
X108628261Y-93791497D01*
X108724431Y-93997732D01*
X108724432Y-93997734D01*
X108854954Y-94184141D01*
X109015858Y-94345045D01*
X109015861Y-94345047D01*
X109202266Y-94475568D01*
X109260275Y-94502618D01*
X109312714Y-94548791D01*
X109331866Y-94615984D01*
X109311650Y-94682865D01*
X109260275Y-94727382D01*
X109202267Y-94754431D01*
X109202265Y-94754432D01*
X109015858Y-94884954D01*
X108854954Y-95045858D01*
X108724432Y-95232265D01*
X108724431Y-95232267D01*
X108628261Y-95438502D01*
X108628258Y-95438511D01*
X108569366Y-95658302D01*
X108569364Y-95658313D01*
X108549532Y-95884998D01*
X108549532Y-95885001D01*
X108569364Y-96111686D01*
X108569366Y-96111697D01*
X108628258Y-96331488D01*
X108628261Y-96331497D01*
X108724431Y-96537732D01*
X108724432Y-96537734D01*
X108854954Y-96724141D01*
X109015858Y-96885045D01*
X109015861Y-96885047D01*
X109202266Y-97015568D01*
X109260275Y-97042618D01*
X109312714Y-97088791D01*
X109331866Y-97155984D01*
X109311650Y-97222865D01*
X109260275Y-97267382D01*
X109202267Y-97294431D01*
X109202265Y-97294432D01*
X109015858Y-97424954D01*
X108854954Y-97585858D01*
X108724432Y-97772265D01*
X108724431Y-97772267D01*
X108628261Y-97978502D01*
X108628258Y-97978511D01*
X108569366Y-98198302D01*
X108569364Y-98198313D01*
X108549532Y-98424998D01*
X108549532Y-98425001D01*
X108569364Y-98651686D01*
X108569366Y-98651697D01*
X108628258Y-98871488D01*
X108628261Y-98871497D01*
X108724431Y-99077732D01*
X108724432Y-99077734D01*
X108854954Y-99264141D01*
X109015858Y-99425045D01*
X109015861Y-99425047D01*
X109202266Y-99555568D01*
X109260275Y-99582618D01*
X109312714Y-99628791D01*
X109331866Y-99695984D01*
X109311650Y-99762865D01*
X109260275Y-99807382D01*
X109202267Y-99834431D01*
X109202265Y-99834432D01*
X109015858Y-99964954D01*
X108854954Y-100125858D01*
X108724432Y-100312265D01*
X108724431Y-100312267D01*
X108628261Y-100518502D01*
X108628258Y-100518511D01*
X108569366Y-100738302D01*
X108569364Y-100738313D01*
X108549532Y-100964998D01*
X108549532Y-100965001D01*
X108569364Y-101191686D01*
X108569366Y-101191697D01*
X108628258Y-101411488D01*
X108628261Y-101411497D01*
X108724431Y-101617732D01*
X108724432Y-101617734D01*
X108854954Y-101804141D01*
X109015858Y-101965045D01*
X109015861Y-101965047D01*
X109202266Y-102095568D01*
X109260275Y-102122618D01*
X109312714Y-102168791D01*
X109331866Y-102235984D01*
X109311650Y-102302865D01*
X109260275Y-102347382D01*
X109202267Y-102374431D01*
X109202265Y-102374432D01*
X109015858Y-102504954D01*
X108854954Y-102665858D01*
X108724432Y-102852265D01*
X108724431Y-102852267D01*
X108628261Y-103058502D01*
X108628258Y-103058511D01*
X108569366Y-103278302D01*
X108569364Y-103278313D01*
X108549532Y-103504998D01*
X108549532Y-103505001D01*
X108569364Y-103731686D01*
X108569366Y-103731697D01*
X108628258Y-103951488D01*
X108628261Y-103951497D01*
X108724431Y-104157732D01*
X108724432Y-104157734D01*
X108854954Y-104344141D01*
X109015858Y-104505045D01*
X109015861Y-104505047D01*
X109202266Y-104635568D01*
X109260275Y-104662618D01*
X109312714Y-104708791D01*
X109331866Y-104775984D01*
X109311650Y-104842865D01*
X109260275Y-104887382D01*
X109202267Y-104914431D01*
X109202265Y-104914432D01*
X109015858Y-105044954D01*
X108854954Y-105205858D01*
X108724432Y-105392265D01*
X108724431Y-105392267D01*
X108628261Y-105598502D01*
X108628258Y-105598511D01*
X108569366Y-105818302D01*
X108569364Y-105818313D01*
X108549532Y-106044998D01*
X108549532Y-106045001D01*
X108569364Y-106271686D01*
X108569366Y-106271697D01*
X108628258Y-106491488D01*
X108628261Y-106491497D01*
X108724431Y-106697732D01*
X108724432Y-106697734D01*
X108854954Y-106884141D01*
X109015858Y-107045045D01*
X109015861Y-107045047D01*
X109202266Y-107175568D01*
X109260275Y-107202618D01*
X109312714Y-107248791D01*
X109331866Y-107315984D01*
X109311650Y-107382865D01*
X109260275Y-107427382D01*
X109202267Y-107454431D01*
X109202265Y-107454432D01*
X109015858Y-107584954D01*
X108854954Y-107745858D01*
X108724432Y-107932265D01*
X108724431Y-107932267D01*
X108628261Y-108138502D01*
X108628258Y-108138511D01*
X108569366Y-108358302D01*
X108569364Y-108358313D01*
X108549532Y-108584998D01*
X108549532Y-108585001D01*
X107229352Y-108585001D01*
X107302546Y-108530208D01*
X107388796Y-108414993D01*
X107439091Y-108280145D01*
X107445500Y-108220535D01*
X107445499Y-106324790D01*
X107439791Y-106271692D01*
X107439091Y-106265178D01*
X107388797Y-106130333D01*
X107388793Y-106130326D01*
X107302547Y-106015117D01*
X107302544Y-106015114D01*
X107187335Y-105928868D01*
X107187328Y-105928864D01*
X107052482Y-105878570D01*
X107052483Y-105878570D01*
X106992883Y-105872163D01*
X106992881Y-105872162D01*
X106992873Y-105872162D01*
X106992864Y-105872162D01*
X105097129Y-105872162D01*
X105097123Y-105872163D01*
X105037516Y-105878570D01*
X104902671Y-105928864D01*
X104902664Y-105928868D01*
X104787455Y-106015114D01*
X104787452Y-106015117D01*
X104701206Y-106130326D01*
X104701203Y-106130332D01*
X104672544Y-106207170D01*
X104630672Y-106263103D01*
X104565208Y-106287520D01*
X104496935Y-106272668D01*
X104465135Y-106247820D01*
X104456784Y-106238749D01*
X104456778Y-106238744D01*
X104456777Y-106238743D01*
X104273634Y-106096197D01*
X104273628Y-106096193D01*
X104069504Y-105985726D01*
X104069495Y-105985723D01*
X103849984Y-105910364D01*
X103659450Y-105878570D01*
X103621049Y-105872162D01*
X103388951Y-105872162D01*
X103350550Y-105878570D01*
X103160015Y-105910364D01*
X102940504Y-105985723D01*
X102940495Y-105985726D01*
X102736371Y-106096193D01*
X102736365Y-106096197D01*
X102553222Y-106238743D01*
X102553219Y-106238746D01*
X102553216Y-106238748D01*
X102553216Y-106238749D01*
X102514246Y-106281082D01*
X102396016Y-106409514D01*
X102269075Y-106603813D01*
X102175842Y-106816361D01*
X102118866Y-107041353D01*
X102118864Y-107041364D01*
X102099700Y-107272655D01*
X102099700Y-107272668D01*
X100234267Y-107272668D01*
X100234035Y-107272171D01*
X100228731Y-107264595D01*
X100098494Y-107078597D01*
X99931402Y-106911506D01*
X99931396Y-106911501D01*
X99745842Y-106781575D01*
X99702217Y-106726998D01*
X99695023Y-106657500D01*
X99726546Y-106595145D01*
X99745842Y-106578425D01*
X99768026Y-106562891D01*
X99931401Y-106448495D01*
X100098495Y-106281401D01*
X100234035Y-106087830D01*
X100333903Y-105873663D01*
X100395063Y-105645408D01*
X100415659Y-105410000D01*
X100395063Y-105174592D01*
X100333903Y-104946337D01*
X100234035Y-104732171D01*
X100228731Y-104724595D01*
X100098494Y-104538597D01*
X99931402Y-104371506D01*
X99931396Y-104371501D01*
X99745842Y-104241575D01*
X99702217Y-104186998D01*
X99695023Y-104117500D01*
X99726450Y-104055335D01*
X102099700Y-104055335D01*
X102118864Y-104286626D01*
X102118866Y-104286637D01*
X102175842Y-104511629D01*
X102269075Y-104724177D01*
X102396016Y-104918476D01*
X102396019Y-104918480D01*
X102396021Y-104918482D01*
X102553216Y-105089242D01*
X102553219Y-105089244D01*
X102553222Y-105089247D01*
X102736365Y-105231793D01*
X102736371Y-105231797D01*
X102736374Y-105231799D01*
X102940497Y-105342265D01*
X103054487Y-105381397D01*
X103160015Y-105417626D01*
X103160017Y-105417626D01*
X103160019Y-105417627D01*
X103388951Y-105455829D01*
X103388952Y-105455829D01*
X103621048Y-105455829D01*
X103621049Y-105455829D01*
X103849981Y-105417627D01*
X104069503Y-105342265D01*
X104273626Y-105231799D01*
X104456784Y-105089242D01*
X104465130Y-105080175D01*
X104525010Y-105044183D01*
X104594849Y-105046278D01*
X104652468Y-105085798D01*
X104672544Y-105120820D01*
X104701203Y-105197659D01*
X104701206Y-105197664D01*
X104787452Y-105312873D01*
X104787455Y-105312876D01*
X104902664Y-105399122D01*
X104902671Y-105399126D01*
X105037517Y-105449420D01*
X105037516Y-105449420D01*
X105044444Y-105450164D01*
X105097127Y-105455829D01*
X106992872Y-105455828D01*
X107052483Y-105449420D01*
X107187331Y-105399125D01*
X107302546Y-105312875D01*
X107388796Y-105197660D01*
X107439091Y-105062812D01*
X107445500Y-105003202D01*
X107445499Y-103107457D01*
X107439091Y-103047846D01*
X107429233Y-103021416D01*
X107388797Y-102913000D01*
X107388793Y-102912993D01*
X107302547Y-102797784D01*
X107302544Y-102797781D01*
X107187335Y-102711535D01*
X107187328Y-102711531D01*
X107052482Y-102661237D01*
X107052483Y-102661237D01*
X106992883Y-102654830D01*
X106992881Y-102654829D01*
X106992873Y-102654829D01*
X106992864Y-102654829D01*
X105097129Y-102654829D01*
X105097123Y-102654830D01*
X105037516Y-102661237D01*
X104902671Y-102711531D01*
X104902664Y-102711535D01*
X104787455Y-102797781D01*
X104787452Y-102797784D01*
X104701206Y-102912993D01*
X104701203Y-102912999D01*
X104672544Y-102989837D01*
X104630672Y-103045770D01*
X104565208Y-103070187D01*
X104496935Y-103055335D01*
X104465135Y-103030487D01*
X104456784Y-103021416D01*
X104456778Y-103021411D01*
X104456777Y-103021410D01*
X104273634Y-102878864D01*
X104273628Y-102878860D01*
X104069504Y-102768393D01*
X104069495Y-102768390D01*
X103849984Y-102693031D01*
X103652972Y-102660156D01*
X103621049Y-102654829D01*
X103388951Y-102654829D01*
X103357028Y-102660156D01*
X103160015Y-102693031D01*
X102940504Y-102768390D01*
X102940495Y-102768393D01*
X102736371Y-102878860D01*
X102736365Y-102878864D01*
X102553222Y-103021410D01*
X102553219Y-103021413D01*
X102553216Y-103021415D01*
X102553216Y-103021416D01*
X102519076Y-103058502D01*
X102396016Y-103192181D01*
X102269075Y-103386480D01*
X102175842Y-103599028D01*
X102118866Y-103824020D01*
X102118864Y-103824031D01*
X102099700Y-104055322D01*
X102099700Y-104055335D01*
X99726450Y-104055335D01*
X99726546Y-104055145D01*
X99745842Y-104038425D01*
X99768026Y-104022891D01*
X99931401Y-103908495D01*
X100098495Y-103741401D01*
X100234035Y-103547830D01*
X100333903Y-103333663D01*
X100395063Y-103105408D01*
X100415659Y-102870000D01*
X100395063Y-102634592D01*
X100333903Y-102406337D01*
X100234035Y-102192171D01*
X100228731Y-102184595D01*
X100098494Y-101998597D01*
X99931402Y-101831506D01*
X99931396Y-101831501D01*
X99745842Y-101701575D01*
X99702217Y-101646998D01*
X99695023Y-101577500D01*
X99726546Y-101515145D01*
X99745842Y-101498425D01*
X99768026Y-101482891D01*
X99931401Y-101368495D01*
X100098495Y-101201401D01*
X100234035Y-101007830D01*
X100313227Y-100838002D01*
X102104700Y-100838002D01*
X102123864Y-101069293D01*
X102123866Y-101069304D01*
X102180842Y-101294296D01*
X102274075Y-101506844D01*
X102401016Y-101701143D01*
X102401019Y-101701147D01*
X102401021Y-101701149D01*
X102558216Y-101871909D01*
X102558219Y-101871911D01*
X102558222Y-101871914D01*
X102741365Y-102014460D01*
X102741371Y-102014464D01*
X102741374Y-102014466D01*
X102945497Y-102124932D01*
X103059487Y-102164064D01*
X103165015Y-102200293D01*
X103165017Y-102200293D01*
X103165019Y-102200294D01*
X103393951Y-102238496D01*
X103393952Y-102238496D01*
X103626048Y-102238496D01*
X103626049Y-102238496D01*
X103854981Y-102200294D01*
X104074503Y-102124932D01*
X104278626Y-102014466D01*
X104299019Y-101998594D01*
X104421212Y-101903487D01*
X104461784Y-101871909D01*
X104470130Y-101862842D01*
X104530010Y-101826850D01*
X104599849Y-101828945D01*
X104657468Y-101868465D01*
X104677544Y-101903487D01*
X104706203Y-101980326D01*
X104706206Y-101980331D01*
X104792452Y-102095540D01*
X104792455Y-102095543D01*
X104907664Y-102181789D01*
X104907671Y-102181793D01*
X105042517Y-102232087D01*
X105042516Y-102232087D01*
X105049444Y-102232831D01*
X105102127Y-102238496D01*
X106997872Y-102238495D01*
X107057483Y-102232087D01*
X107192331Y-102181792D01*
X107307546Y-102095542D01*
X107393796Y-101980327D01*
X107444091Y-101845479D01*
X107450500Y-101785869D01*
X107450499Y-99890124D01*
X107444091Y-99830513D01*
X107444083Y-99830492D01*
X107393797Y-99695667D01*
X107393793Y-99695660D01*
X107307547Y-99580451D01*
X107307544Y-99580448D01*
X107192335Y-99494202D01*
X107192328Y-99494198D01*
X107057482Y-99443904D01*
X107057483Y-99443904D01*
X106997883Y-99437497D01*
X106997881Y-99437496D01*
X106997873Y-99437496D01*
X106997864Y-99437496D01*
X105102129Y-99437496D01*
X105102123Y-99437497D01*
X105042516Y-99443904D01*
X104907671Y-99494198D01*
X104907664Y-99494202D01*
X104792455Y-99580448D01*
X104792452Y-99580451D01*
X104706206Y-99695660D01*
X104706203Y-99695666D01*
X104677544Y-99772504D01*
X104635672Y-99828437D01*
X104570208Y-99852854D01*
X104501935Y-99838002D01*
X104470135Y-99813154D01*
X104461784Y-99804083D01*
X104461778Y-99804078D01*
X104461777Y-99804077D01*
X104278634Y-99661531D01*
X104278628Y-99661527D01*
X104074504Y-99551060D01*
X104074495Y-99551057D01*
X103854984Y-99475698D01*
X103664450Y-99443904D01*
X103626049Y-99437496D01*
X103393951Y-99437496D01*
X103355550Y-99443904D01*
X103165015Y-99475698D01*
X102945504Y-99551057D01*
X102945495Y-99551060D01*
X102741371Y-99661527D01*
X102741365Y-99661531D01*
X102558222Y-99804077D01*
X102558219Y-99804080D01*
X102558216Y-99804082D01*
X102558216Y-99804083D01*
X102524751Y-99840436D01*
X102401016Y-99974848D01*
X102274075Y-100169147D01*
X102180842Y-100381695D01*
X102123866Y-100606687D01*
X102123864Y-100606698D01*
X102104700Y-100837989D01*
X102104700Y-100838002D01*
X100313227Y-100838002D01*
X100333903Y-100793663D01*
X100395063Y-100565408D01*
X100415659Y-100330000D01*
X100395063Y-100094592D01*
X100333903Y-99866337D01*
X100234035Y-99652171D01*
X100228731Y-99644595D01*
X100098494Y-99458597D01*
X99931402Y-99291506D01*
X99931396Y-99291501D01*
X99745842Y-99161575D01*
X99702217Y-99106998D01*
X99695023Y-99037500D01*
X99726546Y-98975145D01*
X99745842Y-98958425D01*
X99818430Y-98907598D01*
X99931401Y-98828495D01*
X100098495Y-98661401D01*
X100234035Y-98467830D01*
X100333903Y-98253663D01*
X100395063Y-98025408D01*
X100415659Y-97790000D01*
X100400844Y-97620669D01*
X102099700Y-97620669D01*
X102118864Y-97851960D01*
X102118866Y-97851971D01*
X102175842Y-98076963D01*
X102269075Y-98289511D01*
X102396016Y-98483810D01*
X102396019Y-98483814D01*
X102396021Y-98483816D01*
X102553216Y-98654576D01*
X102553219Y-98654578D01*
X102553222Y-98654581D01*
X102736365Y-98797127D01*
X102736371Y-98797131D01*
X102736374Y-98797133D01*
X102940497Y-98907599D01*
X103054487Y-98946731D01*
X103160015Y-98982960D01*
X103160017Y-98982960D01*
X103160019Y-98982961D01*
X103388951Y-99021163D01*
X103388952Y-99021163D01*
X103621048Y-99021163D01*
X103621049Y-99021163D01*
X103849981Y-98982961D01*
X104069503Y-98907599D01*
X104273626Y-98797133D01*
X104456784Y-98654576D01*
X104465130Y-98645509D01*
X104525010Y-98609517D01*
X104594849Y-98611612D01*
X104652468Y-98651132D01*
X104672544Y-98686154D01*
X104701203Y-98762993D01*
X104701206Y-98762998D01*
X104787452Y-98878207D01*
X104787455Y-98878210D01*
X104902664Y-98964456D01*
X104902671Y-98964460D01*
X105037517Y-99014754D01*
X105037516Y-99014754D01*
X105044444Y-99015498D01*
X105097127Y-99021163D01*
X106992872Y-99021162D01*
X107052483Y-99014754D01*
X107187331Y-98964459D01*
X107302546Y-98878209D01*
X107388796Y-98762994D01*
X107439091Y-98628146D01*
X107445500Y-98568536D01*
X107445499Y-96672791D01*
X107439091Y-96613180D01*
X107435986Y-96604856D01*
X107388797Y-96478334D01*
X107388793Y-96478327D01*
X107302547Y-96363118D01*
X107302544Y-96363115D01*
X107187335Y-96276869D01*
X107187328Y-96276865D01*
X107052482Y-96226571D01*
X107052483Y-96226571D01*
X106992883Y-96220164D01*
X106992881Y-96220163D01*
X106992873Y-96220163D01*
X106992864Y-96220163D01*
X105097129Y-96220163D01*
X105097123Y-96220164D01*
X105037516Y-96226571D01*
X104902671Y-96276865D01*
X104902664Y-96276869D01*
X104787455Y-96363115D01*
X104787452Y-96363118D01*
X104701206Y-96478327D01*
X104701203Y-96478333D01*
X104672544Y-96555171D01*
X104630672Y-96611104D01*
X104565208Y-96635521D01*
X104496935Y-96620669D01*
X104465135Y-96595821D01*
X104456784Y-96586750D01*
X104456778Y-96586745D01*
X104456777Y-96586744D01*
X104273634Y-96444198D01*
X104273628Y-96444194D01*
X104069504Y-96333727D01*
X104069495Y-96333724D01*
X103849984Y-96258365D01*
X103659450Y-96226571D01*
X103621049Y-96220163D01*
X103388951Y-96220163D01*
X103350550Y-96226571D01*
X103160015Y-96258365D01*
X102940504Y-96333724D01*
X102940495Y-96333727D01*
X102736371Y-96444194D01*
X102736365Y-96444198D01*
X102553222Y-96586744D01*
X102553219Y-96586747D01*
X102553216Y-96586749D01*
X102553216Y-96586750D01*
X102508319Y-96635521D01*
X102396016Y-96757515D01*
X102269075Y-96951814D01*
X102175842Y-97164362D01*
X102118866Y-97389354D01*
X102118864Y-97389365D01*
X102099700Y-97620656D01*
X102099700Y-97620669D01*
X100400844Y-97620669D01*
X100395063Y-97554592D01*
X100333903Y-97326337D01*
X100234035Y-97112171D01*
X100228731Y-97104595D01*
X100098494Y-96918597D01*
X99931402Y-96751506D01*
X99931396Y-96751501D01*
X99745842Y-96621575D01*
X99702217Y-96566998D01*
X99695023Y-96497500D01*
X99726546Y-96435145D01*
X99745842Y-96418425D01*
X99824830Y-96363117D01*
X99931401Y-96288495D01*
X100098495Y-96121401D01*
X100234035Y-95927830D01*
X100333903Y-95713663D01*
X100395063Y-95485408D01*
X100415659Y-95250000D01*
X100395063Y-95014592D01*
X100333903Y-94786337D01*
X100234035Y-94572171D01*
X100228731Y-94564595D01*
X100115816Y-94403336D01*
X102099700Y-94403336D01*
X102118864Y-94634627D01*
X102118866Y-94634638D01*
X102175842Y-94859630D01*
X102269075Y-95072178D01*
X102396016Y-95266477D01*
X102396019Y-95266481D01*
X102396021Y-95266483D01*
X102553216Y-95437243D01*
X102553219Y-95437245D01*
X102553222Y-95437248D01*
X102736365Y-95579794D01*
X102736371Y-95579798D01*
X102736374Y-95579800D01*
X102940497Y-95690266D01*
X103054487Y-95729398D01*
X103160015Y-95765627D01*
X103160017Y-95765627D01*
X103160019Y-95765628D01*
X103388951Y-95803830D01*
X103388952Y-95803830D01*
X103621048Y-95803830D01*
X103621049Y-95803830D01*
X103849981Y-95765628D01*
X104069503Y-95690266D01*
X104273626Y-95579800D01*
X104456784Y-95437243D01*
X104465130Y-95428176D01*
X104525010Y-95392184D01*
X104594849Y-95394279D01*
X104652468Y-95433799D01*
X104672544Y-95468821D01*
X104701203Y-95545660D01*
X104701206Y-95545665D01*
X104787452Y-95660874D01*
X104787455Y-95660877D01*
X104902664Y-95747123D01*
X104902671Y-95747127D01*
X105037517Y-95797421D01*
X105037516Y-95797421D01*
X105044444Y-95798165D01*
X105097127Y-95803830D01*
X106992872Y-95803829D01*
X107052483Y-95797421D01*
X107187331Y-95747126D01*
X107302546Y-95660876D01*
X107388796Y-95545661D01*
X107439091Y-95410813D01*
X107445500Y-95351203D01*
X107445499Y-93455458D01*
X107439091Y-93395847D01*
X107438926Y-93395405D01*
X107388797Y-93261001D01*
X107388793Y-93260994D01*
X107302547Y-93145785D01*
X107302544Y-93145782D01*
X107187335Y-93059536D01*
X107187328Y-93059532D01*
X107052482Y-93009238D01*
X107052483Y-93009238D01*
X106992883Y-93002831D01*
X106992881Y-93002830D01*
X106992873Y-93002830D01*
X106992864Y-93002830D01*
X105097129Y-93002830D01*
X105097123Y-93002831D01*
X105037516Y-93009238D01*
X104902671Y-93059532D01*
X104902664Y-93059536D01*
X104787455Y-93145782D01*
X104787452Y-93145785D01*
X104701206Y-93260994D01*
X104701203Y-93261000D01*
X104672544Y-93337838D01*
X104630672Y-93393771D01*
X104565208Y-93418188D01*
X104496935Y-93403336D01*
X104465135Y-93378488D01*
X104456784Y-93369417D01*
X104456778Y-93369412D01*
X104456777Y-93369411D01*
X104273634Y-93226865D01*
X104273628Y-93226861D01*
X104069504Y-93116394D01*
X104069495Y-93116391D01*
X103849984Y-93041032D01*
X103659450Y-93009238D01*
X103621049Y-93002830D01*
X103388951Y-93002830D01*
X103350550Y-93009238D01*
X103160015Y-93041032D01*
X102940504Y-93116391D01*
X102940495Y-93116394D01*
X102736371Y-93226861D01*
X102736365Y-93226865D01*
X102553222Y-93369411D01*
X102553219Y-93369414D01*
X102553216Y-93369416D01*
X102553216Y-93369417D01*
X102508319Y-93418188D01*
X102396016Y-93540182D01*
X102269075Y-93734481D01*
X102175842Y-93947029D01*
X102118866Y-94172021D01*
X102118864Y-94172032D01*
X102099700Y-94403323D01*
X102099700Y-94403336D01*
X100115816Y-94403336D01*
X100098494Y-94378597D01*
X99931402Y-94211506D01*
X99931396Y-94211501D01*
X99745842Y-94081575D01*
X99702217Y-94026998D01*
X99695023Y-93957500D01*
X99726546Y-93895145D01*
X99745842Y-93878425D01*
X99768026Y-93862891D01*
X99931401Y-93748495D01*
X100098495Y-93581401D01*
X100234035Y-93387830D01*
X100333903Y-93173663D01*
X100395063Y-92945408D01*
X100415659Y-92710000D01*
X100395063Y-92474592D01*
X100333903Y-92246337D01*
X100234035Y-92032171D01*
X100228731Y-92024595D01*
X100098494Y-91838597D01*
X99931402Y-91671506D01*
X99931396Y-91671501D01*
X99745842Y-91541575D01*
X99702217Y-91486998D01*
X99695023Y-91417500D01*
X99726546Y-91355145D01*
X99745842Y-91338425D01*
X99768026Y-91322891D01*
X99931401Y-91208495D01*
X99953893Y-91186003D01*
X102104700Y-91186003D01*
X102123864Y-91417294D01*
X102123866Y-91417305D01*
X102180842Y-91642297D01*
X102274075Y-91854845D01*
X102401016Y-92049144D01*
X102401019Y-92049148D01*
X102401021Y-92049150D01*
X102558216Y-92219910D01*
X102558219Y-92219912D01*
X102558222Y-92219915D01*
X102741365Y-92362461D01*
X102741371Y-92362465D01*
X102741374Y-92362467D01*
X102945497Y-92472933D01*
X103024795Y-92500156D01*
X103165015Y-92548294D01*
X103165017Y-92548294D01*
X103165019Y-92548295D01*
X103393951Y-92586497D01*
X103393952Y-92586497D01*
X103626048Y-92586497D01*
X103626049Y-92586497D01*
X103854981Y-92548295D01*
X104074503Y-92472933D01*
X104278626Y-92362467D01*
X104461784Y-92219910D01*
X104470130Y-92210843D01*
X104530010Y-92174851D01*
X104599849Y-92176946D01*
X104657468Y-92216466D01*
X104677544Y-92251488D01*
X104706203Y-92328327D01*
X104706206Y-92328332D01*
X104792452Y-92443541D01*
X104792455Y-92443544D01*
X104907664Y-92529790D01*
X104907671Y-92529794D01*
X105042517Y-92580088D01*
X105042516Y-92580088D01*
X105049444Y-92580832D01*
X105102127Y-92586497D01*
X106997872Y-92586496D01*
X107057483Y-92580088D01*
X107192331Y-92529793D01*
X107307546Y-92443543D01*
X107393796Y-92328328D01*
X107444091Y-92193480D01*
X107450500Y-92133870D01*
X107450499Y-90238125D01*
X107444091Y-90178514D01*
X107440915Y-90170000D01*
X107393797Y-90043668D01*
X107393793Y-90043661D01*
X107307547Y-89928452D01*
X107307544Y-89928449D01*
X107192335Y-89842203D01*
X107192328Y-89842199D01*
X107057482Y-89791905D01*
X107057483Y-89791905D01*
X106997883Y-89785498D01*
X106997881Y-89785497D01*
X106997873Y-89785497D01*
X106997864Y-89785497D01*
X105102129Y-89785497D01*
X105102123Y-89785498D01*
X105042516Y-89791905D01*
X104907671Y-89842199D01*
X104907664Y-89842203D01*
X104792455Y-89928449D01*
X104792452Y-89928452D01*
X104706206Y-90043661D01*
X104706203Y-90043667D01*
X104677544Y-90120505D01*
X104635672Y-90176438D01*
X104570208Y-90200855D01*
X104501935Y-90186003D01*
X104470135Y-90161155D01*
X104461784Y-90152084D01*
X104461778Y-90152079D01*
X104461777Y-90152078D01*
X104278634Y-90009532D01*
X104278628Y-90009528D01*
X104074504Y-89899061D01*
X104074495Y-89899058D01*
X103854984Y-89823699D01*
X103664450Y-89791905D01*
X103626049Y-89785497D01*
X103393951Y-89785497D01*
X103355550Y-89791905D01*
X103165015Y-89823699D01*
X102945504Y-89899058D01*
X102945495Y-89899061D01*
X102741371Y-90009528D01*
X102741365Y-90009532D01*
X102558222Y-90152078D01*
X102558219Y-90152081D01*
X102558216Y-90152083D01*
X102558216Y-90152084D01*
X102513319Y-90200855D01*
X102401016Y-90322849D01*
X102274075Y-90517148D01*
X102180842Y-90729696D01*
X102123866Y-90954688D01*
X102123864Y-90954699D01*
X102104700Y-91185990D01*
X102104700Y-91186003D01*
X99953893Y-91186003D01*
X100098495Y-91041401D01*
X100234035Y-90847830D01*
X100333903Y-90633663D01*
X100395063Y-90405408D01*
X100415659Y-90170000D01*
X100395063Y-89934592D01*
X100333903Y-89706337D01*
X100234035Y-89492171D01*
X100228731Y-89484595D01*
X100098494Y-89298597D01*
X99931402Y-89131506D01*
X99931396Y-89131501D01*
X99745842Y-89001575D01*
X99702217Y-88946998D01*
X99695023Y-88877500D01*
X99726546Y-88815145D01*
X99745842Y-88798425D01*
X99768026Y-88782891D01*
X99931401Y-88668495D01*
X100098495Y-88501401D01*
X100234035Y-88307830D01*
X100333903Y-88093663D01*
X100367394Y-87968670D01*
X102099700Y-87968670D01*
X102118864Y-88199961D01*
X102118866Y-88199972D01*
X102175842Y-88424964D01*
X102269075Y-88637512D01*
X102396016Y-88831811D01*
X102396019Y-88831815D01*
X102396021Y-88831817D01*
X102553216Y-89002577D01*
X102553219Y-89002579D01*
X102553222Y-89002582D01*
X102736365Y-89145128D01*
X102736371Y-89145132D01*
X102736374Y-89145134D01*
X102940497Y-89255600D01*
X103054487Y-89294732D01*
X103160015Y-89330961D01*
X103160017Y-89330961D01*
X103160019Y-89330962D01*
X103388951Y-89369164D01*
X103388952Y-89369164D01*
X103621048Y-89369164D01*
X103621049Y-89369164D01*
X103849981Y-89330962D01*
X104069503Y-89255600D01*
X104273626Y-89145134D01*
X104291136Y-89131506D01*
X104416212Y-89034155D01*
X104456784Y-89002577D01*
X104465130Y-88993510D01*
X104525010Y-88957518D01*
X104594849Y-88959613D01*
X104652468Y-88999133D01*
X104672544Y-89034155D01*
X104701203Y-89110994D01*
X104701206Y-89110999D01*
X104787452Y-89226208D01*
X104787455Y-89226211D01*
X104902664Y-89312457D01*
X104902671Y-89312461D01*
X105037517Y-89362755D01*
X105037516Y-89362755D01*
X105044444Y-89363499D01*
X105097127Y-89369164D01*
X106992872Y-89369163D01*
X107052483Y-89362755D01*
X107187331Y-89312460D01*
X107302546Y-89226210D01*
X107388796Y-89110995D01*
X107439091Y-88976147D01*
X107445500Y-88916537D01*
X107445499Y-87020792D01*
X107439091Y-86961181D01*
X107435823Y-86952420D01*
X107388797Y-86826335D01*
X107388793Y-86826328D01*
X107302547Y-86711119D01*
X107302544Y-86711116D01*
X107187335Y-86624870D01*
X107187328Y-86624866D01*
X107052482Y-86574572D01*
X107052483Y-86574572D01*
X106992883Y-86568165D01*
X106992881Y-86568164D01*
X106992873Y-86568164D01*
X106992864Y-86568164D01*
X105097129Y-86568164D01*
X105097123Y-86568165D01*
X105037516Y-86574572D01*
X104902671Y-86624866D01*
X104902664Y-86624870D01*
X104787455Y-86711116D01*
X104787452Y-86711119D01*
X104701206Y-86826328D01*
X104701203Y-86826334D01*
X104672544Y-86903172D01*
X104630672Y-86959105D01*
X104565208Y-86983522D01*
X104496935Y-86968670D01*
X104465135Y-86943822D01*
X104456784Y-86934751D01*
X104456778Y-86934746D01*
X104456777Y-86934745D01*
X104273634Y-86792199D01*
X104273628Y-86792195D01*
X104069504Y-86681728D01*
X104069495Y-86681725D01*
X103849984Y-86606366D01*
X103659450Y-86574572D01*
X103621049Y-86568164D01*
X103388951Y-86568164D01*
X103350550Y-86574572D01*
X103160015Y-86606366D01*
X102940504Y-86681725D01*
X102940495Y-86681728D01*
X102736371Y-86792195D01*
X102736365Y-86792199D01*
X102553222Y-86934745D01*
X102553219Y-86934748D01*
X102553216Y-86934750D01*
X102553216Y-86934751D01*
X102519476Y-86971403D01*
X102396016Y-87105516D01*
X102269075Y-87299815D01*
X102175842Y-87512363D01*
X102118866Y-87737355D01*
X102118864Y-87737366D01*
X102099700Y-87968657D01*
X102099700Y-87968670D01*
X100367394Y-87968670D01*
X100395063Y-87865408D01*
X100415659Y-87630000D01*
X100395063Y-87394592D01*
X100333903Y-87166337D01*
X100234035Y-86952171D01*
X100228731Y-86944595D01*
X100098494Y-86758597D01*
X99931402Y-86591506D01*
X99931396Y-86591501D01*
X99745842Y-86461575D01*
X99702217Y-86406998D01*
X99695023Y-86337500D01*
X99726546Y-86275145D01*
X99745842Y-86258425D01*
X99768026Y-86242891D01*
X99931401Y-86128495D01*
X100098495Y-85961401D01*
X100234035Y-85767830D01*
X100333903Y-85553663D01*
X100395063Y-85325408D01*
X100415659Y-85090000D01*
X100395063Y-84854592D01*
X100367396Y-84751337D01*
X102099700Y-84751337D01*
X102118864Y-84982628D01*
X102118866Y-84982639D01*
X102175842Y-85207631D01*
X102269075Y-85420179D01*
X102396016Y-85614478D01*
X102396019Y-85614482D01*
X102396021Y-85614484D01*
X102553216Y-85785244D01*
X102553219Y-85785246D01*
X102553222Y-85785249D01*
X102736365Y-85927795D01*
X102736371Y-85927799D01*
X102736374Y-85927801D01*
X102940497Y-86038267D01*
X103054487Y-86077399D01*
X103160015Y-86113628D01*
X103160017Y-86113628D01*
X103160019Y-86113629D01*
X103388951Y-86151831D01*
X103388952Y-86151831D01*
X103621048Y-86151831D01*
X103621049Y-86151831D01*
X103849981Y-86113629D01*
X104069503Y-86038267D01*
X104273626Y-85927801D01*
X104456784Y-85785244D01*
X104465130Y-85776177D01*
X104525010Y-85740185D01*
X104594849Y-85742280D01*
X104652468Y-85781800D01*
X104672544Y-85816822D01*
X104701203Y-85893661D01*
X104701206Y-85893666D01*
X104787452Y-86008875D01*
X104787455Y-86008878D01*
X104902664Y-86095124D01*
X104902671Y-86095128D01*
X105037517Y-86145422D01*
X105037516Y-86145422D01*
X105044444Y-86146166D01*
X105097127Y-86151831D01*
X106992872Y-86151830D01*
X107052483Y-86145422D01*
X107187331Y-86095127D01*
X107302546Y-86008877D01*
X107388796Y-85893662D01*
X107439091Y-85758814D01*
X107445500Y-85699204D01*
X107445499Y-83803459D01*
X107439091Y-83743848D01*
X107431701Y-83724035D01*
X107388797Y-83609002D01*
X107388793Y-83608995D01*
X107302547Y-83493786D01*
X107302544Y-83493783D01*
X107187335Y-83407537D01*
X107187328Y-83407533D01*
X107052482Y-83357239D01*
X107052483Y-83357239D01*
X106992883Y-83350832D01*
X106992881Y-83350831D01*
X106992873Y-83350831D01*
X106992864Y-83350831D01*
X105097129Y-83350831D01*
X105097123Y-83350832D01*
X105037516Y-83357239D01*
X104902671Y-83407533D01*
X104902664Y-83407537D01*
X104787455Y-83493783D01*
X104787452Y-83493786D01*
X104701206Y-83608995D01*
X104701203Y-83609001D01*
X104672544Y-83685839D01*
X104630672Y-83741772D01*
X104565208Y-83766189D01*
X104496935Y-83751337D01*
X104465135Y-83726489D01*
X104456784Y-83717418D01*
X104456778Y-83717413D01*
X104456777Y-83717412D01*
X104273634Y-83574866D01*
X104273628Y-83574862D01*
X104069504Y-83464395D01*
X104069495Y-83464392D01*
X103849984Y-83389033D01*
X103659450Y-83357239D01*
X103621049Y-83350831D01*
X103388951Y-83350831D01*
X103350550Y-83357239D01*
X103160015Y-83389033D01*
X102940504Y-83464392D01*
X102940495Y-83464395D01*
X102736371Y-83574862D01*
X102736365Y-83574866D01*
X102553222Y-83717412D01*
X102553219Y-83717415D01*
X102553216Y-83717417D01*
X102553216Y-83717418D01*
X102508319Y-83766189D01*
X102396016Y-83888183D01*
X102269075Y-84082482D01*
X102175842Y-84295030D01*
X102118866Y-84520022D01*
X102118864Y-84520033D01*
X102099700Y-84751324D01*
X102099700Y-84751337D01*
X100367396Y-84751337D01*
X100333903Y-84626337D01*
X100234035Y-84412171D01*
X100228731Y-84404595D01*
X100098494Y-84218597D01*
X99931402Y-84051506D01*
X99931396Y-84051501D01*
X99745842Y-83921575D01*
X99702217Y-83866998D01*
X99695023Y-83797500D01*
X99726546Y-83735145D01*
X99745842Y-83718425D01*
X99792379Y-83685839D01*
X99931401Y-83588495D01*
X100098495Y-83421401D01*
X100234035Y-83227830D01*
X100333903Y-83013663D01*
X100395063Y-82785408D01*
X100415659Y-82550000D01*
X100395063Y-82314592D01*
X100333903Y-82086337D01*
X100234035Y-81872171D01*
X100228731Y-81864595D01*
X100098494Y-81678597D01*
X99953900Y-81534004D01*
X102099700Y-81534004D01*
X102118864Y-81765295D01*
X102118866Y-81765306D01*
X102175842Y-81990298D01*
X102269075Y-82202846D01*
X102396016Y-82397145D01*
X102396019Y-82397149D01*
X102396021Y-82397151D01*
X102553216Y-82567911D01*
X102553219Y-82567913D01*
X102553222Y-82567916D01*
X102736365Y-82710462D01*
X102736371Y-82710466D01*
X102736374Y-82710468D01*
X102940497Y-82820934D01*
X103054487Y-82860066D01*
X103160015Y-82896295D01*
X103160017Y-82896295D01*
X103160019Y-82896296D01*
X103388951Y-82934498D01*
X103388952Y-82934498D01*
X103621048Y-82934498D01*
X103621049Y-82934498D01*
X103849981Y-82896296D01*
X104069503Y-82820934D01*
X104273626Y-82710468D01*
X104456784Y-82567911D01*
X104465130Y-82558844D01*
X104525010Y-82522852D01*
X104594849Y-82524947D01*
X104652468Y-82564467D01*
X104672544Y-82599489D01*
X104701203Y-82676328D01*
X104701206Y-82676333D01*
X104787452Y-82791542D01*
X104787455Y-82791545D01*
X104902664Y-82877791D01*
X104902671Y-82877795D01*
X105037517Y-82928089D01*
X105037516Y-82928089D01*
X105044444Y-82928833D01*
X105097127Y-82934498D01*
X106992872Y-82934497D01*
X107052483Y-82928089D01*
X107187331Y-82877794D01*
X107302546Y-82791544D01*
X107388796Y-82676329D01*
X107439091Y-82541481D01*
X107445500Y-82481871D01*
X107445500Y-81915001D01*
X108549532Y-81915001D01*
X108569364Y-82141686D01*
X108569366Y-82141697D01*
X108628258Y-82361488D01*
X108628261Y-82361497D01*
X108724431Y-82567732D01*
X108724432Y-82567734D01*
X108854954Y-82754141D01*
X109015858Y-82915045D01*
X109041086Y-82932710D01*
X109084711Y-82987287D01*
X109091905Y-83056785D01*
X109060382Y-83119140D01*
X109000153Y-83154554D01*
X108983221Y-83157574D01*
X108947626Y-83161401D01*
X108947620Y-83161403D01*
X108812913Y-83211645D01*
X108812906Y-83211649D01*
X108697812Y-83297809D01*
X108697809Y-83297812D01*
X108611649Y-83412906D01*
X108611645Y-83412913D01*
X108561403Y-83547620D01*
X108561401Y-83547627D01*
X108555000Y-83607155D01*
X108555000Y-83607172D01*
X108554999Y-84204999D01*
X108555000Y-84205000D01*
X109344424Y-84205000D01*
X109411463Y-84224685D01*
X109457218Y-84277489D01*
X109467162Y-84346647D01*
X109466897Y-84348397D01*
X109450014Y-84454996D01*
X109450014Y-84455003D01*
X109466897Y-84561603D01*
X109457942Y-84630896D01*
X109412946Y-84684348D01*
X109346194Y-84704987D01*
X109344424Y-84705000D01*
X108555000Y-84705000D01*
X108555000Y-85302844D01*
X108561401Y-85362372D01*
X108561403Y-85362379D01*
X108611645Y-85497086D01*
X108611649Y-85497093D01*
X108697809Y-85612187D01*
X108697812Y-85612190D01*
X108812906Y-85698350D01*
X108812913Y-85698354D01*
X108947620Y-85748596D01*
X108947627Y-85748598D01*
X109007155Y-85754999D01*
X109007172Y-85755000D01*
X109604999Y-85755000D01*
X109605000Y-84965575D01*
X109624685Y-84898536D01*
X109677489Y-84852781D01*
X109746647Y-84842837D01*
X109748331Y-84843091D01*
X109780699Y-84848218D01*
X109823515Y-84855000D01*
X109823519Y-84855000D01*
X109886485Y-84855000D01*
X109929300Y-84848218D01*
X109961602Y-84843102D01*
X110030894Y-84852056D01*
X110084347Y-84897052D01*
X110104987Y-84963803D01*
X110105000Y-84965575D01*
X110105000Y-85755000D01*
X110702828Y-85755000D01*
X110702844Y-85754999D01*
X110762372Y-85748598D01*
X110762379Y-85748596D01*
X110897086Y-85698354D01*
X110897093Y-85698350D01*
X111012187Y-85612190D01*
X111012190Y-85612187D01*
X111098350Y-85497093D01*
X111098354Y-85497086D01*
X111148596Y-85362379D01*
X111148598Y-85362372D01*
X111154999Y-85302844D01*
X111155000Y-85302827D01*
X111155000Y-84705000D01*
X110365576Y-84705000D01*
X110298537Y-84685315D01*
X110252782Y-84632511D01*
X110242838Y-84563353D01*
X110243103Y-84561603D01*
X110259986Y-84455003D01*
X110259986Y-84454996D01*
X110243103Y-84348397D01*
X110252058Y-84279104D01*
X110297054Y-84225652D01*
X110363806Y-84205013D01*
X110365576Y-84205000D01*
X111155000Y-84205000D01*
X111155000Y-83607172D01*
X111154999Y-83607155D01*
X111148598Y-83547627D01*
X111148596Y-83547620D01*
X111098354Y-83412913D01*
X111098350Y-83412906D01*
X111012190Y-83297812D01*
X111012187Y-83297809D01*
X110897093Y-83211649D01*
X110897086Y-83211645D01*
X110762379Y-83161403D01*
X110762373Y-83161401D01*
X110726778Y-83157574D01*
X110662228Y-83130835D01*
X110622381Y-83073441D01*
X110619888Y-83003616D01*
X110655542Y-82943528D01*
X110668913Y-82932710D01*
X110694139Y-82915047D01*
X110855047Y-82754139D01*
X110985568Y-82567734D01*
X111081739Y-82361496D01*
X111140635Y-82141692D01*
X111160468Y-81915000D01*
X111140635Y-81688308D01*
X111081739Y-81468504D01*
X110985568Y-81262266D01*
X110855047Y-81075861D01*
X110855045Y-81075858D01*
X110694141Y-80914954D01*
X110507734Y-80784432D01*
X110507728Y-80784429D01*
X110449725Y-80757382D01*
X110397285Y-80711210D01*
X110378133Y-80644017D01*
X110398348Y-80577135D01*
X110449725Y-80532618D01*
X110462815Y-80526514D01*
X110507734Y-80505568D01*
X110694139Y-80375047D01*
X110855047Y-80214139D01*
X110985568Y-80027734D01*
X111081739Y-79821496D01*
X111140635Y-79601692D01*
X111160468Y-79375000D01*
X111140635Y-79148308D01*
X111081739Y-78928504D01*
X110985568Y-78722266D01*
X110855047Y-78535861D01*
X110855045Y-78535858D01*
X110694141Y-78374954D01*
X110507734Y-78244432D01*
X110507728Y-78244429D01*
X110449725Y-78217382D01*
X110397285Y-78171210D01*
X110378133Y-78104017D01*
X110398348Y-78037135D01*
X110449725Y-77992618D01*
X110507734Y-77965568D01*
X110694139Y-77835047D01*
X110855047Y-77674139D01*
X110985568Y-77487734D01*
X111081739Y-77281496D01*
X111140635Y-77061692D01*
X111160468Y-76835000D01*
X111140635Y-76608308D01*
X111081739Y-76388504D01*
X110985568Y-76182266D01*
X110855047Y-75995861D01*
X110855045Y-75995858D01*
X110694141Y-75834954D01*
X110507734Y-75704432D01*
X110507728Y-75704429D01*
X110449725Y-75677382D01*
X110397285Y-75631210D01*
X110378133Y-75564017D01*
X110398348Y-75497135D01*
X110449725Y-75452618D01*
X110507734Y-75425568D01*
X110694139Y-75295047D01*
X110855047Y-75134139D01*
X110985568Y-74947734D01*
X111081739Y-74741496D01*
X111140635Y-74521692D01*
X111160468Y-74295000D01*
X111140635Y-74068308D01*
X111081739Y-73848504D01*
X110985568Y-73642266D01*
X110855047Y-73455861D01*
X110855045Y-73455858D01*
X110694141Y-73294954D01*
X110507734Y-73164432D01*
X110507728Y-73164429D01*
X110454364Y-73139545D01*
X110449724Y-73137381D01*
X110397285Y-73091210D01*
X110378133Y-73024017D01*
X110398348Y-72957135D01*
X110449725Y-72912618D01*
X110450047Y-72912468D01*
X110507734Y-72885568D01*
X110694139Y-72755047D01*
X110855047Y-72594139D01*
X110985568Y-72407734D01*
X111081739Y-72201496D01*
X111140635Y-71981692D01*
X111160468Y-71755000D01*
X111140635Y-71528308D01*
X111081739Y-71308504D01*
X110985568Y-71102266D01*
X110855047Y-70915861D01*
X110855045Y-70915858D01*
X110694141Y-70754954D01*
X110507734Y-70624432D01*
X110507728Y-70624429D01*
X110449725Y-70597382D01*
X110397285Y-70551210D01*
X110378133Y-70484017D01*
X110398348Y-70417135D01*
X110449725Y-70372618D01*
X110507734Y-70345568D01*
X110694139Y-70215047D01*
X110855047Y-70054139D01*
X110985568Y-69867734D01*
X111081739Y-69661496D01*
X111140635Y-69441692D01*
X111160468Y-69215000D01*
X111140635Y-68988308D01*
X111081739Y-68768504D01*
X110985568Y-68562266D01*
X110855047Y-68375861D01*
X110855045Y-68375858D01*
X110694141Y-68214954D01*
X110507734Y-68084432D01*
X110507728Y-68084429D01*
X110449725Y-68057382D01*
X110397285Y-68011210D01*
X110378133Y-67944017D01*
X110398348Y-67877135D01*
X110449725Y-67832618D01*
X110507734Y-67805568D01*
X110694139Y-67675047D01*
X110855047Y-67514139D01*
X110985568Y-67327734D01*
X111081739Y-67121496D01*
X111140635Y-66901692D01*
X111160468Y-66675000D01*
X111140635Y-66448308D01*
X111081739Y-66228504D01*
X110985568Y-66022266D01*
X110855047Y-65835861D01*
X110855045Y-65835858D01*
X110694141Y-65674954D01*
X110507734Y-65544432D01*
X110507728Y-65544429D01*
X110449725Y-65517382D01*
X110397285Y-65471210D01*
X110378133Y-65404017D01*
X110398348Y-65337135D01*
X110449725Y-65292618D01*
X110507734Y-65265568D01*
X110694139Y-65135047D01*
X110855047Y-64974139D01*
X110985568Y-64787734D01*
X111081739Y-64581496D01*
X111140635Y-64361692D01*
X111160468Y-64135000D01*
X111140635Y-63908308D01*
X111081739Y-63688504D01*
X110985568Y-63482266D01*
X110855047Y-63295861D01*
X110855045Y-63295858D01*
X110694141Y-63134954D01*
X110507734Y-63004432D01*
X110507732Y-63004431D01*
X110301497Y-62908261D01*
X110301488Y-62908258D01*
X110081697Y-62849366D01*
X110081693Y-62849365D01*
X110081692Y-62849365D01*
X110081691Y-62849364D01*
X110081686Y-62849364D01*
X109855002Y-62829532D01*
X109854998Y-62829532D01*
X109628313Y-62849364D01*
X109628302Y-62849366D01*
X109408511Y-62908258D01*
X109408502Y-62908261D01*
X109202267Y-63004431D01*
X109202265Y-63004432D01*
X109015858Y-63134954D01*
X108854954Y-63295858D01*
X108724432Y-63482265D01*
X108724431Y-63482267D01*
X108628261Y-63688502D01*
X108628258Y-63688511D01*
X108569366Y-63908302D01*
X108569364Y-63908313D01*
X108549532Y-64134998D01*
X108549532Y-64135001D01*
X108569364Y-64361686D01*
X108569366Y-64361697D01*
X108628258Y-64581488D01*
X108628261Y-64581497D01*
X108724431Y-64787732D01*
X108724432Y-64787734D01*
X108854954Y-64974141D01*
X109015858Y-65135045D01*
X109156701Y-65233663D01*
X109202266Y-65265568D01*
X109260278Y-65292619D01*
X109312713Y-65338788D01*
X109331866Y-65405982D01*
X109311651Y-65472863D01*
X109260277Y-65517380D01*
X109202268Y-65544430D01*
X109202265Y-65544432D01*
X109015858Y-65674954D01*
X108854954Y-65835858D01*
X108724432Y-66022265D01*
X108724431Y-66022267D01*
X108628261Y-66228502D01*
X108628258Y-66228511D01*
X108569366Y-66448302D01*
X108569364Y-66448313D01*
X108549532Y-66674998D01*
X108549532Y-66675001D01*
X108569364Y-66901686D01*
X108569366Y-66901697D01*
X108628258Y-67121488D01*
X108628261Y-67121497D01*
X108724431Y-67327732D01*
X108724432Y-67327734D01*
X108854954Y-67514141D01*
X109015858Y-67675045D01*
X109156701Y-67773663D01*
X109202266Y-67805568D01*
X109260278Y-67832619D01*
X109312713Y-67878788D01*
X109331866Y-67945982D01*
X109311651Y-68012863D01*
X109260277Y-68057380D01*
X109202268Y-68084430D01*
X109202265Y-68084432D01*
X109015858Y-68214954D01*
X108854954Y-68375858D01*
X108724432Y-68562265D01*
X108724431Y-68562267D01*
X108628261Y-68768502D01*
X108628258Y-68768511D01*
X108569366Y-68988302D01*
X108569364Y-68988313D01*
X108549532Y-69214998D01*
X108549532Y-69215001D01*
X108569364Y-69441686D01*
X108569366Y-69441697D01*
X108628258Y-69661488D01*
X108628261Y-69661497D01*
X108724431Y-69867732D01*
X108724432Y-69867734D01*
X108854954Y-70054141D01*
X109015858Y-70215045D01*
X109015861Y-70215047D01*
X109202266Y-70345568D01*
X109260275Y-70372618D01*
X109312714Y-70418791D01*
X109331866Y-70485984D01*
X109311650Y-70552865D01*
X109260275Y-70597382D01*
X109202267Y-70624431D01*
X109202265Y-70624432D01*
X109015858Y-70754954D01*
X108854954Y-70915858D01*
X108724432Y-71102265D01*
X108724431Y-71102267D01*
X108628261Y-71308502D01*
X108628258Y-71308511D01*
X108569366Y-71528302D01*
X108569364Y-71528313D01*
X108549532Y-71754998D01*
X108549532Y-71755001D01*
X108569364Y-71981686D01*
X108569366Y-71981697D01*
X108628258Y-72201488D01*
X108628261Y-72201497D01*
X108724431Y-72407732D01*
X108724432Y-72407734D01*
X108854954Y-72594141D01*
X109015858Y-72755045D01*
X109015861Y-72755047D01*
X109202266Y-72885568D01*
X109247901Y-72906848D01*
X109260275Y-72912618D01*
X109312714Y-72958791D01*
X109331866Y-73025984D01*
X109311650Y-73092865D01*
X109260275Y-73137381D01*
X109255636Y-73139545D01*
X109202267Y-73164431D01*
X109202265Y-73164432D01*
X109015858Y-73294954D01*
X108854954Y-73455858D01*
X108724432Y-73642265D01*
X108724431Y-73642267D01*
X108628261Y-73848502D01*
X108628258Y-73848511D01*
X108569366Y-74068302D01*
X108569364Y-74068313D01*
X108549532Y-74294998D01*
X108549532Y-74295001D01*
X108569364Y-74521686D01*
X108569366Y-74521697D01*
X108628258Y-74741488D01*
X108628261Y-74741497D01*
X108724431Y-74947732D01*
X108724432Y-74947734D01*
X108854954Y-75134141D01*
X109015858Y-75295045D01*
X109015861Y-75295047D01*
X109202266Y-75425568D01*
X109260275Y-75452618D01*
X109312714Y-75498791D01*
X109331866Y-75565984D01*
X109311650Y-75632865D01*
X109260275Y-75677382D01*
X109202267Y-75704431D01*
X109202265Y-75704432D01*
X109015858Y-75834954D01*
X108854954Y-75995858D01*
X108724432Y-76182265D01*
X108724431Y-76182267D01*
X108628261Y-76388502D01*
X108628258Y-76388511D01*
X108569366Y-76608302D01*
X108569364Y-76608313D01*
X108549532Y-76834998D01*
X108549532Y-76835001D01*
X108569364Y-77061686D01*
X108569366Y-77061697D01*
X108628258Y-77281488D01*
X108628261Y-77281497D01*
X108724431Y-77487732D01*
X108724432Y-77487734D01*
X108854954Y-77674141D01*
X109015858Y-77835045D01*
X109015861Y-77835047D01*
X109202266Y-77965568D01*
X109260275Y-77992618D01*
X109312714Y-78038791D01*
X109331866Y-78105984D01*
X109311650Y-78172865D01*
X109260275Y-78217382D01*
X109202267Y-78244431D01*
X109202265Y-78244432D01*
X109015858Y-78374954D01*
X108854954Y-78535858D01*
X108724432Y-78722265D01*
X108724431Y-78722267D01*
X108628261Y-78928502D01*
X108628258Y-78928511D01*
X108569366Y-79148302D01*
X108569364Y-79148313D01*
X108549532Y-79374998D01*
X108549532Y-79375001D01*
X108569364Y-79601686D01*
X108569366Y-79601697D01*
X108628258Y-79821488D01*
X108628261Y-79821497D01*
X108724431Y-80027732D01*
X108724432Y-80027734D01*
X108854954Y-80214141D01*
X109015858Y-80375045D01*
X109015861Y-80375047D01*
X109202266Y-80505568D01*
X109242735Y-80524439D01*
X109260275Y-80532618D01*
X109312714Y-80578791D01*
X109331866Y-80645984D01*
X109311650Y-80712865D01*
X109260275Y-80757382D01*
X109202267Y-80784431D01*
X109202265Y-80784432D01*
X109015858Y-80914954D01*
X108854954Y-81075858D01*
X108724432Y-81262265D01*
X108724431Y-81262267D01*
X108628261Y-81468502D01*
X108628258Y-81468511D01*
X108569366Y-81688302D01*
X108569364Y-81688313D01*
X108549532Y-81914998D01*
X108549532Y-81915001D01*
X107445500Y-81915001D01*
X107445499Y-80586126D01*
X107439091Y-80526515D01*
X107432931Y-80510000D01*
X107388797Y-80391669D01*
X107388793Y-80391662D01*
X107302547Y-80276453D01*
X107302544Y-80276450D01*
X107187335Y-80190204D01*
X107187328Y-80190200D01*
X107052482Y-80139906D01*
X107052483Y-80139906D01*
X106992883Y-80133499D01*
X106992881Y-80133498D01*
X106992873Y-80133498D01*
X106992864Y-80133498D01*
X105097129Y-80133498D01*
X105097123Y-80133499D01*
X105037516Y-80139906D01*
X104902671Y-80190200D01*
X104902664Y-80190204D01*
X104787455Y-80276450D01*
X104787452Y-80276453D01*
X104701206Y-80391662D01*
X104701203Y-80391668D01*
X104672544Y-80468506D01*
X104630672Y-80524439D01*
X104565208Y-80548856D01*
X104496935Y-80534004D01*
X104465135Y-80509156D01*
X104456784Y-80500085D01*
X104456778Y-80500080D01*
X104456777Y-80500079D01*
X104273634Y-80357533D01*
X104273628Y-80357529D01*
X104069504Y-80247062D01*
X104069495Y-80247059D01*
X103849984Y-80171700D01*
X103659450Y-80139906D01*
X103621049Y-80133498D01*
X103388951Y-80133498D01*
X103350550Y-80139906D01*
X103160015Y-80171700D01*
X102940504Y-80247059D01*
X102940495Y-80247062D01*
X102736371Y-80357529D01*
X102736365Y-80357533D01*
X102553222Y-80500079D01*
X102553219Y-80500082D01*
X102553216Y-80500084D01*
X102553216Y-80500085D01*
X102508319Y-80548856D01*
X102396016Y-80670850D01*
X102269075Y-80865149D01*
X102175842Y-81077697D01*
X102118866Y-81302689D01*
X102118864Y-81302700D01*
X102099700Y-81533991D01*
X102099700Y-81534004D01*
X99953900Y-81534004D01*
X99931402Y-81511506D01*
X99931396Y-81511501D01*
X99745842Y-81381575D01*
X99702217Y-81326998D01*
X99695023Y-81257500D01*
X99726546Y-81195145D01*
X99745842Y-81178425D01*
X99768026Y-81162891D01*
X99931401Y-81048495D01*
X100098495Y-80881401D01*
X100234035Y-80687830D01*
X100333903Y-80473663D01*
X100395063Y-80245408D01*
X100415659Y-80010000D01*
X100395063Y-79774592D01*
X100333903Y-79546337D01*
X100234035Y-79332171D01*
X100228731Y-79324595D01*
X100098494Y-79138597D01*
X99931402Y-78971506D01*
X99931396Y-78971501D01*
X99745842Y-78841575D01*
X99702217Y-78786998D01*
X99695023Y-78717500D01*
X99726546Y-78655145D01*
X99745842Y-78638425D01*
X99768026Y-78622891D01*
X99931401Y-78508495D01*
X100098495Y-78341401D01*
X100115811Y-78316671D01*
X102104700Y-78316671D01*
X102123864Y-78547962D01*
X102123866Y-78547973D01*
X102180842Y-78772965D01*
X102274075Y-78985513D01*
X102401016Y-79179812D01*
X102401019Y-79179816D01*
X102401021Y-79179818D01*
X102558216Y-79350578D01*
X102558219Y-79350580D01*
X102558222Y-79350583D01*
X102741365Y-79493129D01*
X102741371Y-79493133D01*
X102741374Y-79493135D01*
X102945497Y-79603601D01*
X103059487Y-79642733D01*
X103165015Y-79678962D01*
X103165017Y-79678962D01*
X103165019Y-79678963D01*
X103393951Y-79717165D01*
X103393952Y-79717165D01*
X103626048Y-79717165D01*
X103626049Y-79717165D01*
X103854981Y-79678963D01*
X104074503Y-79603601D01*
X104278626Y-79493135D01*
X104461784Y-79350578D01*
X104470130Y-79341511D01*
X104530010Y-79305519D01*
X104599849Y-79307614D01*
X104657468Y-79347134D01*
X104677544Y-79382156D01*
X104706203Y-79458995D01*
X104706206Y-79459000D01*
X104792452Y-79574209D01*
X104792455Y-79574212D01*
X104907664Y-79660458D01*
X104907671Y-79660462D01*
X105042517Y-79710756D01*
X105042516Y-79710756D01*
X105049444Y-79711500D01*
X105102127Y-79717165D01*
X106997872Y-79717164D01*
X107057483Y-79710756D01*
X107192331Y-79660461D01*
X107307546Y-79574211D01*
X107393796Y-79458996D01*
X107444091Y-79324148D01*
X107450500Y-79264538D01*
X107450499Y-77368793D01*
X107444091Y-77309182D01*
X107434233Y-77282752D01*
X107393797Y-77174336D01*
X107393793Y-77174329D01*
X107307547Y-77059120D01*
X107307544Y-77059117D01*
X107192335Y-76972871D01*
X107192328Y-76972867D01*
X107057482Y-76922573D01*
X107057483Y-76922573D01*
X106997883Y-76916166D01*
X106997881Y-76916165D01*
X106997873Y-76916165D01*
X106997864Y-76916165D01*
X105102129Y-76916165D01*
X105102123Y-76916166D01*
X105042516Y-76922573D01*
X104907671Y-76972867D01*
X104907664Y-76972871D01*
X104792455Y-77059117D01*
X104792452Y-77059120D01*
X104706206Y-77174329D01*
X104706203Y-77174335D01*
X104677544Y-77251173D01*
X104635672Y-77307106D01*
X104570208Y-77331523D01*
X104501935Y-77316671D01*
X104470135Y-77291823D01*
X104461784Y-77282752D01*
X104461778Y-77282747D01*
X104461777Y-77282746D01*
X104278634Y-77140200D01*
X104278628Y-77140196D01*
X104074504Y-77029729D01*
X104074495Y-77029726D01*
X103854984Y-76954367D01*
X103664450Y-76922573D01*
X103626049Y-76916165D01*
X103393951Y-76916165D01*
X103355550Y-76922573D01*
X103165015Y-76954367D01*
X102945504Y-77029726D01*
X102945495Y-77029729D01*
X102741371Y-77140196D01*
X102741365Y-77140200D01*
X102558222Y-77282746D01*
X102558219Y-77282749D01*
X102558216Y-77282751D01*
X102558216Y-77282752D01*
X102513319Y-77331523D01*
X102401016Y-77453517D01*
X102274075Y-77647816D01*
X102180842Y-77860364D01*
X102123866Y-78085356D01*
X102123864Y-78085367D01*
X102104700Y-78316658D01*
X102104700Y-78316671D01*
X100115811Y-78316671D01*
X100234035Y-78147830D01*
X100333903Y-77933663D01*
X100395063Y-77705408D01*
X100415659Y-77470000D01*
X100414216Y-77453512D01*
X100406179Y-77361647D01*
X100395063Y-77234592D01*
X100333903Y-77006337D01*
X100234035Y-76792171D01*
X100234032Y-76792166D01*
X100098494Y-76598597D01*
X99931402Y-76431506D01*
X99931396Y-76431501D01*
X99745842Y-76301575D01*
X99702217Y-76246998D01*
X99695023Y-76177500D01*
X99726546Y-76115145D01*
X99745842Y-76098425D01*
X99818977Y-76047215D01*
X99931401Y-75968495D01*
X100098495Y-75801401D01*
X100234035Y-75607830D01*
X100333903Y-75393663D01*
X100395063Y-75165408D01*
X100400844Y-75099338D01*
X102099700Y-75099338D01*
X102118864Y-75330629D01*
X102118866Y-75330640D01*
X102175842Y-75555632D01*
X102269075Y-75768180D01*
X102396016Y-75962479D01*
X102396019Y-75962483D01*
X102396021Y-75962485D01*
X102553216Y-76133245D01*
X102553219Y-76133247D01*
X102553222Y-76133250D01*
X102736365Y-76275796D01*
X102736371Y-76275800D01*
X102736374Y-76275802D01*
X102940497Y-76386268D01*
X103054487Y-76425400D01*
X103160015Y-76461629D01*
X103160017Y-76461629D01*
X103160019Y-76461630D01*
X103388951Y-76499832D01*
X103388952Y-76499832D01*
X103621048Y-76499832D01*
X103621049Y-76499832D01*
X103849981Y-76461630D01*
X104069503Y-76386268D01*
X104273626Y-76275802D01*
X104456784Y-76133245D01*
X104465130Y-76124178D01*
X104525010Y-76088186D01*
X104594849Y-76090281D01*
X104652468Y-76129801D01*
X104672544Y-76164823D01*
X104701203Y-76241662D01*
X104701206Y-76241667D01*
X104787452Y-76356876D01*
X104787455Y-76356879D01*
X104902664Y-76443125D01*
X104902671Y-76443129D01*
X105037517Y-76493423D01*
X105037516Y-76493423D01*
X105044444Y-76494167D01*
X105097127Y-76499832D01*
X106992872Y-76499831D01*
X107052483Y-76493423D01*
X107187331Y-76443128D01*
X107302546Y-76356878D01*
X107388796Y-76241663D01*
X107439091Y-76106815D01*
X107445500Y-76047205D01*
X107445499Y-74151460D01*
X107439091Y-74091849D01*
X107429233Y-74065419D01*
X107388797Y-73957003D01*
X107388793Y-73956996D01*
X107302547Y-73841787D01*
X107302544Y-73841784D01*
X107187335Y-73755538D01*
X107187328Y-73755534D01*
X107052482Y-73705240D01*
X107052483Y-73705240D01*
X106992883Y-73698833D01*
X106992881Y-73698832D01*
X106992873Y-73698832D01*
X106992864Y-73698832D01*
X105097129Y-73698832D01*
X105097123Y-73698833D01*
X105037516Y-73705240D01*
X104902671Y-73755534D01*
X104902664Y-73755538D01*
X104787455Y-73841784D01*
X104787452Y-73841787D01*
X104701206Y-73956996D01*
X104701203Y-73957002D01*
X104672544Y-74033840D01*
X104630672Y-74089773D01*
X104565208Y-74114190D01*
X104496935Y-74099338D01*
X104465135Y-74074490D01*
X104456784Y-74065419D01*
X104456778Y-74065414D01*
X104456777Y-74065413D01*
X104273634Y-73922867D01*
X104273628Y-73922863D01*
X104069504Y-73812396D01*
X104069495Y-73812393D01*
X103849984Y-73737034D01*
X103659450Y-73705240D01*
X103621049Y-73698832D01*
X103388951Y-73698832D01*
X103350550Y-73705240D01*
X103160015Y-73737034D01*
X102940504Y-73812393D01*
X102940495Y-73812396D01*
X102736371Y-73922863D01*
X102736365Y-73922867D01*
X102553222Y-74065413D01*
X102553219Y-74065416D01*
X102553216Y-74065418D01*
X102553216Y-74065419D01*
X102508319Y-74114190D01*
X102396016Y-74236184D01*
X102269075Y-74430483D01*
X102175842Y-74643031D01*
X102118866Y-74868023D01*
X102118864Y-74868034D01*
X102099700Y-75099325D01*
X102099700Y-75099338D01*
X100400844Y-75099338D01*
X100415659Y-74930000D01*
X100395063Y-74694592D01*
X100333903Y-74466337D01*
X100234035Y-74252171D01*
X100228731Y-74244595D01*
X100098494Y-74058597D01*
X99931402Y-73891506D01*
X99931396Y-73891501D01*
X99745842Y-73761575D01*
X99702217Y-73706998D01*
X99695023Y-73637500D01*
X99726546Y-73575145D01*
X99745842Y-73558425D01*
X99892318Y-73455861D01*
X99931401Y-73428495D01*
X100098495Y-73261401D01*
X100234035Y-73067830D01*
X100333903Y-72853663D01*
X100395063Y-72625408D01*
X100415659Y-72390000D01*
X100395063Y-72154592D01*
X100333903Y-71926337D01*
X100313230Y-71882005D01*
X102104700Y-71882005D01*
X102123864Y-72113296D01*
X102123866Y-72113307D01*
X102180842Y-72338299D01*
X102274075Y-72550847D01*
X102401016Y-72745146D01*
X102401019Y-72745150D01*
X102401021Y-72745152D01*
X102558216Y-72915912D01*
X102558219Y-72915914D01*
X102558222Y-72915917D01*
X102741365Y-73058463D01*
X102741371Y-73058467D01*
X102741374Y-73058469D01*
X102945497Y-73168935D01*
X103059487Y-73208067D01*
X103165015Y-73244296D01*
X103165017Y-73244296D01*
X103165019Y-73244297D01*
X103393951Y-73282499D01*
X103393952Y-73282499D01*
X103626048Y-73282499D01*
X103626049Y-73282499D01*
X103854981Y-73244297D01*
X104074503Y-73168935D01*
X104278626Y-73058469D01*
X104322157Y-73024588D01*
X104436923Y-72935262D01*
X104461784Y-72915912D01*
X104470130Y-72906845D01*
X104530010Y-72870853D01*
X104599849Y-72872948D01*
X104657468Y-72912468D01*
X104677544Y-72947490D01*
X104706203Y-73024329D01*
X104706206Y-73024334D01*
X104792452Y-73139543D01*
X104792455Y-73139546D01*
X104907664Y-73225792D01*
X104907671Y-73225796D01*
X105042517Y-73276090D01*
X105042516Y-73276090D01*
X105049444Y-73276834D01*
X105102127Y-73282499D01*
X106997872Y-73282498D01*
X107057483Y-73276090D01*
X107192331Y-73225795D01*
X107307546Y-73139545D01*
X107393796Y-73024330D01*
X107444091Y-72889482D01*
X107450500Y-72829872D01*
X107450499Y-70934127D01*
X107444091Y-70874516D01*
X107434233Y-70848086D01*
X107393797Y-70739670D01*
X107393793Y-70739663D01*
X107307547Y-70624454D01*
X107307544Y-70624451D01*
X107192335Y-70538205D01*
X107192328Y-70538201D01*
X107057482Y-70487907D01*
X107057483Y-70487907D01*
X106997883Y-70481500D01*
X106997881Y-70481499D01*
X106997873Y-70481499D01*
X106997864Y-70481499D01*
X105102129Y-70481499D01*
X105102123Y-70481500D01*
X105042516Y-70487907D01*
X104907671Y-70538201D01*
X104907664Y-70538205D01*
X104792455Y-70624451D01*
X104792452Y-70624454D01*
X104706206Y-70739663D01*
X104706203Y-70739669D01*
X104677544Y-70816507D01*
X104635672Y-70872440D01*
X104570208Y-70896857D01*
X104501935Y-70882005D01*
X104470135Y-70857157D01*
X104461784Y-70848086D01*
X104461778Y-70848081D01*
X104461777Y-70848080D01*
X104278634Y-70705534D01*
X104278628Y-70705530D01*
X104074504Y-70595063D01*
X104074495Y-70595060D01*
X103854984Y-70519701D01*
X103644560Y-70484588D01*
X103626049Y-70481499D01*
X103393951Y-70481499D01*
X103375440Y-70484588D01*
X103165015Y-70519701D01*
X102945504Y-70595060D01*
X102945495Y-70595063D01*
X102741371Y-70705530D01*
X102741365Y-70705534D01*
X102558222Y-70848080D01*
X102558219Y-70848083D01*
X102558216Y-70848085D01*
X102558216Y-70848086D01*
X102521376Y-70888105D01*
X102401016Y-71018851D01*
X102274075Y-71213150D01*
X102180842Y-71425698D01*
X102123866Y-71650690D01*
X102123864Y-71650701D01*
X102104700Y-71881992D01*
X102104700Y-71882005D01*
X100313230Y-71882005D01*
X100234035Y-71712171D01*
X100228731Y-71704595D01*
X100098494Y-71518597D01*
X99931402Y-71351506D01*
X99931396Y-71351501D01*
X99745842Y-71221575D01*
X99702217Y-71166998D01*
X99695023Y-71097500D01*
X99726546Y-71035145D01*
X99745842Y-71018425D01*
X99866230Y-70934128D01*
X99931401Y-70888495D01*
X100098495Y-70721401D01*
X100234035Y-70527830D01*
X100333903Y-70313663D01*
X100395063Y-70085408D01*
X100415659Y-69850000D01*
X100414883Y-69841136D01*
X100405174Y-69730157D01*
X100395063Y-69614592D01*
X100333903Y-69386337D01*
X100234035Y-69172171D01*
X100228731Y-69164595D01*
X100098494Y-68978597D01*
X99931402Y-68811506D01*
X99931396Y-68811501D01*
X99745842Y-68681575D01*
X99732331Y-68664672D01*
X102099700Y-68664672D01*
X102118864Y-68895963D01*
X102118866Y-68895974D01*
X102175842Y-69120966D01*
X102269075Y-69333514D01*
X102396016Y-69527813D01*
X102396019Y-69527817D01*
X102396021Y-69527819D01*
X102553216Y-69698579D01*
X102553219Y-69698581D01*
X102553222Y-69698584D01*
X102736365Y-69841130D01*
X102736371Y-69841134D01*
X102736374Y-69841136D01*
X102940497Y-69951602D01*
X103054487Y-69990734D01*
X103160015Y-70026963D01*
X103160017Y-70026963D01*
X103160019Y-70026964D01*
X103388951Y-70065166D01*
X103388952Y-70065166D01*
X103621048Y-70065166D01*
X103621049Y-70065166D01*
X103849981Y-70026964D01*
X104069503Y-69951602D01*
X104273626Y-69841136D01*
X104456784Y-69698579D01*
X104465130Y-69689512D01*
X104525010Y-69653520D01*
X104594849Y-69655615D01*
X104652468Y-69695135D01*
X104672544Y-69730157D01*
X104701203Y-69806996D01*
X104701206Y-69807001D01*
X104787452Y-69922210D01*
X104787455Y-69922213D01*
X104902664Y-70008459D01*
X104902671Y-70008463D01*
X105037517Y-70058757D01*
X105037516Y-70058757D01*
X105044444Y-70059501D01*
X105097127Y-70065166D01*
X106992872Y-70065165D01*
X107052483Y-70058757D01*
X107187331Y-70008462D01*
X107302546Y-69922212D01*
X107388796Y-69806997D01*
X107439091Y-69672149D01*
X107445500Y-69612539D01*
X107445499Y-67716794D01*
X107439091Y-67657183D01*
X107429233Y-67630753D01*
X107388797Y-67522337D01*
X107388793Y-67522330D01*
X107302547Y-67407121D01*
X107302544Y-67407118D01*
X107187335Y-67320872D01*
X107187328Y-67320868D01*
X107052482Y-67270574D01*
X107052483Y-67270574D01*
X106992883Y-67264167D01*
X106992881Y-67264166D01*
X106992873Y-67264166D01*
X106992864Y-67264166D01*
X105097129Y-67264166D01*
X105097123Y-67264167D01*
X105037516Y-67270574D01*
X104902671Y-67320868D01*
X104902664Y-67320872D01*
X104787455Y-67407118D01*
X104787452Y-67407121D01*
X104701206Y-67522330D01*
X104701203Y-67522336D01*
X104672544Y-67599174D01*
X104630672Y-67655107D01*
X104565208Y-67679524D01*
X104496935Y-67664672D01*
X104465135Y-67639824D01*
X104456784Y-67630753D01*
X104456778Y-67630748D01*
X104456777Y-67630747D01*
X104273634Y-67488201D01*
X104273628Y-67488197D01*
X104069504Y-67377730D01*
X104069495Y-67377727D01*
X103849984Y-67302368D01*
X103659450Y-67270574D01*
X103621049Y-67264166D01*
X103388951Y-67264166D01*
X103350550Y-67270574D01*
X103160015Y-67302368D01*
X102940504Y-67377727D01*
X102940495Y-67377730D01*
X102736371Y-67488197D01*
X102736365Y-67488201D01*
X102553222Y-67630747D01*
X102553219Y-67630750D01*
X102553216Y-67630752D01*
X102553216Y-67630753D01*
X102512443Y-67675045D01*
X102396016Y-67801518D01*
X102269075Y-67995817D01*
X102175842Y-68208365D01*
X102118866Y-68433357D01*
X102118864Y-68433368D01*
X102099700Y-68664659D01*
X102099700Y-68664672D01*
X99732331Y-68664672D01*
X99702217Y-68626998D01*
X99695023Y-68557500D01*
X99726546Y-68495145D01*
X99745842Y-68478425D01*
X99810200Y-68433361D01*
X99931401Y-68348495D01*
X100098495Y-68181401D01*
X100234035Y-67987830D01*
X100333903Y-67773663D01*
X100395063Y-67545408D01*
X100415659Y-67310000D01*
X100395063Y-67074592D01*
X100333903Y-66846337D01*
X100234035Y-66632171D01*
X100228731Y-66624595D01*
X100098494Y-66438597D01*
X99931402Y-66271506D01*
X99931396Y-66271501D01*
X99745842Y-66141575D01*
X99702217Y-66086998D01*
X99695023Y-66017500D01*
X99726546Y-65955145D01*
X99745842Y-65938425D01*
X99892318Y-65835861D01*
X99931401Y-65808495D01*
X100098495Y-65641401D01*
X100234035Y-65447830D01*
X100234264Y-65447339D01*
X102099700Y-65447339D01*
X102118864Y-65678630D01*
X102118866Y-65678641D01*
X102175842Y-65903633D01*
X102269075Y-66116181D01*
X102396016Y-66310480D01*
X102396019Y-66310484D01*
X102396021Y-66310486D01*
X102553216Y-66481246D01*
X102553219Y-66481248D01*
X102553222Y-66481251D01*
X102736365Y-66623797D01*
X102736371Y-66623801D01*
X102736374Y-66623803D01*
X102940497Y-66734269D01*
X103054487Y-66773401D01*
X103160015Y-66809630D01*
X103160017Y-66809630D01*
X103160019Y-66809631D01*
X103388951Y-66847833D01*
X103388952Y-66847833D01*
X103621048Y-66847833D01*
X103621049Y-66847833D01*
X103849981Y-66809631D01*
X104069503Y-66734269D01*
X104273626Y-66623803D01*
X104456784Y-66481246D01*
X104465130Y-66472179D01*
X104525010Y-66436187D01*
X104594849Y-66438282D01*
X104652468Y-66477802D01*
X104672544Y-66512824D01*
X104701203Y-66589663D01*
X104701206Y-66589668D01*
X104787452Y-66704877D01*
X104787455Y-66704880D01*
X104902664Y-66791126D01*
X104902671Y-66791130D01*
X105037517Y-66841424D01*
X105037516Y-66841424D01*
X105044444Y-66842168D01*
X105097127Y-66847833D01*
X106992872Y-66847832D01*
X107052483Y-66841424D01*
X107187331Y-66791129D01*
X107302546Y-66704879D01*
X107388796Y-66589664D01*
X107439091Y-66454816D01*
X107445500Y-66395206D01*
X107445499Y-64499461D01*
X107439091Y-64439850D01*
X107438849Y-64439202D01*
X107388797Y-64305004D01*
X107388793Y-64304997D01*
X107302547Y-64189788D01*
X107302544Y-64189785D01*
X107187335Y-64103539D01*
X107187328Y-64103535D01*
X107052482Y-64053241D01*
X107052483Y-64053241D01*
X106992883Y-64046834D01*
X106992881Y-64046833D01*
X106992873Y-64046833D01*
X106992864Y-64046833D01*
X105097129Y-64046833D01*
X105097123Y-64046834D01*
X105037516Y-64053241D01*
X104902671Y-64103535D01*
X104902664Y-64103539D01*
X104787455Y-64189785D01*
X104787452Y-64189788D01*
X104701206Y-64304997D01*
X104701203Y-64305003D01*
X104672544Y-64381841D01*
X104630672Y-64437774D01*
X104565208Y-64462191D01*
X104496935Y-64447339D01*
X104465135Y-64422491D01*
X104456784Y-64413420D01*
X104456778Y-64413415D01*
X104456777Y-64413414D01*
X104273634Y-64270868D01*
X104273628Y-64270864D01*
X104069504Y-64160397D01*
X104069495Y-64160394D01*
X103849984Y-64085035D01*
X103659450Y-64053241D01*
X103621049Y-64046833D01*
X103388951Y-64046833D01*
X103350550Y-64053241D01*
X103160015Y-64085035D01*
X102940504Y-64160394D01*
X102940495Y-64160397D01*
X102736371Y-64270864D01*
X102736365Y-64270868D01*
X102553222Y-64413414D01*
X102553219Y-64413417D01*
X102553216Y-64413419D01*
X102553216Y-64413420D01*
X102508319Y-64462191D01*
X102396016Y-64584185D01*
X102269075Y-64778484D01*
X102175842Y-64991032D01*
X102118866Y-65216024D01*
X102118864Y-65216035D01*
X102099700Y-65447326D01*
X102099700Y-65447339D01*
X100234264Y-65447339D01*
X100333903Y-65233663D01*
X100395063Y-65005408D01*
X100415659Y-64770000D01*
X100395063Y-64534592D01*
X100333903Y-64306337D01*
X100234035Y-64092171D01*
X100229039Y-64085035D01*
X100098494Y-63898597D01*
X99931402Y-63731506D01*
X99931396Y-63731501D01*
X99745842Y-63601575D01*
X99702217Y-63546998D01*
X99695023Y-63477500D01*
X99726546Y-63415145D01*
X99745842Y-63398425D01*
X99892318Y-63295861D01*
X99931401Y-63268495D01*
X100098495Y-63101401D01*
X100234035Y-62907830D01*
X100333903Y-62693663D01*
X100395063Y-62465408D01*
X100415659Y-62230000D01*
X100395063Y-61994592D01*
X100333903Y-61766337D01*
X100234035Y-61552171D01*
X100104271Y-61366847D01*
X100098494Y-61358597D01*
X99931402Y-61191506D01*
X99931395Y-61191501D01*
X99737834Y-61055967D01*
X99737830Y-61055965D01*
X99666727Y-61022809D01*
X99523663Y-60956097D01*
X99523659Y-60956096D01*
X99523655Y-60956094D01*
X99295413Y-60894938D01*
X99295403Y-60894936D01*
X99060001Y-60874341D01*
X99059999Y-60874341D01*
X98824596Y-60894936D01*
X98824586Y-60894938D01*
X98596344Y-60956094D01*
X98596335Y-60956098D01*
X98382171Y-61055964D01*
X98382169Y-61055965D01*
X98188600Y-61191503D01*
X98066284Y-61313819D01*
X98004961Y-61347303D01*
X97935269Y-61342319D01*
X97879336Y-61300447D01*
X97862421Y-61269470D01*
X97813354Y-61137913D01*
X97813350Y-61137906D01*
X97727190Y-61022812D01*
X97727187Y-61022809D01*
X97612093Y-60936649D01*
X97612086Y-60936645D01*
X97477379Y-60886403D01*
X97477372Y-60886401D01*
X97417844Y-60880000D01*
X96770000Y-60880000D01*
X96770000Y-61617698D01*
X96750315Y-61684737D01*
X96697511Y-61730492D01*
X96628355Y-61740436D01*
X96555766Y-61730000D01*
X96555763Y-61730000D01*
X96484237Y-61730000D01*
X96484233Y-61730000D01*
X96411645Y-61740436D01*
X96342487Y-61730492D01*
X96289684Y-61684736D01*
X96270000Y-61617698D01*
X96270000Y-60880000D01*
X95622155Y-60880000D01*
X95562627Y-60886401D01*
X95562620Y-60886403D01*
X95427913Y-60936645D01*
X95427906Y-60936649D01*
X95312812Y-61022809D01*
X95312809Y-61022812D01*
X95226649Y-61137906D01*
X95226645Y-61137913D01*
X95176403Y-61272620D01*
X95176401Y-61272627D01*
X95170000Y-61332155D01*
X95170000Y-61332172D01*
X95169999Y-61979999D01*
X94915500Y-61979999D01*
X94915500Y-60749500D01*
X94935185Y-60682461D01*
X94987989Y-60636706D01*
X95039500Y-60625500D01*
X103122437Y-60625500D01*
X103189476Y-60645185D01*
G37*
%TD.AperFunction*%
%TD*%
M02*
