M48
; DRILL file {KiCad 7.0.7} date Sat Sep 16 00:08:44 2023
; FORMAT={-:-/ absolute / inch / decimal}
; #@! TF.CreationDate,2023-09-16T00:08:44-05:00
; #@! TF.GenerationSoftware,Kicad,Pcbnew,7.0.7
; #@! TF.FileFunction,MixedPlating,1,2
FMAT,2
INCH
; #@! TA.AperFunction,Plated,PTH,ViaDrill
T1C0.0157
; #@! TA.AperFunction,Plated,PTH,ComponentDrill
T2C0.0394
%
G90
G05
T1
X7.6Y-2.445
X7.635Y-2.615
X7.735Y-2.585
T2
X5.35Y-2.395
X5.35Y-2.495
X5.45Y-2.395
X5.45Y-2.495
X5.55Y-2.395
X5.55Y-2.495
X5.65Y-2.395
X5.65Y-2.495
X5.75Y-2.395
X5.75Y-2.495
X5.75Y-2.71
X5.75Y-2.81
X5.85Y-2.395
X5.85Y-2.495
X5.85Y-2.71
X5.85Y-2.81
X5.95Y-2.395
X5.95Y-2.495
X5.95Y-2.71
X5.95Y-2.81
X6.05Y-2.395
X6.05Y-2.495
X6.05Y-2.71
X6.05Y-2.81
X6.15Y-2.395
X6.15Y-2.495
X6.15Y-2.71
X6.15Y-2.81
X6.25Y-2.395
X6.25Y-2.495
X6.25Y-2.71
X6.25Y-2.81
X6.35Y-2.395
X6.35Y-2.495
X6.35Y-2.71
X6.35Y-2.81
X6.45Y-2.395
X6.45Y-2.495
X6.45Y-2.71
X6.45Y-2.81
X6.55Y-2.395
X6.55Y-2.495
X6.55Y-2.71
X6.55Y-2.81
X6.65Y-2.395
X6.65Y-2.495
X6.65Y-2.71
X6.65Y-2.81
X6.75Y-2.395
X6.75Y-2.495
X6.75Y-2.71
X6.75Y-2.81
X6.85Y-2.395
X6.85Y-2.495
X6.85Y-2.71
X6.85Y-2.81
X6.95Y-2.395
X6.95Y-2.495
X6.95Y-2.71
X6.95Y-2.81
X7.05Y-2.395
X7.05Y-2.495
X7.05Y-2.71
X7.05Y-2.81
X7.15Y-2.395
X7.15Y-2.495
X7.15Y-2.71
X7.15Y-2.81
X7.25Y-2.395
X7.25Y-2.495
X7.25Y-2.71
X7.25Y-2.81
X7.35Y-2.395
X7.35Y-2.495
X7.35Y-2.71
X7.35Y-2.81
X7.45Y-2.395
X7.45Y-2.495
X7.55Y-2.395
X7.55Y-2.495
X7.65Y-2.395
X7.65Y-2.495
X7.75Y-2.395
X7.75Y-2.495
T0
M30
