%TF.GenerationSoftware,KiCad,Pcbnew,7.0.7*%
%TF.CreationDate,2023-09-16T00:08:42-05:00*%
%TF.ProjectId,50-to-34-pin-floppy-adapter,35302d74-6f2d-4333-942d-70696e2d666c,rev?*%
%TF.SameCoordinates,Original*%
%TF.FileFunction,Copper,L1,Top*%
%TF.FilePolarity,Positive*%
%FSLAX46Y46*%
G04 Gerber Fmt 4.6, Leading zero omitted, Abs format (unit mm)*
G04 Created by KiCad (PCBNEW 7.0.7) date 2023-09-16 00:08:42*
%MOMM*%
%LPD*%
G01*
G04 APERTURE LIST*
G04 Aperture macros list*
%AMRoundRect*
0 Rectangle with rounded corners*
0 $1 Rounding radius*
0 $2 $3 $4 $5 $6 $7 $8 $9 X,Y pos of 4 corners*
0 Add a 4 corners polygon primitive as box body*
4,1,4,$2,$3,$4,$5,$6,$7,$8,$9,$2,$3,0*
0 Add four circle primitives for the rounded corners*
1,1,$1+$1,$2,$3*
1,1,$1+$1,$4,$5*
1,1,$1+$1,$6,$7*
1,1,$1+$1,$8,$9*
0 Add four rect primitives between the rounded corners*
20,1,$1+$1,$2,$3,$4,$5,0*
20,1,$1+$1,$4,$5,$6,$7,0*
20,1,$1+$1,$6,$7,$8,$9,0*
20,1,$1+$1,$8,$9,$2,$3,0*%
G04 Aperture macros list end*
%TA.AperFunction,ComponentPad*%
%ADD10RoundRect,0.250000X0.600000X-0.600000X0.600000X0.600000X-0.600000X0.600000X-0.600000X-0.600000X0*%
%TD*%
%TA.AperFunction,ComponentPad*%
%ADD11C,1.700000*%
%TD*%
%TA.AperFunction,ComponentPad*%
%ADD12R,1.700000X1.700000*%
%TD*%
%TA.AperFunction,ComponentPad*%
%ADD13O,1.700000X1.700000*%
%TD*%
%TA.AperFunction,ViaPad*%
%ADD14C,0.800000*%
%TD*%
%TA.AperFunction,Conductor*%
%ADD15C,0.250000*%
%TD*%
G04 APERTURE END LIST*
D10*
%TO.P,J2,1,Pin_1*%
%TO.N,GND*%
X146050000Y-71374000D03*
D11*
%TO.P,J2,2,Pin_2*%
%TO.N,Net-(J2-Pin_2)*%
X146050000Y-68834000D03*
%TO.P,J2,3,Pin_3*%
%TO.N,GND*%
X148590000Y-71374000D03*
%TO.P,J2,4,Pin_4*%
%TO.N,unconnected-(J2-Pin_4-Pad4)*%
X148590000Y-68834000D03*
%TO.P,J2,5,Pin_5*%
%TO.N,GND*%
X151130000Y-71374000D03*
%TO.P,J2,6,Pin_6*%
%TO.N,Net-(J1-Pin_32)*%
X151130000Y-68834000D03*
%TO.P,J2,7,Pin_7*%
%TO.N,GND*%
X153670000Y-71374000D03*
%TO.P,J2,8,Pin_8*%
%TO.N,Net-(J1-Pin_20)*%
X153670000Y-68834000D03*
%TO.P,J2,9,Pin_9*%
%TO.N,GND*%
X156210000Y-71374000D03*
%TO.P,J2,10,Pin_10*%
%TO.N,Net-(J1-Pin_26)*%
X156210000Y-68834000D03*
%TO.P,J2,11,Pin_11*%
%TO.N,GND*%
X158750000Y-71374000D03*
%TO.P,J2,12,Pin_12*%
%TO.N,Net-(J1-Pin_28)*%
X158750000Y-68834000D03*
%TO.P,J2,13,Pin_13*%
%TO.N,GND*%
X161290000Y-71374000D03*
%TO.P,J2,14,Pin_14*%
%TO.N,Net-(J1-Pin_30)*%
X161290000Y-68834000D03*
%TO.P,J2,15,Pin_15*%
%TO.N,GND*%
X163830000Y-71374000D03*
%TO.P,J2,16,Pin_16*%
%TO.N,Net-(J2-Pin_16)*%
X163830000Y-68834000D03*
%TO.P,J2,17,Pin_17*%
%TO.N,GND*%
X166370000Y-71374000D03*
%TO.P,J2,18,Pin_18*%
%TO.N,Net-(J1-Pin_34)*%
X166370000Y-68834000D03*
%TO.P,J2,19,Pin_19*%
%TO.N,GND*%
X168910000Y-71374000D03*
%TO.P,J2,20,Pin_20*%
%TO.N,Net-(J1-Pin_36)*%
X168910000Y-68834000D03*
%TO.P,J2,21,Pin_21*%
%TO.N,GND*%
X171450000Y-71374000D03*
%TO.P,J2,22,Pin_22*%
%TO.N,Net-(J1-Pin_38)*%
X171450000Y-68834000D03*
%TO.P,J2,23,Pin_23*%
%TO.N,GND*%
X173990000Y-71374000D03*
%TO.P,J2,24,Pin_24*%
%TO.N,Net-(J1-Pin_40)*%
X173990000Y-68834000D03*
%TO.P,J2,25,Pin_25*%
%TO.N,GND*%
X176530000Y-71374000D03*
%TO.P,J2,26,Pin_26*%
%TO.N,Net-(J1-Pin_42)*%
X176530000Y-68834000D03*
%TO.P,J2,27,Pin_27*%
%TO.N,GND*%
X179070000Y-71374000D03*
%TO.P,J2,28,Pin_28*%
%TO.N,Net-(J1-Pin_44)*%
X179070000Y-68834000D03*
%TO.P,J2,29,Pin_29*%
%TO.N,GND*%
X181610000Y-71374000D03*
%TO.P,J2,30,Pin_30*%
%TO.N,Net-(J1-Pin_46)*%
X181610000Y-68834000D03*
%TO.P,J2,31,Pin_31*%
%TO.N,GND*%
X184150000Y-71374000D03*
%TO.P,J2,32,Pin_32*%
%TO.N,Net-(J1-Pin_14)*%
X184150000Y-68834000D03*
%TO.P,J2,33,Pin_33*%
%TO.N,GND*%
X186690000Y-71374000D03*
%TO.P,J2,34,Pin_34*%
%TO.N,Net-(J1-Pin_22)*%
X186690000Y-68834000D03*
%TD*%
D12*
%TO.P,J1,1,Pin_1*%
%TO.N,GND*%
X135890000Y-63373000D03*
D13*
%TO.P,J1,2,Pin_2*%
%TO.N,Net-(J1-Pin_2)*%
X135890000Y-60833000D03*
%TO.P,J1,3,Pin_3*%
%TO.N,GND*%
X138430000Y-63373000D03*
%TO.P,J1,4,Pin_4*%
%TO.N,unconnected-(J1-Pin_4-Pad4)*%
X138430000Y-60833000D03*
%TO.P,J1,5,Pin_5*%
%TO.N,GND*%
X140970000Y-63373000D03*
%TO.P,J1,6,Pin_6*%
%TO.N,unconnected-(J1-Pin_6-Pad6)*%
X140970000Y-60833000D03*
%TO.P,J1,7,Pin_7*%
%TO.N,GND*%
X143510000Y-63373000D03*
%TO.P,J1,8,Pin_8*%
%TO.N,unconnected-(J1-Pin_8-Pad8)*%
X143510000Y-60833000D03*
%TO.P,J1,9,Pin_9*%
%TO.N,GND*%
X146050000Y-63373000D03*
%TO.P,J1,10,Pin_10*%
%TO.N,Net-(J1-Pin_10)*%
X146050000Y-60833000D03*
%TO.P,J1,11,Pin_11*%
%TO.N,GND*%
X148590000Y-63373000D03*
%TO.P,J1,12,Pin_12*%
%TO.N,unconnected-(J1-Pin_12-Pad12)*%
X148590000Y-60833000D03*
%TO.P,J1,13,Pin_13*%
%TO.N,GND*%
X151130000Y-63373000D03*
%TO.P,J1,14,Pin_14*%
%TO.N,Net-(J1-Pin_14)*%
X151130000Y-60833000D03*
%TO.P,J1,15,Pin_15*%
%TO.N,GND*%
X153670000Y-63373000D03*
%TO.P,J1,16,Pin_16*%
%TO.N,Net-(J1-Pin_16)*%
X153670000Y-60833000D03*
%TO.P,J1,17,Pin_17*%
%TO.N,GND*%
X156210000Y-63373000D03*
%TO.P,J1,18,Pin_18*%
%TO.N,Net-(J1-Pin_18)*%
X156210000Y-60833000D03*
%TO.P,J1,19,Pin_19*%
%TO.N,GND*%
X158750000Y-63373000D03*
%TO.P,J1,20,Pin_20*%
%TO.N,Net-(J1-Pin_20)*%
X158750000Y-60833000D03*
%TO.P,J1,21,Pin_21*%
%TO.N,GND*%
X161290000Y-63373000D03*
%TO.P,J1,22,Pin_22*%
%TO.N,Net-(J1-Pin_22)*%
X161290000Y-60833000D03*
%TO.P,J1,23,Pin_23*%
%TO.N,GND*%
X163830000Y-63373000D03*
%TO.P,J1,24,Pin_24*%
%TO.N,unconnected-(J1-Pin_24-Pad24)*%
X163830000Y-60833000D03*
%TO.P,J1,25,Pin_25*%
%TO.N,GND*%
X166370000Y-63373000D03*
%TO.P,J1,26,Pin_26*%
%TO.N,Net-(J1-Pin_26)*%
X166370000Y-60833000D03*
%TO.P,J1,27,Pin_27*%
%TO.N,GND*%
X168910000Y-63373000D03*
%TO.P,J1,28,Pin_28*%
%TO.N,Net-(J1-Pin_28)*%
X168910000Y-60833000D03*
%TO.P,J1,29,Pin_29*%
%TO.N,GND*%
X171450000Y-63373000D03*
%TO.P,J1,30,Pin_30*%
%TO.N,Net-(J1-Pin_30)*%
X171450000Y-60833000D03*
%TO.P,J1,31,Pin_31*%
%TO.N,GND*%
X173990000Y-63373000D03*
%TO.P,J1,32,Pin_32*%
%TO.N,Net-(J1-Pin_32)*%
X173990000Y-60833000D03*
%TO.P,J1,33,Pin_33*%
%TO.N,GND*%
X176530000Y-63373000D03*
%TO.P,J1,34,Pin_34*%
%TO.N,Net-(J1-Pin_34)*%
X176530000Y-60833000D03*
%TO.P,J1,35,Pin_35*%
%TO.N,GND*%
X179070000Y-63373000D03*
%TO.P,J1,36,Pin_36*%
%TO.N,Net-(J1-Pin_36)*%
X179070000Y-60833000D03*
%TO.P,J1,37,Pin_37*%
%TO.N,GND*%
X181610000Y-63373000D03*
%TO.P,J1,38,Pin_38*%
%TO.N,Net-(J1-Pin_38)*%
X181610000Y-60833000D03*
%TO.P,J1,39,Pin_39*%
%TO.N,GND*%
X184150000Y-63373000D03*
%TO.P,J1,40,Pin_40*%
%TO.N,Net-(J1-Pin_40)*%
X184150000Y-60833000D03*
%TO.P,J1,41,Pin_41*%
%TO.N,GND*%
X186690000Y-63373000D03*
%TO.P,J1,42,Pin_42*%
%TO.N,Net-(J1-Pin_42)*%
X186690000Y-60833000D03*
%TO.P,J1,43,Pin_43*%
%TO.N,GND*%
X189230000Y-63373000D03*
%TO.P,J1,44,Pin_44*%
%TO.N,Net-(J1-Pin_44)*%
X189230000Y-60833000D03*
%TO.P,J1,45,Pin_45*%
%TO.N,GND*%
X191770000Y-63373000D03*
%TO.P,J1,46,Pin_46*%
%TO.N,Net-(J1-Pin_46)*%
X191770000Y-60833000D03*
%TO.P,J1,47,Pin_47*%
%TO.N,GND*%
X194310000Y-63373000D03*
%TO.P,J1,48,Pin_48*%
%TO.N,unconnected-(J1-Pin_48-Pad48)*%
X194310000Y-60833000D03*
%TO.P,J1,49,Pin_49*%
%TO.N,GND*%
X196850000Y-63373000D03*
%TO.P,J1,50,Pin_50*%
%TO.N,unconnected-(J1-Pin_50-Pad50)*%
X196850000Y-60833000D03*
%TD*%
D14*
%TO.N,Net-(J1-Pin_16)*%
X193929000Y-66421000D03*
%TO.N,Net-(J1-Pin_18)*%
X196469000Y-65659000D03*
%TO.N,Net-(J1-Pin_22)*%
X193040000Y-62103000D03*
%TD*%
D15*
%TO.N,Net-(J1-Pin_14)*%
X149860000Y-62103000D02*
X149860000Y-64008000D01*
X149860000Y-64008000D02*
X153162000Y-67310000D01*
X153162000Y-67310000D02*
X182626000Y-67310000D01*
X151130000Y-60833000D02*
X149860000Y-62103000D01*
X182626000Y-67310000D02*
X184150000Y-68834000D01*
%TO.N,Net-(J1-Pin_16)*%
X193548000Y-66802000D02*
X193929000Y-66421000D01*
X152400000Y-62103000D02*
X152400000Y-64008000D01*
X155194000Y-66802000D02*
X193548000Y-66802000D01*
X152400000Y-64008000D02*
X155194000Y-66802000D01*
X153670000Y-60833000D02*
X152400000Y-62103000D01*
%TO.N,Net-(J1-Pin_18)*%
X154940000Y-62103000D02*
X154940000Y-64008000D01*
X154940000Y-64008000D02*
X157226000Y-66294000D01*
X193548000Y-65659000D02*
X196469000Y-65659000D01*
X192913000Y-66294000D02*
X193548000Y-65659000D01*
X156210000Y-60833000D02*
X154940000Y-62103000D01*
X157226000Y-66294000D02*
X192913000Y-66294000D01*
%TO.N,Net-(J1-Pin_22)*%
X162560000Y-62103000D02*
X163703000Y-62103000D01*
X163703000Y-62103000D02*
X193040000Y-62103000D01*
X161290000Y-60833000D02*
X162560000Y-62103000D01*
%TD*%
%TA.AperFunction,Conductor*%
%TO.N,Net-(J1-Pin_18)*%
G36*
X196320418Y-65300273D02*
G01*
X196320696Y-65300888D01*
X196468123Y-65654498D01*
X196468144Y-65663452D01*
X196468123Y-65663502D01*
X196320696Y-66017111D01*
X196314349Y-66023429D01*
X196305395Y-66023408D01*
X196304789Y-66023134D01*
X196159420Y-65952427D01*
X196158924Y-65952156D01*
X196049784Y-65885301D01*
X195954093Y-65831969D01*
X195954088Y-65831967D01*
X195838402Y-65796729D01*
X195838396Y-65796728D01*
X195679823Y-65784813D01*
X195671830Y-65780776D01*
X195669000Y-65773146D01*
X195669000Y-65544853D01*
X195672427Y-65536580D01*
X195679821Y-65533186D01*
X195838398Y-65521270D01*
X195838400Y-65521269D01*
X195838402Y-65521269D01*
X195954088Y-65486031D01*
X195954089Y-65486030D01*
X195954094Y-65486029D01*
X196049784Y-65432697D01*
X196158933Y-65365836D01*
X196159416Y-65365572D01*
X196304781Y-65294868D01*
X196313718Y-65294332D01*
X196320418Y-65300273D01*
G37*
%TD.AperFunction*%
%TD*%
%TA.AperFunction,Conductor*%
%TO.N,Net-(J1-Pin_22)*%
G36*
X192891418Y-61744273D02*
G01*
X192891696Y-61744888D01*
X193039123Y-62098497D01*
X193039144Y-62107451D01*
X193039123Y-62107501D01*
X192891696Y-62461111D01*
X192885349Y-62467429D01*
X192876395Y-62467408D01*
X192875789Y-62467134D01*
X192730420Y-62396427D01*
X192729924Y-62396156D01*
X192620784Y-62329301D01*
X192525093Y-62275969D01*
X192525088Y-62275967D01*
X192409402Y-62240729D01*
X192409396Y-62240728D01*
X192250823Y-62228813D01*
X192242830Y-62224776D01*
X192240000Y-62217146D01*
X192240000Y-61988853D01*
X192243427Y-61980580D01*
X192250821Y-61977186D01*
X192409398Y-61965270D01*
X192409400Y-61965269D01*
X192409402Y-61965269D01*
X192525088Y-61930031D01*
X192525089Y-61930030D01*
X192525094Y-61930029D01*
X192620784Y-61876697D01*
X192729933Y-61809836D01*
X192730416Y-61809572D01*
X192875781Y-61738868D01*
X192884718Y-61738332D01*
X192891418Y-61744273D01*
G37*
%TD.AperFunction*%
%TD*%
%TA.AperFunction,Conductor*%
%TO.N,Net-(J1-Pin_14)*%
G36*
X150356577Y-60512622D02*
G01*
X151126215Y-60830438D01*
X151132552Y-60836761D01*
X151132562Y-60836785D01*
X151450372Y-61606410D01*
X151450363Y-61615365D01*
X151444024Y-61621690D01*
X151442984Y-61622063D01*
X151087835Y-61730829D01*
X151085855Y-61731252D01*
X150799709Y-61766891D01*
X150552870Y-61796756D01*
X150552861Y-61796758D01*
X150305379Y-61891893D01*
X150024485Y-62116918D01*
X150015886Y-62119416D01*
X150008897Y-62116060D01*
X149846939Y-61954102D01*
X149843512Y-61945829D01*
X149846080Y-61938516D01*
X150071104Y-61657619D01*
X150166241Y-61410135D01*
X150196107Y-61163289D01*
X150231745Y-60877139D01*
X150232168Y-60875163D01*
X150245298Y-60832293D01*
X150340936Y-60520014D01*
X150346635Y-60513108D01*
X150355549Y-60512254D01*
X150356577Y-60512622D01*
G37*
%TD.AperFunction*%
%TD*%
%TA.AperFunction,Conductor*%
%TO.N,Net-(J1-Pin_14)*%
G36*
X183044484Y-67550080D02*
G01*
X183325379Y-67775104D01*
X183572863Y-67870241D01*
X183572868Y-67870241D01*
X183572870Y-67870242D01*
X183819708Y-67900106D01*
X183819709Y-67900107D01*
X184105857Y-67935745D01*
X184107835Y-67936168D01*
X184462984Y-68044936D01*
X184469891Y-68050635D01*
X184470745Y-68059549D01*
X184470372Y-68060589D01*
X184152562Y-68830214D01*
X184146237Y-68836553D01*
X184146214Y-68836562D01*
X183376589Y-69154372D01*
X183367634Y-69154363D01*
X183361309Y-69148024D01*
X183360936Y-69146984D01*
X183252168Y-68791835D01*
X183251745Y-68789855D01*
X183216107Y-68503709D01*
X183186242Y-68256870D01*
X183186241Y-68256868D01*
X183186241Y-68256863D01*
X183091104Y-68009379D01*
X182866080Y-67728484D01*
X182863583Y-67719886D01*
X182866938Y-67712898D01*
X183028898Y-67550938D01*
X183037170Y-67547512D01*
X183044484Y-67550080D01*
G37*
%TD.AperFunction*%
%TD*%
%TA.AperFunction,Conductor*%
%TO.N,Net-(J1-Pin_16)*%
G36*
X152896577Y-60512622D02*
G01*
X153666215Y-60830438D01*
X153672552Y-60836761D01*
X153672562Y-60836785D01*
X153990372Y-61606410D01*
X153990363Y-61615365D01*
X153984024Y-61621690D01*
X153982984Y-61622063D01*
X153627835Y-61730829D01*
X153625855Y-61731252D01*
X153339709Y-61766891D01*
X153092870Y-61796756D01*
X153092861Y-61796758D01*
X152845379Y-61891893D01*
X152564485Y-62116918D01*
X152555886Y-62119416D01*
X152548897Y-62116060D01*
X152386939Y-61954102D01*
X152383512Y-61945829D01*
X152386080Y-61938516D01*
X152611104Y-61657619D01*
X152706241Y-61410135D01*
X152736107Y-61163289D01*
X152771745Y-60877139D01*
X152772168Y-60875163D01*
X152785298Y-60832293D01*
X152880936Y-60520014D01*
X152886635Y-60513108D01*
X152895549Y-60512254D01*
X152896577Y-60512622D01*
G37*
%TD.AperFunction*%
%TD*%
%TA.AperFunction,Conductor*%
%TO.N,Net-(J1-Pin_18)*%
G36*
X155436577Y-60512622D02*
G01*
X156206215Y-60830438D01*
X156212552Y-60836761D01*
X156212562Y-60836785D01*
X156530372Y-61606410D01*
X156530363Y-61615365D01*
X156524024Y-61621690D01*
X156522984Y-61622063D01*
X156167835Y-61730829D01*
X156165855Y-61731252D01*
X155879709Y-61766891D01*
X155632870Y-61796756D01*
X155632861Y-61796758D01*
X155385379Y-61891893D01*
X155104485Y-62116918D01*
X155095886Y-62119416D01*
X155088897Y-62116060D01*
X154926939Y-61954102D01*
X154923512Y-61945829D01*
X154926080Y-61938516D01*
X155151104Y-61657619D01*
X155246241Y-61410135D01*
X155276107Y-61163289D01*
X155311745Y-60877139D01*
X155312168Y-60875163D01*
X155325298Y-60832293D01*
X155420936Y-60520014D01*
X155426635Y-60513108D01*
X155435549Y-60512254D01*
X155436577Y-60512622D01*
G37*
%TD.AperFunction*%
%TD*%
%TA.AperFunction,Conductor*%
%TO.N,Net-(J1-Pin_16)*%
G36*
X193571239Y-66272798D02*
G01*
X193922748Y-66418004D01*
X193929085Y-66424329D01*
X193929980Y-66428846D01*
X193929027Y-66810102D01*
X193925579Y-66818367D01*
X193918129Y-66821745D01*
X193768489Y-66832023D01*
X193656090Y-66858311D01*
X193559971Y-66889608D01*
X193559492Y-66889742D01*
X193448246Y-66915760D01*
X193446384Y-66916040D01*
X193299316Y-66926141D01*
X193290827Y-66923289D01*
X193286841Y-66915270D01*
X193286814Y-66914468D01*
X193286814Y-66686758D01*
X193290241Y-66678485D01*
X193296412Y-66675249D01*
X193400524Y-66656256D01*
X193461875Y-66598407D01*
X193493635Y-66510023D01*
X193518517Y-66397909D01*
X193518639Y-66397451D01*
X193555614Y-66280094D01*
X193561367Y-66273235D01*
X193570288Y-66272453D01*
X193571239Y-66272798D01*
G37*
%TD.AperFunction*%
%TD*%
%TA.AperFunction,Conductor*%
%TO.N,Net-(J1-Pin_22)*%
G36*
X162072365Y-60512636D02*
G01*
X162078690Y-60518975D01*
X162079063Y-60520015D01*
X162187829Y-60875163D01*
X162188252Y-60877143D01*
X162223891Y-61163289D01*
X162253756Y-61410127D01*
X162253758Y-61410136D01*
X162348893Y-61657618D01*
X162573918Y-61938514D01*
X162576416Y-61947113D01*
X162573060Y-61954102D01*
X162411102Y-62116060D01*
X162402829Y-62119487D01*
X162395514Y-62116918D01*
X162114618Y-61891893D01*
X161867136Y-61796758D01*
X161867127Y-61796756D01*
X161620289Y-61766891D01*
X161334143Y-61731252D01*
X161332163Y-61730829D01*
X160977015Y-61622063D01*
X160970108Y-61616364D01*
X160969254Y-61607450D01*
X160969620Y-61606429D01*
X161287438Y-60836783D01*
X161293759Y-60830448D01*
X162063412Y-60512627D01*
X162072365Y-60512636D01*
G37*
%TD.AperFunction*%
%TD*%
%TA.AperFunction,Conductor*%
%TO.N,GND*%
G36*
X148767512Y-63872507D02*
G01*
X148820315Y-63918262D01*
X148840000Y-63985301D01*
X148840000Y-64703633D01*
X149053483Y-64646433D01*
X149053492Y-64646429D01*
X149267578Y-64546600D01*
X149267584Y-64546597D01*
X149327287Y-64504791D01*
X149393492Y-64482462D01*
X149461260Y-64499471D01*
X149486092Y-64518682D01*
X151107590Y-66140181D01*
X152661197Y-67693788D01*
X152671022Y-67706051D01*
X152671243Y-67705869D01*
X152676210Y-67711874D01*
X152689178Y-67724051D01*
X152724573Y-67784292D01*
X152721781Y-67854105D01*
X152691978Y-67902124D01*
X152631503Y-67962599D01*
X152501575Y-68148158D01*
X152446998Y-68191783D01*
X152377500Y-68198977D01*
X152315145Y-68167454D01*
X152298425Y-68148158D01*
X152168494Y-67962597D01*
X152001402Y-67795506D01*
X152001395Y-67795501D01*
X151807834Y-67659967D01*
X151807830Y-67659965D01*
X151800348Y-67656476D01*
X151593663Y-67560097D01*
X151593659Y-67560096D01*
X151593655Y-67560094D01*
X151365413Y-67498938D01*
X151365403Y-67498936D01*
X151130001Y-67478341D01*
X151129999Y-67478341D01*
X150894596Y-67498936D01*
X150894586Y-67498938D01*
X150666344Y-67560094D01*
X150666335Y-67560098D01*
X150452171Y-67659964D01*
X150452169Y-67659965D01*
X150258597Y-67795505D01*
X150091505Y-67962597D01*
X149961575Y-68148158D01*
X149906998Y-68191783D01*
X149837500Y-68198977D01*
X149775145Y-68167454D01*
X149758425Y-68148158D01*
X149628494Y-67962597D01*
X149461402Y-67795506D01*
X149461395Y-67795501D01*
X149267834Y-67659967D01*
X149267830Y-67659965D01*
X149260348Y-67656476D01*
X149053663Y-67560097D01*
X149053659Y-67560096D01*
X149053655Y-67560094D01*
X148825413Y-67498938D01*
X148825403Y-67498936D01*
X148590001Y-67478341D01*
X148589999Y-67478341D01*
X148354596Y-67498936D01*
X148354586Y-67498938D01*
X148126344Y-67560094D01*
X148126335Y-67560098D01*
X147912171Y-67659964D01*
X147912169Y-67659965D01*
X147718597Y-67795505D01*
X147551505Y-67962597D01*
X147421575Y-68148158D01*
X147366998Y-68191783D01*
X147297500Y-68198977D01*
X147235145Y-68167454D01*
X147218425Y-68148158D01*
X147088494Y-67962597D01*
X146921402Y-67795506D01*
X146921395Y-67795501D01*
X146727834Y-67659967D01*
X146727830Y-67659965D01*
X146720348Y-67656476D01*
X146513663Y-67560097D01*
X146513659Y-67560096D01*
X146513655Y-67560094D01*
X146285413Y-67498938D01*
X146285403Y-67498936D01*
X146050001Y-67478341D01*
X146049999Y-67478341D01*
X145814596Y-67498936D01*
X145814586Y-67498938D01*
X145586344Y-67560094D01*
X145586335Y-67560098D01*
X145372171Y-67659964D01*
X145372169Y-67659965D01*
X145178597Y-67795505D01*
X145011505Y-67962597D01*
X144875965Y-68156169D01*
X144875964Y-68156171D01*
X144776098Y-68370335D01*
X144776094Y-68370344D01*
X144714938Y-68598586D01*
X144714936Y-68598596D01*
X144694341Y-68833999D01*
X144694341Y-68834000D01*
X144714936Y-69069403D01*
X144714938Y-69069413D01*
X144776094Y-69297655D01*
X144776096Y-69297659D01*
X144776097Y-69297663D01*
X144856004Y-69469023D01*
X144875965Y-69511830D01*
X144875967Y-69511834D01*
X144984281Y-69666521D01*
X145011501Y-69705396D01*
X145011506Y-69705402D01*
X145178597Y-69872493D01*
X145180419Y-69874022D01*
X145181001Y-69874897D01*
X145182427Y-69876323D01*
X145182140Y-69876609D01*
X145219119Y-69932195D01*
X145220224Y-70002056D01*
X145183384Y-70061424D01*
X145139719Y-70086712D01*
X145130883Y-70089640D01*
X145130875Y-70089643D01*
X144981654Y-70181684D01*
X144857684Y-70305654D01*
X144765643Y-70454875D01*
X144765641Y-70454880D01*
X144710494Y-70621302D01*
X144710493Y-70621309D01*
X144700000Y-70724013D01*
X144700000Y-71124000D01*
X145436653Y-71124000D01*
X145503692Y-71143685D01*
X145549447Y-71196489D01*
X145559391Y-71265647D01*
X145555631Y-71282933D01*
X145550000Y-71302111D01*
X145550000Y-71445888D01*
X145555631Y-71465067D01*
X145555630Y-71534936D01*
X145517855Y-71593714D01*
X145454299Y-71622738D01*
X145436653Y-71624000D01*
X144700001Y-71624000D01*
X144700001Y-72023986D01*
X144710494Y-72126697D01*
X144765641Y-72293119D01*
X144765643Y-72293124D01*
X144857684Y-72442345D01*
X144981654Y-72566315D01*
X145130875Y-72658356D01*
X145130880Y-72658358D01*
X145297302Y-72713505D01*
X145297309Y-72713506D01*
X145400019Y-72723999D01*
X145799999Y-72723999D01*
X145800000Y-72723998D01*
X145800000Y-71986301D01*
X145819685Y-71919262D01*
X145872489Y-71873507D01*
X145941647Y-71863563D01*
X146014237Y-71874000D01*
X146014238Y-71874000D01*
X146085762Y-71874000D01*
X146085763Y-71874000D01*
X146158353Y-71863563D01*
X146227512Y-71873507D01*
X146280315Y-71919262D01*
X146300000Y-71986301D01*
X146300000Y-72723999D01*
X146699972Y-72723999D01*
X146699986Y-72723998D01*
X146802697Y-72713505D01*
X146969119Y-72658358D01*
X146969124Y-72658356D01*
X147118345Y-72566315D01*
X147242315Y-72442345D01*
X147334356Y-72293124D01*
X147334359Y-72293117D01*
X147358281Y-72220924D01*
X147398053Y-72163479D01*
X147462568Y-72136655D01*
X147473911Y-72136535D01*
X147981050Y-71629395D01*
X148042373Y-71595910D01*
X148112064Y-71600894D01*
X148167998Y-71642765D01*
X148173039Y-71650025D01*
X148173048Y-71650039D01*
X148208239Y-71704798D01*
X148323602Y-71804759D01*
X148321293Y-71807422D01*
X148356006Y-71847499D01*
X148365935Y-71916660D01*
X148336898Y-71980210D01*
X148330882Y-71986669D01*
X147828625Y-72488925D01*
X147912421Y-72547599D01*
X148126507Y-72647429D01*
X148126516Y-72647433D01*
X148354673Y-72708567D01*
X148354684Y-72708569D01*
X148589998Y-72729157D01*
X148590002Y-72729157D01*
X148825315Y-72708569D01*
X148825326Y-72708567D01*
X149053483Y-72647433D01*
X149053492Y-72647429D01*
X149267578Y-72547600D01*
X149267582Y-72547598D01*
X149351373Y-72488926D01*
X149351373Y-72488925D01*
X148849116Y-71986669D01*
X148815631Y-71925346D01*
X148820615Y-71855655D01*
X148857640Y-71806193D01*
X148856398Y-71804759D01*
X148863100Y-71798952D01*
X148971761Y-71704798D01*
X149006954Y-71650037D01*
X149059755Y-71604283D01*
X149128914Y-71594339D01*
X149192470Y-71623363D01*
X149198949Y-71629396D01*
X149704925Y-72135373D01*
X149758425Y-72058968D01*
X149813002Y-72015344D01*
X149882501Y-72008151D01*
X149944855Y-72039673D01*
X149961576Y-72058969D01*
X150015073Y-72135372D01*
X150521050Y-71629395D01*
X150582373Y-71595910D01*
X150652064Y-71600894D01*
X150707998Y-71642765D01*
X150713039Y-71650025D01*
X150713048Y-71650039D01*
X150748239Y-71704798D01*
X150863602Y-71804759D01*
X150861293Y-71807422D01*
X150896006Y-71847499D01*
X150905935Y-71916660D01*
X150876898Y-71980210D01*
X150870882Y-71986669D01*
X150368625Y-72488925D01*
X150452421Y-72547599D01*
X150666507Y-72647429D01*
X150666516Y-72647433D01*
X150894673Y-72708567D01*
X150894684Y-72708569D01*
X151129998Y-72729157D01*
X151130002Y-72729157D01*
X151365315Y-72708569D01*
X151365326Y-72708567D01*
X151593483Y-72647433D01*
X151593492Y-72647429D01*
X151807578Y-72547600D01*
X151807582Y-72547598D01*
X151891373Y-72488926D01*
X151891373Y-72488925D01*
X151389116Y-71986669D01*
X151355631Y-71925346D01*
X151360615Y-71855655D01*
X151397640Y-71806193D01*
X151396398Y-71804759D01*
X151403100Y-71798952D01*
X151511761Y-71704798D01*
X151546954Y-71650037D01*
X151599755Y-71604283D01*
X151668914Y-71594339D01*
X151732470Y-71623363D01*
X151738949Y-71629396D01*
X152244925Y-72135373D01*
X152298425Y-72058968D01*
X152353002Y-72015344D01*
X152422501Y-72008151D01*
X152484855Y-72039673D01*
X152501576Y-72058969D01*
X152555073Y-72135372D01*
X153061050Y-71629395D01*
X153122373Y-71595910D01*
X153192064Y-71600894D01*
X153247998Y-71642765D01*
X153253039Y-71650025D01*
X153253048Y-71650039D01*
X153288239Y-71704798D01*
X153403602Y-71804759D01*
X153401293Y-71807422D01*
X153436006Y-71847499D01*
X153445935Y-71916660D01*
X153416898Y-71980210D01*
X153410882Y-71986669D01*
X152908625Y-72488925D01*
X152992421Y-72547599D01*
X153206507Y-72647429D01*
X153206516Y-72647433D01*
X153434673Y-72708567D01*
X153434684Y-72708569D01*
X153669998Y-72729157D01*
X153670002Y-72729157D01*
X153905315Y-72708569D01*
X153905326Y-72708567D01*
X154133483Y-72647433D01*
X154133492Y-72647429D01*
X154347578Y-72547600D01*
X154347582Y-72547598D01*
X154431373Y-72488926D01*
X154431373Y-72488925D01*
X153929116Y-71986669D01*
X153895631Y-71925346D01*
X153900615Y-71855655D01*
X153937640Y-71806193D01*
X153936398Y-71804759D01*
X153943100Y-71798952D01*
X154051761Y-71704798D01*
X154086954Y-71650037D01*
X154139755Y-71604283D01*
X154208914Y-71594339D01*
X154272470Y-71623363D01*
X154278949Y-71629396D01*
X154784925Y-72135373D01*
X154838425Y-72058968D01*
X154893002Y-72015344D01*
X154962501Y-72008151D01*
X155024855Y-72039673D01*
X155041576Y-72058969D01*
X155095073Y-72135372D01*
X155601050Y-71629395D01*
X155662373Y-71595910D01*
X155732064Y-71600894D01*
X155787998Y-71642765D01*
X155793039Y-71650025D01*
X155793048Y-71650039D01*
X155828239Y-71704798D01*
X155943602Y-71804759D01*
X155941293Y-71807422D01*
X155976006Y-71847499D01*
X155985935Y-71916660D01*
X155956898Y-71980210D01*
X155950882Y-71986669D01*
X155448625Y-72488925D01*
X155532421Y-72547599D01*
X155746507Y-72647429D01*
X155746516Y-72647433D01*
X155974673Y-72708567D01*
X155974684Y-72708569D01*
X156209998Y-72729157D01*
X156210002Y-72729157D01*
X156445315Y-72708569D01*
X156445326Y-72708567D01*
X156673483Y-72647433D01*
X156673492Y-72647429D01*
X156887578Y-72547600D01*
X156887582Y-72547598D01*
X156971373Y-72488926D01*
X156971373Y-72488925D01*
X156469116Y-71986669D01*
X156435631Y-71925346D01*
X156440615Y-71855655D01*
X156477640Y-71806193D01*
X156476398Y-71804759D01*
X156483100Y-71798952D01*
X156591761Y-71704798D01*
X156626954Y-71650037D01*
X156679755Y-71604283D01*
X156748914Y-71594339D01*
X156812470Y-71623363D01*
X156818949Y-71629396D01*
X157324925Y-72135373D01*
X157378425Y-72058968D01*
X157433002Y-72015344D01*
X157502501Y-72008151D01*
X157564855Y-72039673D01*
X157581576Y-72058969D01*
X157635073Y-72135372D01*
X158141050Y-71629395D01*
X158202373Y-71595910D01*
X158272064Y-71600894D01*
X158327998Y-71642765D01*
X158333039Y-71650025D01*
X158333048Y-71650039D01*
X158368239Y-71704798D01*
X158483602Y-71804759D01*
X158481293Y-71807422D01*
X158516006Y-71847499D01*
X158525935Y-71916660D01*
X158496898Y-71980210D01*
X158490882Y-71986669D01*
X157988625Y-72488925D01*
X158072421Y-72547599D01*
X158286507Y-72647429D01*
X158286516Y-72647433D01*
X158514673Y-72708567D01*
X158514684Y-72708569D01*
X158749998Y-72729157D01*
X158750002Y-72729157D01*
X158985315Y-72708569D01*
X158985326Y-72708567D01*
X159213483Y-72647433D01*
X159213492Y-72647429D01*
X159427578Y-72547600D01*
X159427582Y-72547598D01*
X159511373Y-72488926D01*
X159511373Y-72488925D01*
X159009116Y-71986669D01*
X158975631Y-71925346D01*
X158980615Y-71855655D01*
X159017640Y-71806193D01*
X159016398Y-71804759D01*
X159023100Y-71798952D01*
X159131761Y-71704798D01*
X159166954Y-71650037D01*
X159219755Y-71604283D01*
X159288914Y-71594339D01*
X159352470Y-71623363D01*
X159358949Y-71629396D01*
X159864925Y-72135373D01*
X159918425Y-72058968D01*
X159973002Y-72015344D01*
X160042501Y-72008151D01*
X160104855Y-72039673D01*
X160121576Y-72058969D01*
X160175073Y-72135372D01*
X160681050Y-71629395D01*
X160742373Y-71595910D01*
X160812064Y-71600894D01*
X160867998Y-71642765D01*
X160873039Y-71650025D01*
X160873048Y-71650039D01*
X160908239Y-71704798D01*
X161023602Y-71804759D01*
X161021293Y-71807422D01*
X161056006Y-71847499D01*
X161065935Y-71916660D01*
X161036898Y-71980210D01*
X161030882Y-71986669D01*
X160528625Y-72488925D01*
X160612421Y-72547599D01*
X160826507Y-72647429D01*
X160826516Y-72647433D01*
X161054673Y-72708567D01*
X161054684Y-72708569D01*
X161289998Y-72729157D01*
X161290002Y-72729157D01*
X161525315Y-72708569D01*
X161525326Y-72708567D01*
X161753483Y-72647433D01*
X161753492Y-72647429D01*
X161967578Y-72547600D01*
X161967582Y-72547598D01*
X162051373Y-72488926D01*
X162051373Y-72488925D01*
X161549116Y-71986669D01*
X161515631Y-71925346D01*
X161520615Y-71855655D01*
X161557640Y-71806193D01*
X161556398Y-71804759D01*
X161563100Y-71798952D01*
X161671761Y-71704798D01*
X161706954Y-71650037D01*
X161759755Y-71604283D01*
X161828914Y-71594339D01*
X161892470Y-71623363D01*
X161898949Y-71629396D01*
X162404925Y-72135373D01*
X162458425Y-72058968D01*
X162513002Y-72015344D01*
X162582501Y-72008151D01*
X162644855Y-72039673D01*
X162661576Y-72058969D01*
X162715073Y-72135372D01*
X163221050Y-71629395D01*
X163282373Y-71595910D01*
X163352064Y-71600894D01*
X163407998Y-71642765D01*
X163413039Y-71650025D01*
X163413048Y-71650039D01*
X163448239Y-71704798D01*
X163563602Y-71804759D01*
X163561293Y-71807422D01*
X163596006Y-71847499D01*
X163605935Y-71916660D01*
X163576898Y-71980210D01*
X163570882Y-71986669D01*
X163068625Y-72488925D01*
X163152421Y-72547599D01*
X163366507Y-72647429D01*
X163366516Y-72647433D01*
X163594673Y-72708567D01*
X163594684Y-72708569D01*
X163829998Y-72729157D01*
X163830002Y-72729157D01*
X164065315Y-72708569D01*
X164065326Y-72708567D01*
X164293483Y-72647433D01*
X164293492Y-72647429D01*
X164507578Y-72547600D01*
X164507582Y-72547598D01*
X164591373Y-72488926D01*
X164591373Y-72488925D01*
X164089116Y-71986669D01*
X164055631Y-71925346D01*
X164060615Y-71855655D01*
X164097640Y-71806193D01*
X164096398Y-71804759D01*
X164103100Y-71798952D01*
X164211761Y-71704798D01*
X164246954Y-71650037D01*
X164299755Y-71604283D01*
X164368914Y-71594339D01*
X164432470Y-71623363D01*
X164438949Y-71629396D01*
X164944925Y-72135373D01*
X164998425Y-72058968D01*
X165053002Y-72015344D01*
X165122501Y-72008151D01*
X165184855Y-72039673D01*
X165201576Y-72058969D01*
X165255073Y-72135372D01*
X165761050Y-71629395D01*
X165822373Y-71595910D01*
X165892064Y-71600894D01*
X165947998Y-71642765D01*
X165953039Y-71650025D01*
X165953048Y-71650039D01*
X165988239Y-71704798D01*
X166103602Y-71804759D01*
X166101293Y-71807422D01*
X166136006Y-71847499D01*
X166145935Y-71916660D01*
X166116898Y-71980210D01*
X166110882Y-71986669D01*
X165608625Y-72488925D01*
X165692421Y-72547599D01*
X165906507Y-72647429D01*
X165906516Y-72647433D01*
X166134673Y-72708567D01*
X166134684Y-72708569D01*
X166369998Y-72729157D01*
X166370002Y-72729157D01*
X166605315Y-72708569D01*
X166605326Y-72708567D01*
X166833483Y-72647433D01*
X166833492Y-72647429D01*
X167047578Y-72547600D01*
X167047582Y-72547598D01*
X167131373Y-72488926D01*
X167131373Y-72488925D01*
X166629116Y-71986669D01*
X166595631Y-71925346D01*
X166600615Y-71855655D01*
X166637640Y-71806193D01*
X166636398Y-71804759D01*
X166643100Y-71798952D01*
X166751761Y-71704798D01*
X166786954Y-71650037D01*
X166839755Y-71604283D01*
X166908914Y-71594339D01*
X166972470Y-71623363D01*
X166978949Y-71629396D01*
X167484925Y-72135373D01*
X167538425Y-72058968D01*
X167593002Y-72015344D01*
X167662501Y-72008151D01*
X167724855Y-72039673D01*
X167741576Y-72058969D01*
X167795073Y-72135372D01*
X168301050Y-71629395D01*
X168362373Y-71595910D01*
X168432064Y-71600894D01*
X168487998Y-71642765D01*
X168493039Y-71650025D01*
X168493048Y-71650039D01*
X168528239Y-71704798D01*
X168643602Y-71804759D01*
X168641293Y-71807422D01*
X168676006Y-71847499D01*
X168685935Y-71916660D01*
X168656898Y-71980210D01*
X168650882Y-71986669D01*
X168148625Y-72488925D01*
X168232421Y-72547599D01*
X168446507Y-72647429D01*
X168446516Y-72647433D01*
X168674673Y-72708567D01*
X168674684Y-72708569D01*
X168909998Y-72729157D01*
X168910002Y-72729157D01*
X169145315Y-72708569D01*
X169145326Y-72708567D01*
X169373483Y-72647433D01*
X169373492Y-72647429D01*
X169587578Y-72547600D01*
X169587582Y-72547598D01*
X169671373Y-72488926D01*
X169671373Y-72488925D01*
X169169116Y-71986669D01*
X169135631Y-71925346D01*
X169140615Y-71855655D01*
X169177640Y-71806193D01*
X169176398Y-71804759D01*
X169183100Y-71798952D01*
X169291761Y-71704798D01*
X169326954Y-71650037D01*
X169379755Y-71604283D01*
X169448914Y-71594339D01*
X169512470Y-71623363D01*
X169518949Y-71629396D01*
X170024925Y-72135373D01*
X170078425Y-72058968D01*
X170133002Y-72015344D01*
X170202501Y-72008151D01*
X170264855Y-72039673D01*
X170281576Y-72058969D01*
X170335073Y-72135372D01*
X170841050Y-71629395D01*
X170902373Y-71595910D01*
X170972064Y-71600894D01*
X171027998Y-71642765D01*
X171033039Y-71650025D01*
X171033048Y-71650039D01*
X171068239Y-71704798D01*
X171183602Y-71804759D01*
X171181293Y-71807422D01*
X171216006Y-71847499D01*
X171225935Y-71916660D01*
X171196898Y-71980210D01*
X171190882Y-71986669D01*
X170688625Y-72488925D01*
X170772421Y-72547599D01*
X170986507Y-72647429D01*
X170986516Y-72647433D01*
X171214673Y-72708567D01*
X171214684Y-72708569D01*
X171449998Y-72729157D01*
X171450002Y-72729157D01*
X171685315Y-72708569D01*
X171685326Y-72708567D01*
X171913483Y-72647433D01*
X171913492Y-72647429D01*
X172127578Y-72547600D01*
X172127582Y-72547598D01*
X172211373Y-72488926D01*
X172211373Y-72488925D01*
X171709116Y-71986669D01*
X171675631Y-71925346D01*
X171680615Y-71855655D01*
X171717640Y-71806193D01*
X171716398Y-71804759D01*
X171723100Y-71798952D01*
X171831761Y-71704798D01*
X171866954Y-71650037D01*
X171919755Y-71604283D01*
X171988914Y-71594339D01*
X172052470Y-71623363D01*
X172058949Y-71629396D01*
X172564925Y-72135373D01*
X172618425Y-72058968D01*
X172673002Y-72015344D01*
X172742501Y-72008151D01*
X172804855Y-72039673D01*
X172821576Y-72058969D01*
X172875073Y-72135372D01*
X173381050Y-71629395D01*
X173442373Y-71595910D01*
X173512064Y-71600894D01*
X173567998Y-71642765D01*
X173573039Y-71650025D01*
X173573048Y-71650039D01*
X173608239Y-71704798D01*
X173723602Y-71804759D01*
X173721293Y-71807422D01*
X173756006Y-71847499D01*
X173765935Y-71916660D01*
X173736898Y-71980210D01*
X173730882Y-71986669D01*
X173228625Y-72488925D01*
X173312421Y-72547599D01*
X173526507Y-72647429D01*
X173526516Y-72647433D01*
X173754673Y-72708567D01*
X173754684Y-72708569D01*
X173989998Y-72729157D01*
X173990002Y-72729157D01*
X174225315Y-72708569D01*
X174225326Y-72708567D01*
X174453483Y-72647433D01*
X174453492Y-72647429D01*
X174667578Y-72547600D01*
X174667582Y-72547598D01*
X174751373Y-72488926D01*
X174751373Y-72488925D01*
X174249116Y-71986669D01*
X174215631Y-71925346D01*
X174220615Y-71855655D01*
X174257640Y-71806193D01*
X174256398Y-71804759D01*
X174263100Y-71798952D01*
X174371761Y-71704798D01*
X174406954Y-71650037D01*
X174459755Y-71604283D01*
X174528914Y-71594339D01*
X174592470Y-71623363D01*
X174598949Y-71629396D01*
X175104925Y-72135373D01*
X175158425Y-72058968D01*
X175213002Y-72015344D01*
X175282501Y-72008151D01*
X175344855Y-72039673D01*
X175361576Y-72058969D01*
X175415073Y-72135372D01*
X175921050Y-71629395D01*
X175982373Y-71595910D01*
X176052064Y-71600894D01*
X176107998Y-71642765D01*
X176113039Y-71650025D01*
X176113048Y-71650039D01*
X176148239Y-71704798D01*
X176263602Y-71804759D01*
X176261293Y-71807422D01*
X176296006Y-71847499D01*
X176305935Y-71916660D01*
X176276898Y-71980210D01*
X176270882Y-71986669D01*
X175768625Y-72488925D01*
X175852421Y-72547599D01*
X176066507Y-72647429D01*
X176066516Y-72647433D01*
X176294673Y-72708567D01*
X176294684Y-72708569D01*
X176529998Y-72729157D01*
X176530002Y-72729157D01*
X176765315Y-72708569D01*
X176765326Y-72708567D01*
X176993483Y-72647433D01*
X176993492Y-72647429D01*
X177207578Y-72547600D01*
X177207582Y-72547598D01*
X177291373Y-72488926D01*
X177291373Y-72488925D01*
X176789116Y-71986669D01*
X176755631Y-71925346D01*
X176760615Y-71855655D01*
X176797640Y-71806193D01*
X176796398Y-71804759D01*
X176803100Y-71798952D01*
X176911761Y-71704798D01*
X176946954Y-71650037D01*
X176999755Y-71604283D01*
X177068914Y-71594339D01*
X177132470Y-71623363D01*
X177138949Y-71629396D01*
X177644925Y-72135373D01*
X177698425Y-72058968D01*
X177753002Y-72015344D01*
X177822501Y-72008151D01*
X177884855Y-72039673D01*
X177901576Y-72058969D01*
X177955073Y-72135372D01*
X178461050Y-71629395D01*
X178522373Y-71595910D01*
X178592064Y-71600894D01*
X178647998Y-71642765D01*
X178653039Y-71650025D01*
X178653048Y-71650039D01*
X178688239Y-71704798D01*
X178803602Y-71804759D01*
X178801293Y-71807422D01*
X178836006Y-71847499D01*
X178845935Y-71916660D01*
X178816898Y-71980210D01*
X178810882Y-71986669D01*
X178308625Y-72488925D01*
X178392421Y-72547599D01*
X178606507Y-72647429D01*
X178606516Y-72647433D01*
X178834673Y-72708567D01*
X178834684Y-72708569D01*
X179069998Y-72729157D01*
X179070002Y-72729157D01*
X179305315Y-72708569D01*
X179305326Y-72708567D01*
X179533483Y-72647433D01*
X179533492Y-72647429D01*
X179747578Y-72547600D01*
X179747582Y-72547598D01*
X179831373Y-72488926D01*
X179831373Y-72488925D01*
X179329116Y-71986669D01*
X179295631Y-71925346D01*
X179300615Y-71855655D01*
X179337640Y-71806193D01*
X179336398Y-71804759D01*
X179343100Y-71798952D01*
X179451761Y-71704798D01*
X179486954Y-71650037D01*
X179539755Y-71604283D01*
X179608914Y-71594339D01*
X179672470Y-71623363D01*
X179678949Y-71629396D01*
X180184925Y-72135373D01*
X180238425Y-72058968D01*
X180293002Y-72015344D01*
X180362501Y-72008151D01*
X180424855Y-72039673D01*
X180441576Y-72058969D01*
X180495073Y-72135372D01*
X181001050Y-71629395D01*
X181062373Y-71595910D01*
X181132064Y-71600894D01*
X181187998Y-71642765D01*
X181193039Y-71650025D01*
X181193048Y-71650039D01*
X181228239Y-71704798D01*
X181343602Y-71804759D01*
X181341293Y-71807422D01*
X181376006Y-71847499D01*
X181385935Y-71916660D01*
X181356898Y-71980210D01*
X181350882Y-71986669D01*
X180848625Y-72488925D01*
X180932421Y-72547599D01*
X181146507Y-72647429D01*
X181146516Y-72647433D01*
X181374673Y-72708567D01*
X181374684Y-72708569D01*
X181609998Y-72729157D01*
X181610002Y-72729157D01*
X181845315Y-72708569D01*
X181845326Y-72708567D01*
X182073483Y-72647433D01*
X182073492Y-72647429D01*
X182287578Y-72547600D01*
X182287582Y-72547598D01*
X182371373Y-72488926D01*
X182371373Y-72488925D01*
X181869116Y-71986669D01*
X181835631Y-71925346D01*
X181840615Y-71855655D01*
X181877640Y-71806193D01*
X181876398Y-71804759D01*
X181883100Y-71798952D01*
X181991761Y-71704798D01*
X182026954Y-71650037D01*
X182079755Y-71604283D01*
X182148914Y-71594339D01*
X182212470Y-71623363D01*
X182218949Y-71629396D01*
X182724925Y-72135373D01*
X182778425Y-72058968D01*
X182833002Y-72015344D01*
X182902501Y-72008151D01*
X182964855Y-72039673D01*
X182981576Y-72058969D01*
X183035073Y-72135372D01*
X183541050Y-71629395D01*
X183602373Y-71595910D01*
X183672064Y-71600894D01*
X183727998Y-71642765D01*
X183733039Y-71650025D01*
X183733048Y-71650039D01*
X183768239Y-71704798D01*
X183883602Y-71804759D01*
X183881293Y-71807422D01*
X183916006Y-71847499D01*
X183925935Y-71916660D01*
X183896898Y-71980210D01*
X183890882Y-71986669D01*
X183388625Y-72488925D01*
X183472421Y-72547599D01*
X183686507Y-72647429D01*
X183686516Y-72647433D01*
X183914673Y-72708567D01*
X183914684Y-72708569D01*
X184149998Y-72729157D01*
X184150002Y-72729157D01*
X184385315Y-72708569D01*
X184385326Y-72708567D01*
X184613483Y-72647433D01*
X184613492Y-72647429D01*
X184827578Y-72547600D01*
X184827582Y-72547598D01*
X184911373Y-72488926D01*
X184911373Y-72488925D01*
X184409116Y-71986669D01*
X184375631Y-71925346D01*
X184380615Y-71855655D01*
X184417640Y-71806193D01*
X184416398Y-71804759D01*
X184423100Y-71798952D01*
X184531761Y-71704798D01*
X184566954Y-71650037D01*
X184619755Y-71604283D01*
X184688914Y-71594339D01*
X184752470Y-71623363D01*
X184758949Y-71629396D01*
X185264925Y-72135373D01*
X185318425Y-72058968D01*
X185373002Y-72015344D01*
X185442501Y-72008151D01*
X185504855Y-72039673D01*
X185521576Y-72058969D01*
X185575073Y-72135372D01*
X186081050Y-71629395D01*
X186142373Y-71595910D01*
X186212064Y-71600894D01*
X186267998Y-71642765D01*
X186273039Y-71650025D01*
X186273048Y-71650039D01*
X186308239Y-71704798D01*
X186423602Y-71804759D01*
X186421293Y-71807422D01*
X186456006Y-71847499D01*
X186465935Y-71916660D01*
X186436898Y-71980210D01*
X186430882Y-71986669D01*
X185928625Y-72488925D01*
X186012421Y-72547599D01*
X186226507Y-72647429D01*
X186226516Y-72647433D01*
X186454673Y-72708567D01*
X186454684Y-72708569D01*
X186689998Y-72729157D01*
X186690002Y-72729157D01*
X186925315Y-72708569D01*
X186925326Y-72708567D01*
X187153483Y-72647433D01*
X187153492Y-72647429D01*
X187367578Y-72547600D01*
X187367582Y-72547598D01*
X187451373Y-72488926D01*
X187451373Y-72488925D01*
X186949116Y-71986669D01*
X186915631Y-71925346D01*
X186920615Y-71855655D01*
X186957640Y-71806193D01*
X186956398Y-71804759D01*
X186963100Y-71798952D01*
X187071761Y-71704798D01*
X187106954Y-71650037D01*
X187159755Y-71604283D01*
X187228914Y-71594339D01*
X187292470Y-71623363D01*
X187298949Y-71629396D01*
X187804925Y-72135373D01*
X187804926Y-72135373D01*
X187863598Y-72051582D01*
X187863600Y-72051578D01*
X187963429Y-71837492D01*
X187963433Y-71837483D01*
X188024567Y-71609326D01*
X188024569Y-71609315D01*
X188045157Y-71374001D01*
X188045157Y-71373998D01*
X188024569Y-71138684D01*
X188024567Y-71138673D01*
X187963433Y-70910516D01*
X187963429Y-70910507D01*
X187863600Y-70696423D01*
X187863599Y-70696421D01*
X187804925Y-70612626D01*
X187804925Y-70612625D01*
X187298949Y-71118602D01*
X187237626Y-71152087D01*
X187167934Y-71147103D01*
X187112001Y-71105231D01*
X187106953Y-71097961D01*
X187071761Y-71043202D01*
X186956398Y-70943241D01*
X186958708Y-70940574D01*
X186924005Y-70900528D01*
X186914058Y-70831370D01*
X186943080Y-70767813D01*
X186949116Y-70761330D01*
X187451373Y-70259073D01*
X187451373Y-70259072D01*
X187375405Y-70205880D01*
X187331780Y-70151304D01*
X187324586Y-70081805D01*
X187356108Y-70019451D01*
X187375399Y-70002734D01*
X187561401Y-69872495D01*
X187728495Y-69705401D01*
X187864035Y-69511830D01*
X187963903Y-69297663D01*
X188025063Y-69069408D01*
X188045659Y-68834000D01*
X188025063Y-68598592D01*
X187963903Y-68370337D01*
X187864035Y-68156171D01*
X187858425Y-68148158D01*
X187728494Y-67962597D01*
X187561402Y-67795506D01*
X187561395Y-67795501D01*
X187441963Y-67711874D01*
X187367830Y-67659965D01*
X187367823Y-67659962D01*
X187365964Y-67658888D01*
X187365304Y-67658196D01*
X187363396Y-67656860D01*
X187363664Y-67656476D01*
X187317748Y-67608321D01*
X187304524Y-67539715D01*
X187330491Y-67474849D01*
X187387405Y-67434320D01*
X187427963Y-67427500D01*
X193291934Y-67427500D01*
X193296533Y-67427671D01*
X193312725Y-67428874D01*
X193333953Y-67430453D01*
X193358195Y-67428787D01*
X193374832Y-67427646D01*
X193379081Y-67427500D01*
X193465257Y-67427500D01*
X193480877Y-67429224D01*
X193480904Y-67428939D01*
X193488660Y-67429671D01*
X193488667Y-67429673D01*
X193557814Y-67427500D01*
X193587350Y-67427500D01*
X193594228Y-67426630D01*
X193600041Y-67426172D01*
X193646627Y-67424709D01*
X193665869Y-67419117D01*
X193684912Y-67415174D01*
X193704792Y-67412664D01*
X193748122Y-67395507D01*
X193753646Y-67393617D01*
X193756373Y-67392824D01*
X193798390Y-67380618D01*
X193815634Y-67370419D01*
X193833102Y-67361862D01*
X193851732Y-67354486D01*
X193855561Y-67351703D01*
X193919955Y-67328310D01*
X193952768Y-67326057D01*
X193993059Y-67321838D01*
X193999521Y-67321500D01*
X194023644Y-67321500D01*
X194023646Y-67321500D01*
X194208803Y-67282144D01*
X194381730Y-67205151D01*
X194534871Y-67093888D01*
X194661533Y-66953216D01*
X194756179Y-66789284D01*
X194814674Y-66609256D01*
X194834460Y-66421000D01*
X194834460Y-66420997D01*
X194834460Y-66414502D01*
X194835782Y-66414502D01*
X194847076Y-66352735D01*
X194894807Y-66301710D01*
X194957829Y-66284500D01*
X195608547Y-66284500D01*
X195635340Y-66287429D01*
X195641947Y-66288892D01*
X195646044Y-66289199D01*
X195722939Y-66294978D01*
X195774012Y-66310313D01*
X195794605Y-66321790D01*
X195794607Y-66321791D01*
X195900216Y-66386483D01*
X195911055Y-66392759D01*
X195922298Y-66398901D01*
X195927615Y-66401645D01*
X195932934Y-66404390D01*
X196090062Y-66480817D01*
X196097133Y-66484014D01*
X196097134Y-66484014D01*
X196161823Y-66508089D01*
X196165418Y-66509557D01*
X196173607Y-66513202D01*
X196189197Y-66520144D01*
X196374354Y-66559500D01*
X196374355Y-66559500D01*
X196563644Y-66559500D01*
X196563646Y-66559500D01*
X196748803Y-66520144D01*
X196921730Y-66443151D01*
X197074871Y-66331888D01*
X197201533Y-66191216D01*
X197296179Y-66027284D01*
X197354674Y-65847256D01*
X197374460Y-65659000D01*
X197354674Y-65470744D01*
X197296179Y-65290716D01*
X197201533Y-65126784D01*
X197074871Y-64986112D01*
X197002129Y-64933262D01*
X196959463Y-64877932D01*
X196953484Y-64808319D01*
X196986089Y-64746524D01*
X197046928Y-64712167D01*
X197064207Y-64709416D01*
X197085316Y-64707569D01*
X197085326Y-64707567D01*
X197313483Y-64646433D01*
X197313492Y-64646429D01*
X197527578Y-64546600D01*
X197721082Y-64411105D01*
X197734819Y-64397369D01*
X197796142Y-64363884D01*
X197865834Y-64368868D01*
X197921767Y-64410740D01*
X197946184Y-64476204D01*
X197946500Y-64485050D01*
X197946500Y-74632500D01*
X197926815Y-74699539D01*
X197874011Y-74745294D01*
X197822500Y-74756500D01*
X134917500Y-74756500D01*
X134850461Y-74736815D01*
X134804706Y-74684011D01*
X134793500Y-74632500D01*
X134793500Y-64839686D01*
X134813185Y-64772647D01*
X134865989Y-64726892D01*
X134930757Y-64716397D01*
X134992158Y-64722999D01*
X134992172Y-64723000D01*
X135640000Y-64723000D01*
X135640000Y-63985301D01*
X135659685Y-63918262D01*
X135712489Y-63872507D01*
X135781647Y-63862563D01*
X135854237Y-63873000D01*
X135854238Y-63873000D01*
X135925762Y-63873000D01*
X135925763Y-63873000D01*
X135998353Y-63862563D01*
X136067512Y-63872507D01*
X136120315Y-63918262D01*
X136140000Y-63985301D01*
X136140000Y-64723000D01*
X136787828Y-64723000D01*
X136787844Y-64722999D01*
X136847372Y-64716598D01*
X136847379Y-64716596D01*
X136982086Y-64666354D01*
X136982093Y-64666350D01*
X137097187Y-64580190D01*
X137097190Y-64580187D01*
X137183350Y-64465093D01*
X137183354Y-64465086D01*
X137232614Y-64333013D01*
X137274485Y-64277079D01*
X137339949Y-64252662D01*
X137408222Y-64267513D01*
X137436477Y-64288665D01*
X137558917Y-64411105D01*
X137752421Y-64546600D01*
X137966507Y-64646429D01*
X137966516Y-64646433D01*
X138180000Y-64703634D01*
X138180000Y-63985301D01*
X138199685Y-63918262D01*
X138252489Y-63872507D01*
X138321647Y-63862563D01*
X138394237Y-63873000D01*
X138394238Y-63873000D01*
X138465762Y-63873000D01*
X138465763Y-63873000D01*
X138538353Y-63862563D01*
X138607512Y-63872507D01*
X138660315Y-63918262D01*
X138680000Y-63985301D01*
X138680000Y-64703633D01*
X138893483Y-64646433D01*
X138893492Y-64646429D01*
X139107578Y-64546600D01*
X139301082Y-64411105D01*
X139468105Y-64244082D01*
X139598425Y-64057968D01*
X139653002Y-64014344D01*
X139722501Y-64007151D01*
X139784855Y-64038673D01*
X139801575Y-64057968D01*
X139931894Y-64244082D01*
X140098917Y-64411105D01*
X140292421Y-64546600D01*
X140506507Y-64646429D01*
X140506516Y-64646433D01*
X140720000Y-64703634D01*
X140720000Y-63985301D01*
X140739685Y-63918262D01*
X140792489Y-63872507D01*
X140861647Y-63862563D01*
X140934237Y-63873000D01*
X140934238Y-63873000D01*
X141005762Y-63873000D01*
X141005763Y-63873000D01*
X141078353Y-63862563D01*
X141147512Y-63872507D01*
X141200315Y-63918262D01*
X141220000Y-63985301D01*
X141220000Y-64703633D01*
X141433483Y-64646433D01*
X141433492Y-64646429D01*
X141647578Y-64546600D01*
X141841082Y-64411105D01*
X142008105Y-64244082D01*
X142138425Y-64057968D01*
X142193002Y-64014344D01*
X142262501Y-64007151D01*
X142324855Y-64038673D01*
X142341575Y-64057968D01*
X142471894Y-64244082D01*
X142638917Y-64411105D01*
X142832421Y-64546600D01*
X143046507Y-64646429D01*
X143046516Y-64646433D01*
X143260000Y-64703634D01*
X143260000Y-63985301D01*
X143279685Y-63918262D01*
X143332489Y-63872507D01*
X143401647Y-63862563D01*
X143474237Y-63873000D01*
X143474238Y-63873000D01*
X143545762Y-63873000D01*
X143545763Y-63873000D01*
X143618353Y-63862563D01*
X143687512Y-63872507D01*
X143740315Y-63918262D01*
X143760000Y-63985301D01*
X143760000Y-64703633D01*
X143973483Y-64646433D01*
X143973492Y-64646429D01*
X144187578Y-64546600D01*
X144381082Y-64411105D01*
X144548105Y-64244082D01*
X144678425Y-64057968D01*
X144733002Y-64014344D01*
X144802501Y-64007151D01*
X144864855Y-64038673D01*
X144881575Y-64057968D01*
X145011894Y-64244082D01*
X145178917Y-64411105D01*
X145372421Y-64546600D01*
X145586507Y-64646429D01*
X145586516Y-64646433D01*
X145800000Y-64703634D01*
X145800000Y-63985301D01*
X145819685Y-63918262D01*
X145872489Y-63872507D01*
X145941647Y-63862563D01*
X146014237Y-63873000D01*
X146014238Y-63873000D01*
X146085762Y-63873000D01*
X146085763Y-63873000D01*
X146158353Y-63862563D01*
X146227512Y-63872507D01*
X146280315Y-63918262D01*
X146300000Y-63985301D01*
X146300000Y-64703633D01*
X146513483Y-64646433D01*
X146513492Y-64646429D01*
X146727578Y-64546600D01*
X146921082Y-64411105D01*
X147088105Y-64244082D01*
X147218425Y-64057968D01*
X147273002Y-64014344D01*
X147342501Y-64007151D01*
X147404855Y-64038673D01*
X147421575Y-64057968D01*
X147551894Y-64244082D01*
X147718917Y-64411105D01*
X147912421Y-64546600D01*
X148126507Y-64646429D01*
X148126516Y-64646433D01*
X148340000Y-64703634D01*
X148340000Y-63985301D01*
X148359685Y-63918262D01*
X148412489Y-63872507D01*
X148481647Y-63862563D01*
X148554237Y-63873000D01*
X148554238Y-63873000D01*
X148625762Y-63873000D01*
X148625763Y-63873000D01*
X148698353Y-63862563D01*
X148767512Y-63872507D01*
G37*
%TD.AperFunction*%
%TA.AperFunction,Conductor*%
G36*
X147404855Y-69500546D02*
G01*
X147421575Y-69519842D01*
X147551500Y-69705395D01*
X147551505Y-69705401D01*
X147718599Y-69872495D01*
X147875591Y-69982422D01*
X147904594Y-70002730D01*
X147948218Y-70057307D01*
X147955411Y-70126806D01*
X147923889Y-70189160D01*
X147904593Y-70205880D01*
X147828626Y-70259072D01*
X147828625Y-70259072D01*
X148330883Y-70761330D01*
X148364368Y-70822653D01*
X148359384Y-70892345D01*
X148322357Y-70941805D01*
X148323602Y-70943241D01*
X148208238Y-71043202D01*
X148173046Y-71097962D01*
X148120242Y-71143717D01*
X148051083Y-71153660D01*
X147987528Y-71124634D01*
X147981050Y-71118603D01*
X147470840Y-70608393D01*
X147418294Y-70597833D01*
X147368111Y-70549218D01*
X147358281Y-70527075D01*
X147334359Y-70454882D01*
X147334356Y-70454875D01*
X147242315Y-70305654D01*
X147118345Y-70181684D01*
X146969124Y-70089643D01*
X146969117Y-70089640D01*
X146960283Y-70086713D01*
X146902839Y-70046939D01*
X146876018Y-69982422D01*
X146888335Y-69913647D01*
X146917682Y-69876432D01*
X146917573Y-69876323D01*
X146918495Y-69875400D01*
X146919588Y-69874015D01*
X146921385Y-69872505D01*
X146921401Y-69872495D01*
X147088495Y-69705401D01*
X147218424Y-69519842D01*
X147273002Y-69476217D01*
X147342500Y-69469023D01*
X147404855Y-69500546D01*
G37*
%TD.AperFunction*%
%TA.AperFunction,Conductor*%
G36*
X149944855Y-69500546D02*
G01*
X149961575Y-69519842D01*
X150091500Y-69705395D01*
X150091505Y-69705401D01*
X150258599Y-69872495D01*
X150415591Y-69982422D01*
X150444594Y-70002730D01*
X150488218Y-70057307D01*
X150495411Y-70126806D01*
X150463889Y-70189160D01*
X150444593Y-70205880D01*
X150368626Y-70259072D01*
X150368625Y-70259072D01*
X150870883Y-70761330D01*
X150904368Y-70822653D01*
X150899384Y-70892345D01*
X150862357Y-70941805D01*
X150863602Y-70943241D01*
X150748238Y-71043202D01*
X150713046Y-71097962D01*
X150660242Y-71143717D01*
X150591083Y-71153660D01*
X150527528Y-71124634D01*
X150521050Y-71118603D01*
X150015072Y-70612625D01*
X150015072Y-70612626D01*
X149961574Y-70689030D01*
X149906998Y-70732655D01*
X149837499Y-70739849D01*
X149775144Y-70708326D01*
X149758424Y-70689030D01*
X149704925Y-70612626D01*
X149704925Y-70612625D01*
X149198949Y-71118602D01*
X149137626Y-71152087D01*
X149067934Y-71147103D01*
X149012001Y-71105231D01*
X149006953Y-71097961D01*
X148971761Y-71043202D01*
X148856398Y-70943241D01*
X148858708Y-70940574D01*
X148824005Y-70900528D01*
X148814058Y-70831370D01*
X148843080Y-70767813D01*
X148849116Y-70761330D01*
X149351373Y-70259073D01*
X149351373Y-70259072D01*
X149275405Y-70205880D01*
X149231780Y-70151304D01*
X149224586Y-70081805D01*
X149256108Y-70019451D01*
X149275399Y-70002734D01*
X149461401Y-69872495D01*
X149628495Y-69705401D01*
X149758424Y-69519842D01*
X149813002Y-69476217D01*
X149882500Y-69469023D01*
X149944855Y-69500546D01*
G37*
%TD.AperFunction*%
%TA.AperFunction,Conductor*%
G36*
X152484855Y-69500546D02*
G01*
X152501575Y-69519842D01*
X152631500Y-69705395D01*
X152631505Y-69705401D01*
X152798599Y-69872495D01*
X152955591Y-69982422D01*
X152984594Y-70002730D01*
X153028218Y-70057307D01*
X153035411Y-70126806D01*
X153003889Y-70189160D01*
X152984593Y-70205880D01*
X152908626Y-70259072D01*
X152908625Y-70259072D01*
X153410883Y-70761330D01*
X153444368Y-70822653D01*
X153439384Y-70892345D01*
X153402357Y-70941805D01*
X153403602Y-70943241D01*
X153288238Y-71043202D01*
X153253046Y-71097962D01*
X153200242Y-71143717D01*
X153131083Y-71153660D01*
X153067528Y-71124634D01*
X153061050Y-71118603D01*
X152555072Y-70612625D01*
X152555072Y-70612626D01*
X152501574Y-70689030D01*
X152446998Y-70732655D01*
X152377499Y-70739849D01*
X152315144Y-70708326D01*
X152298424Y-70689030D01*
X152244925Y-70612626D01*
X152244925Y-70612625D01*
X151738949Y-71118602D01*
X151677626Y-71152087D01*
X151607934Y-71147103D01*
X151552001Y-71105231D01*
X151546953Y-71097961D01*
X151511761Y-71043202D01*
X151396398Y-70943241D01*
X151398708Y-70940574D01*
X151364005Y-70900528D01*
X151354058Y-70831370D01*
X151383080Y-70767813D01*
X151389116Y-70761330D01*
X151891373Y-70259073D01*
X151891373Y-70259072D01*
X151815405Y-70205880D01*
X151771780Y-70151304D01*
X151764586Y-70081805D01*
X151796108Y-70019451D01*
X151815399Y-70002734D01*
X152001401Y-69872495D01*
X152168495Y-69705401D01*
X152298424Y-69519842D01*
X152353002Y-69476217D01*
X152422500Y-69469023D01*
X152484855Y-69500546D01*
G37*
%TD.AperFunction*%
%TA.AperFunction,Conductor*%
G36*
X155024855Y-69500546D02*
G01*
X155041575Y-69519842D01*
X155171500Y-69705395D01*
X155171505Y-69705401D01*
X155338599Y-69872495D01*
X155495591Y-69982422D01*
X155524594Y-70002730D01*
X155568218Y-70057307D01*
X155575411Y-70126806D01*
X155543889Y-70189160D01*
X155524593Y-70205880D01*
X155448626Y-70259072D01*
X155448625Y-70259072D01*
X155950883Y-70761330D01*
X155984368Y-70822653D01*
X155979384Y-70892345D01*
X155942357Y-70941805D01*
X155943602Y-70943241D01*
X155828238Y-71043202D01*
X155793046Y-71097962D01*
X155740242Y-71143717D01*
X155671083Y-71153660D01*
X155607528Y-71124634D01*
X155601050Y-71118603D01*
X155095072Y-70612625D01*
X155095072Y-70612626D01*
X155041574Y-70689030D01*
X154986998Y-70732655D01*
X154917499Y-70739849D01*
X154855144Y-70708326D01*
X154838424Y-70689030D01*
X154784925Y-70612626D01*
X154784925Y-70612625D01*
X154278949Y-71118602D01*
X154217626Y-71152087D01*
X154147934Y-71147103D01*
X154092001Y-71105231D01*
X154086953Y-71097961D01*
X154051761Y-71043202D01*
X153936398Y-70943241D01*
X153938708Y-70940574D01*
X153904005Y-70900528D01*
X153894058Y-70831370D01*
X153923080Y-70767813D01*
X153929116Y-70761330D01*
X154431373Y-70259073D01*
X154431373Y-70259072D01*
X154355405Y-70205880D01*
X154311780Y-70151304D01*
X154304586Y-70081805D01*
X154336108Y-70019451D01*
X154355399Y-70002734D01*
X154541401Y-69872495D01*
X154708495Y-69705401D01*
X154838424Y-69519842D01*
X154893002Y-69476217D01*
X154962500Y-69469023D01*
X155024855Y-69500546D01*
G37*
%TD.AperFunction*%
%TA.AperFunction,Conductor*%
G36*
X157564855Y-69500546D02*
G01*
X157581575Y-69519842D01*
X157711500Y-69705395D01*
X157711505Y-69705401D01*
X157878599Y-69872495D01*
X158035591Y-69982422D01*
X158064594Y-70002730D01*
X158108218Y-70057307D01*
X158115411Y-70126806D01*
X158083889Y-70189160D01*
X158064593Y-70205880D01*
X157988626Y-70259072D01*
X157988625Y-70259072D01*
X158490883Y-70761330D01*
X158524368Y-70822653D01*
X158519384Y-70892345D01*
X158482357Y-70941805D01*
X158483602Y-70943241D01*
X158368238Y-71043202D01*
X158333046Y-71097962D01*
X158280242Y-71143717D01*
X158211083Y-71153660D01*
X158147528Y-71124634D01*
X158141050Y-71118603D01*
X157635072Y-70612625D01*
X157635072Y-70612626D01*
X157581574Y-70689030D01*
X157526998Y-70732655D01*
X157457499Y-70739849D01*
X157395144Y-70708326D01*
X157378424Y-70689030D01*
X157324925Y-70612626D01*
X157324925Y-70612625D01*
X156818949Y-71118602D01*
X156757626Y-71152087D01*
X156687934Y-71147103D01*
X156632001Y-71105231D01*
X156626953Y-71097961D01*
X156591761Y-71043202D01*
X156476398Y-70943241D01*
X156478708Y-70940574D01*
X156444005Y-70900528D01*
X156434058Y-70831370D01*
X156463080Y-70767813D01*
X156469116Y-70761330D01*
X156971373Y-70259073D01*
X156971373Y-70259072D01*
X156895405Y-70205880D01*
X156851780Y-70151304D01*
X156844586Y-70081805D01*
X156876108Y-70019451D01*
X156895399Y-70002734D01*
X157081401Y-69872495D01*
X157248495Y-69705401D01*
X157378424Y-69519842D01*
X157433002Y-69476217D01*
X157502500Y-69469023D01*
X157564855Y-69500546D01*
G37*
%TD.AperFunction*%
%TA.AperFunction,Conductor*%
G36*
X160104855Y-69500546D02*
G01*
X160121575Y-69519842D01*
X160251500Y-69705395D01*
X160251505Y-69705401D01*
X160418599Y-69872495D01*
X160575591Y-69982422D01*
X160604594Y-70002730D01*
X160648218Y-70057307D01*
X160655411Y-70126806D01*
X160623889Y-70189160D01*
X160604593Y-70205880D01*
X160528626Y-70259072D01*
X160528625Y-70259072D01*
X161030883Y-70761330D01*
X161064368Y-70822653D01*
X161059384Y-70892345D01*
X161022357Y-70941805D01*
X161023602Y-70943241D01*
X160908238Y-71043202D01*
X160873046Y-71097962D01*
X160820242Y-71143717D01*
X160751083Y-71153660D01*
X160687528Y-71124634D01*
X160681050Y-71118603D01*
X160175072Y-70612625D01*
X160175072Y-70612626D01*
X160121574Y-70689030D01*
X160066998Y-70732655D01*
X159997499Y-70739849D01*
X159935144Y-70708326D01*
X159918424Y-70689030D01*
X159864925Y-70612626D01*
X159864925Y-70612625D01*
X159358949Y-71118602D01*
X159297626Y-71152087D01*
X159227934Y-71147103D01*
X159172001Y-71105231D01*
X159166953Y-71097961D01*
X159131761Y-71043202D01*
X159016398Y-70943241D01*
X159018708Y-70940574D01*
X158984005Y-70900528D01*
X158974058Y-70831370D01*
X159003080Y-70767813D01*
X159009116Y-70761330D01*
X159511373Y-70259073D01*
X159511373Y-70259072D01*
X159435405Y-70205880D01*
X159391780Y-70151304D01*
X159384586Y-70081805D01*
X159416108Y-70019451D01*
X159435399Y-70002734D01*
X159621401Y-69872495D01*
X159788495Y-69705401D01*
X159918424Y-69519842D01*
X159973002Y-69476217D01*
X160042500Y-69469023D01*
X160104855Y-69500546D01*
G37*
%TD.AperFunction*%
%TA.AperFunction,Conductor*%
G36*
X162644855Y-69500546D02*
G01*
X162661575Y-69519842D01*
X162791500Y-69705395D01*
X162791505Y-69705401D01*
X162958599Y-69872495D01*
X163115591Y-69982422D01*
X163144594Y-70002730D01*
X163188218Y-70057307D01*
X163195411Y-70126806D01*
X163163889Y-70189160D01*
X163144593Y-70205880D01*
X163068626Y-70259072D01*
X163068625Y-70259072D01*
X163570883Y-70761330D01*
X163604368Y-70822653D01*
X163599384Y-70892345D01*
X163562357Y-70941805D01*
X163563602Y-70943241D01*
X163448238Y-71043202D01*
X163413046Y-71097962D01*
X163360242Y-71143717D01*
X163291083Y-71153660D01*
X163227528Y-71124634D01*
X163221050Y-71118603D01*
X162715072Y-70612625D01*
X162715072Y-70612626D01*
X162661574Y-70689030D01*
X162606998Y-70732655D01*
X162537499Y-70739849D01*
X162475144Y-70708326D01*
X162458424Y-70689030D01*
X162404925Y-70612626D01*
X162404925Y-70612625D01*
X161898949Y-71118602D01*
X161837626Y-71152087D01*
X161767934Y-71147103D01*
X161712001Y-71105231D01*
X161706953Y-71097961D01*
X161671761Y-71043202D01*
X161556398Y-70943241D01*
X161558708Y-70940574D01*
X161524005Y-70900528D01*
X161514058Y-70831370D01*
X161543080Y-70767813D01*
X161549116Y-70761330D01*
X162051373Y-70259073D01*
X162051373Y-70259072D01*
X161975405Y-70205880D01*
X161931780Y-70151304D01*
X161924586Y-70081805D01*
X161956108Y-70019451D01*
X161975399Y-70002734D01*
X162161401Y-69872495D01*
X162328495Y-69705401D01*
X162458424Y-69519842D01*
X162513002Y-69476217D01*
X162582500Y-69469023D01*
X162644855Y-69500546D01*
G37*
%TD.AperFunction*%
%TA.AperFunction,Conductor*%
G36*
X165184855Y-69500546D02*
G01*
X165201575Y-69519842D01*
X165331500Y-69705395D01*
X165331505Y-69705401D01*
X165498599Y-69872495D01*
X165655591Y-69982422D01*
X165684594Y-70002730D01*
X165728218Y-70057307D01*
X165735411Y-70126806D01*
X165703889Y-70189160D01*
X165684593Y-70205880D01*
X165608626Y-70259072D01*
X165608625Y-70259072D01*
X166110883Y-70761330D01*
X166144368Y-70822653D01*
X166139384Y-70892345D01*
X166102357Y-70941805D01*
X166103602Y-70943241D01*
X165988238Y-71043202D01*
X165953046Y-71097962D01*
X165900242Y-71143717D01*
X165831083Y-71153660D01*
X165767528Y-71124634D01*
X165761050Y-71118603D01*
X165255072Y-70612625D01*
X165255072Y-70612626D01*
X165201574Y-70689030D01*
X165146998Y-70732655D01*
X165077499Y-70739849D01*
X165015144Y-70708326D01*
X164998424Y-70689030D01*
X164944925Y-70612626D01*
X164944925Y-70612625D01*
X164438949Y-71118602D01*
X164377626Y-71152087D01*
X164307934Y-71147103D01*
X164252001Y-71105231D01*
X164246953Y-71097961D01*
X164211761Y-71043202D01*
X164096398Y-70943241D01*
X164098708Y-70940574D01*
X164064005Y-70900528D01*
X164054058Y-70831370D01*
X164083080Y-70767813D01*
X164089116Y-70761330D01*
X164591373Y-70259073D01*
X164591373Y-70259072D01*
X164515405Y-70205880D01*
X164471780Y-70151304D01*
X164464586Y-70081805D01*
X164496108Y-70019451D01*
X164515399Y-70002734D01*
X164701401Y-69872495D01*
X164868495Y-69705401D01*
X164998424Y-69519842D01*
X165053002Y-69476217D01*
X165122500Y-69469023D01*
X165184855Y-69500546D01*
G37*
%TD.AperFunction*%
%TA.AperFunction,Conductor*%
G36*
X167724855Y-69500546D02*
G01*
X167741575Y-69519842D01*
X167871500Y-69705395D01*
X167871505Y-69705401D01*
X168038599Y-69872495D01*
X168195591Y-69982422D01*
X168224594Y-70002730D01*
X168268218Y-70057307D01*
X168275411Y-70126806D01*
X168243889Y-70189160D01*
X168224593Y-70205880D01*
X168148626Y-70259072D01*
X168148625Y-70259072D01*
X168650883Y-70761330D01*
X168684368Y-70822653D01*
X168679384Y-70892345D01*
X168642357Y-70941805D01*
X168643602Y-70943241D01*
X168528238Y-71043202D01*
X168493046Y-71097962D01*
X168440242Y-71143717D01*
X168371083Y-71153660D01*
X168307528Y-71124634D01*
X168301050Y-71118603D01*
X167795072Y-70612625D01*
X167795072Y-70612626D01*
X167741574Y-70689030D01*
X167686998Y-70732655D01*
X167617499Y-70739849D01*
X167555144Y-70708326D01*
X167538424Y-70689030D01*
X167484925Y-70612626D01*
X167484925Y-70612625D01*
X166978949Y-71118602D01*
X166917626Y-71152087D01*
X166847934Y-71147103D01*
X166792001Y-71105231D01*
X166786953Y-71097961D01*
X166751761Y-71043202D01*
X166636398Y-70943241D01*
X166638708Y-70940574D01*
X166604005Y-70900528D01*
X166594058Y-70831370D01*
X166623080Y-70767813D01*
X166629116Y-70761330D01*
X167131373Y-70259073D01*
X167131373Y-70259072D01*
X167055405Y-70205880D01*
X167011780Y-70151304D01*
X167004586Y-70081805D01*
X167036108Y-70019451D01*
X167055399Y-70002734D01*
X167241401Y-69872495D01*
X167408495Y-69705401D01*
X167538424Y-69519842D01*
X167593002Y-69476217D01*
X167662500Y-69469023D01*
X167724855Y-69500546D01*
G37*
%TD.AperFunction*%
%TA.AperFunction,Conductor*%
G36*
X170264855Y-69500546D02*
G01*
X170281575Y-69519842D01*
X170411500Y-69705395D01*
X170411505Y-69705401D01*
X170578599Y-69872495D01*
X170735591Y-69982422D01*
X170764594Y-70002730D01*
X170808218Y-70057307D01*
X170815411Y-70126806D01*
X170783889Y-70189160D01*
X170764593Y-70205880D01*
X170688626Y-70259072D01*
X170688625Y-70259072D01*
X171190883Y-70761330D01*
X171224368Y-70822653D01*
X171219384Y-70892345D01*
X171182357Y-70941805D01*
X171183602Y-70943241D01*
X171068238Y-71043202D01*
X171033046Y-71097962D01*
X170980242Y-71143717D01*
X170911083Y-71153660D01*
X170847528Y-71124634D01*
X170841050Y-71118603D01*
X170335072Y-70612625D01*
X170335072Y-70612626D01*
X170281574Y-70689030D01*
X170226998Y-70732655D01*
X170157499Y-70739849D01*
X170095144Y-70708326D01*
X170078424Y-70689030D01*
X170024925Y-70612626D01*
X170024925Y-70612625D01*
X169518949Y-71118602D01*
X169457626Y-71152087D01*
X169387934Y-71147103D01*
X169332001Y-71105231D01*
X169326953Y-71097961D01*
X169291761Y-71043202D01*
X169176398Y-70943241D01*
X169178708Y-70940574D01*
X169144005Y-70900528D01*
X169134058Y-70831370D01*
X169163080Y-70767813D01*
X169169116Y-70761330D01*
X169671373Y-70259073D01*
X169671373Y-70259072D01*
X169595405Y-70205880D01*
X169551780Y-70151304D01*
X169544586Y-70081805D01*
X169576108Y-70019451D01*
X169595399Y-70002734D01*
X169781401Y-69872495D01*
X169948495Y-69705401D01*
X170078424Y-69519842D01*
X170133002Y-69476217D01*
X170202500Y-69469023D01*
X170264855Y-69500546D01*
G37*
%TD.AperFunction*%
%TA.AperFunction,Conductor*%
G36*
X172804855Y-69500546D02*
G01*
X172821575Y-69519842D01*
X172951500Y-69705395D01*
X172951505Y-69705401D01*
X173118599Y-69872495D01*
X173275591Y-69982422D01*
X173304594Y-70002730D01*
X173348218Y-70057307D01*
X173355411Y-70126806D01*
X173323889Y-70189160D01*
X173304593Y-70205880D01*
X173228626Y-70259072D01*
X173228625Y-70259072D01*
X173730883Y-70761330D01*
X173764368Y-70822653D01*
X173759384Y-70892345D01*
X173722357Y-70941805D01*
X173723602Y-70943241D01*
X173608238Y-71043202D01*
X173573046Y-71097962D01*
X173520242Y-71143717D01*
X173451083Y-71153660D01*
X173387528Y-71124634D01*
X173381050Y-71118603D01*
X172875072Y-70612625D01*
X172875072Y-70612626D01*
X172821574Y-70689030D01*
X172766998Y-70732655D01*
X172697499Y-70739849D01*
X172635144Y-70708326D01*
X172618424Y-70689030D01*
X172564925Y-70612626D01*
X172564925Y-70612625D01*
X172058949Y-71118602D01*
X171997626Y-71152087D01*
X171927934Y-71147103D01*
X171872001Y-71105231D01*
X171866953Y-71097961D01*
X171831761Y-71043202D01*
X171716398Y-70943241D01*
X171718708Y-70940574D01*
X171684005Y-70900528D01*
X171674058Y-70831370D01*
X171703080Y-70767813D01*
X171709116Y-70761330D01*
X172211373Y-70259073D01*
X172211373Y-70259072D01*
X172135405Y-70205880D01*
X172091780Y-70151304D01*
X172084586Y-70081805D01*
X172116108Y-70019451D01*
X172135399Y-70002734D01*
X172321401Y-69872495D01*
X172488495Y-69705401D01*
X172618424Y-69519842D01*
X172673002Y-69476217D01*
X172742500Y-69469023D01*
X172804855Y-69500546D01*
G37*
%TD.AperFunction*%
%TA.AperFunction,Conductor*%
G36*
X175344855Y-69500546D02*
G01*
X175361575Y-69519842D01*
X175491500Y-69705395D01*
X175491505Y-69705401D01*
X175658599Y-69872495D01*
X175815591Y-69982422D01*
X175844594Y-70002730D01*
X175888218Y-70057307D01*
X175895411Y-70126806D01*
X175863889Y-70189160D01*
X175844593Y-70205880D01*
X175768626Y-70259072D01*
X175768625Y-70259072D01*
X176270883Y-70761330D01*
X176304368Y-70822653D01*
X176299384Y-70892345D01*
X176262357Y-70941805D01*
X176263602Y-70943241D01*
X176148238Y-71043202D01*
X176113046Y-71097962D01*
X176060242Y-71143717D01*
X175991083Y-71153660D01*
X175927528Y-71124634D01*
X175921050Y-71118603D01*
X175415072Y-70612625D01*
X175415072Y-70612626D01*
X175361574Y-70689030D01*
X175306998Y-70732655D01*
X175237499Y-70739849D01*
X175175144Y-70708326D01*
X175158424Y-70689030D01*
X175104925Y-70612626D01*
X175104925Y-70612625D01*
X174598949Y-71118602D01*
X174537626Y-71152087D01*
X174467934Y-71147103D01*
X174412001Y-71105231D01*
X174406953Y-71097961D01*
X174371761Y-71043202D01*
X174256398Y-70943241D01*
X174258708Y-70940574D01*
X174224005Y-70900528D01*
X174214058Y-70831370D01*
X174243080Y-70767813D01*
X174249116Y-70761330D01*
X174751373Y-70259073D01*
X174751373Y-70259072D01*
X174675405Y-70205880D01*
X174631780Y-70151304D01*
X174624586Y-70081805D01*
X174656108Y-70019451D01*
X174675399Y-70002734D01*
X174861401Y-69872495D01*
X175028495Y-69705401D01*
X175158424Y-69519842D01*
X175213002Y-69476217D01*
X175282500Y-69469023D01*
X175344855Y-69500546D01*
G37*
%TD.AperFunction*%
%TA.AperFunction,Conductor*%
G36*
X177884855Y-69500546D02*
G01*
X177901575Y-69519842D01*
X178031500Y-69705395D01*
X178031505Y-69705401D01*
X178198599Y-69872495D01*
X178355591Y-69982422D01*
X178384594Y-70002730D01*
X178428218Y-70057307D01*
X178435411Y-70126806D01*
X178403889Y-70189160D01*
X178384593Y-70205880D01*
X178308626Y-70259072D01*
X178308625Y-70259072D01*
X178810883Y-70761330D01*
X178844368Y-70822653D01*
X178839384Y-70892345D01*
X178802357Y-70941805D01*
X178803602Y-70943241D01*
X178688238Y-71043202D01*
X178653046Y-71097962D01*
X178600242Y-71143717D01*
X178531083Y-71153660D01*
X178467528Y-71124634D01*
X178461050Y-71118603D01*
X177955072Y-70612625D01*
X177955072Y-70612626D01*
X177901574Y-70689030D01*
X177846998Y-70732655D01*
X177777499Y-70739849D01*
X177715144Y-70708326D01*
X177698424Y-70689030D01*
X177644925Y-70612626D01*
X177644925Y-70612625D01*
X177138949Y-71118602D01*
X177077626Y-71152087D01*
X177007934Y-71147103D01*
X176952001Y-71105231D01*
X176946953Y-71097961D01*
X176911761Y-71043202D01*
X176796398Y-70943241D01*
X176798708Y-70940574D01*
X176764005Y-70900528D01*
X176754058Y-70831370D01*
X176783080Y-70767813D01*
X176789116Y-70761330D01*
X177291373Y-70259073D01*
X177291373Y-70259072D01*
X177215405Y-70205880D01*
X177171780Y-70151304D01*
X177164586Y-70081805D01*
X177196108Y-70019451D01*
X177215399Y-70002734D01*
X177401401Y-69872495D01*
X177568495Y-69705401D01*
X177698424Y-69519842D01*
X177753002Y-69476217D01*
X177822500Y-69469023D01*
X177884855Y-69500546D01*
G37*
%TD.AperFunction*%
%TA.AperFunction,Conductor*%
G36*
X180424855Y-69500546D02*
G01*
X180441575Y-69519842D01*
X180571500Y-69705395D01*
X180571505Y-69705401D01*
X180738599Y-69872495D01*
X180895591Y-69982422D01*
X180924594Y-70002730D01*
X180968218Y-70057307D01*
X180975411Y-70126806D01*
X180943889Y-70189160D01*
X180924593Y-70205880D01*
X180848626Y-70259072D01*
X180848625Y-70259072D01*
X181350883Y-70761330D01*
X181384368Y-70822653D01*
X181379384Y-70892345D01*
X181342357Y-70941805D01*
X181343602Y-70943241D01*
X181228238Y-71043202D01*
X181193046Y-71097962D01*
X181140242Y-71143717D01*
X181071083Y-71153660D01*
X181007528Y-71124634D01*
X181001050Y-71118603D01*
X180495072Y-70612625D01*
X180495072Y-70612626D01*
X180441574Y-70689030D01*
X180386998Y-70732655D01*
X180317499Y-70739849D01*
X180255144Y-70708326D01*
X180238424Y-70689030D01*
X180184925Y-70612626D01*
X180184925Y-70612625D01*
X179678949Y-71118602D01*
X179617626Y-71152087D01*
X179547934Y-71147103D01*
X179492001Y-71105231D01*
X179486953Y-71097961D01*
X179451761Y-71043202D01*
X179336398Y-70943241D01*
X179338708Y-70940574D01*
X179304005Y-70900528D01*
X179294058Y-70831370D01*
X179323080Y-70767813D01*
X179329116Y-70761330D01*
X179831373Y-70259073D01*
X179831373Y-70259072D01*
X179755405Y-70205880D01*
X179711780Y-70151304D01*
X179704586Y-70081805D01*
X179736108Y-70019451D01*
X179755399Y-70002734D01*
X179941401Y-69872495D01*
X180108495Y-69705401D01*
X180238424Y-69519842D01*
X180293002Y-69476217D01*
X180362500Y-69469023D01*
X180424855Y-69500546D01*
G37*
%TD.AperFunction*%
%TA.AperFunction,Conductor*%
G36*
X182964855Y-69500546D02*
G01*
X182981575Y-69519842D01*
X183111500Y-69705395D01*
X183111505Y-69705401D01*
X183278599Y-69872495D01*
X183435591Y-69982422D01*
X183464594Y-70002730D01*
X183508218Y-70057307D01*
X183515411Y-70126806D01*
X183483889Y-70189160D01*
X183464593Y-70205880D01*
X183388626Y-70259072D01*
X183388625Y-70259072D01*
X183890883Y-70761330D01*
X183924368Y-70822653D01*
X183919384Y-70892345D01*
X183882357Y-70941805D01*
X183883602Y-70943241D01*
X183768238Y-71043202D01*
X183733046Y-71097962D01*
X183680242Y-71143717D01*
X183611083Y-71153660D01*
X183547528Y-71124634D01*
X183541050Y-71118603D01*
X183035072Y-70612625D01*
X183035072Y-70612626D01*
X182981574Y-70689030D01*
X182926998Y-70732655D01*
X182857499Y-70739849D01*
X182795144Y-70708326D01*
X182778424Y-70689030D01*
X182724925Y-70612626D01*
X182724925Y-70612625D01*
X182218949Y-71118602D01*
X182157626Y-71152087D01*
X182087934Y-71147103D01*
X182032001Y-71105231D01*
X182026953Y-71097961D01*
X181991761Y-71043202D01*
X181876398Y-70943241D01*
X181878708Y-70940574D01*
X181844005Y-70900528D01*
X181834058Y-70831370D01*
X181863080Y-70767813D01*
X181869116Y-70761330D01*
X182371373Y-70259073D01*
X182371373Y-70259072D01*
X182295405Y-70205880D01*
X182251780Y-70151304D01*
X182244586Y-70081805D01*
X182276108Y-70019451D01*
X182295399Y-70002734D01*
X182481401Y-69872495D01*
X182648495Y-69705401D01*
X182778424Y-69519842D01*
X182833002Y-69476217D01*
X182902500Y-69469023D01*
X182964855Y-69500546D01*
G37*
%TD.AperFunction*%
%TA.AperFunction,Conductor*%
G36*
X185504855Y-69500546D02*
G01*
X185521575Y-69519842D01*
X185651500Y-69705395D01*
X185651505Y-69705401D01*
X185818599Y-69872495D01*
X185975591Y-69982422D01*
X186004594Y-70002730D01*
X186048218Y-70057307D01*
X186055411Y-70126806D01*
X186023889Y-70189160D01*
X186004593Y-70205880D01*
X185928626Y-70259072D01*
X185928625Y-70259072D01*
X186430883Y-70761330D01*
X186464368Y-70822653D01*
X186459384Y-70892345D01*
X186422357Y-70941805D01*
X186423602Y-70943241D01*
X186308238Y-71043202D01*
X186273046Y-71097962D01*
X186220242Y-71143717D01*
X186151083Y-71153660D01*
X186087528Y-71124634D01*
X186081050Y-71118603D01*
X185575072Y-70612625D01*
X185575072Y-70612626D01*
X185521574Y-70689030D01*
X185466998Y-70732655D01*
X185397499Y-70739849D01*
X185335144Y-70708326D01*
X185318424Y-70689030D01*
X185264925Y-70612626D01*
X185264925Y-70612625D01*
X184758949Y-71118602D01*
X184697626Y-71152087D01*
X184627934Y-71147103D01*
X184572001Y-71105231D01*
X184566953Y-71097961D01*
X184531761Y-71043202D01*
X184416398Y-70943241D01*
X184418708Y-70940574D01*
X184384005Y-70900528D01*
X184374058Y-70831370D01*
X184403080Y-70767813D01*
X184409116Y-70761330D01*
X184911373Y-70259073D01*
X184911373Y-70259072D01*
X184835405Y-70205880D01*
X184791780Y-70151304D01*
X184784586Y-70081805D01*
X184816108Y-70019451D01*
X184835399Y-70002734D01*
X185021401Y-69872495D01*
X185188495Y-69705401D01*
X185318424Y-69519842D01*
X185373002Y-69476217D01*
X185442500Y-69469023D01*
X185504855Y-69500546D01*
G37*
%TD.AperFunction*%
%TA.AperFunction,Conductor*%
G36*
X194487512Y-63872507D02*
G01*
X194540315Y-63918262D01*
X194560000Y-63985301D01*
X194560000Y-64703633D01*
X194773483Y-64646433D01*
X194773492Y-64646429D01*
X194987578Y-64546600D01*
X195181082Y-64411105D01*
X195348105Y-64244082D01*
X195478425Y-64057968D01*
X195533002Y-64014344D01*
X195602501Y-64007151D01*
X195664855Y-64038673D01*
X195681575Y-64057968D01*
X195811894Y-64244082D01*
X195978917Y-64411105D01*
X196172421Y-64546599D01*
X196211910Y-64565013D01*
X196264350Y-64611185D01*
X196283503Y-64678378D01*
X196263288Y-64745260D01*
X196210123Y-64790595D01*
X196195243Y-64795445D01*
X196195375Y-64795849D01*
X196189193Y-64797857D01*
X196123161Y-64827256D01*
X196116849Y-64829664D01*
X196083677Y-64840286D01*
X195970083Y-64895537D01*
X195932912Y-64913618D01*
X195922240Y-64919126D01*
X195911010Y-64925264D01*
X195900206Y-64931521D01*
X195822983Y-64978824D01*
X195794602Y-64996210D01*
X195774012Y-65007684D01*
X195722944Y-65023019D01*
X195641940Y-65029107D01*
X195641941Y-65029107D01*
X195606915Y-65032971D01*
X195606913Y-65032971D01*
X195605512Y-65033126D01*
X195598709Y-65033500D01*
X193630743Y-65033500D01*
X193615122Y-65031775D01*
X193615095Y-65032061D01*
X193607333Y-65031326D01*
X193538172Y-65033500D01*
X193508649Y-65033500D01*
X193501778Y-65034367D01*
X193495959Y-65034825D01*
X193449374Y-65036289D01*
X193449368Y-65036290D01*
X193430126Y-65041880D01*
X193411087Y-65045823D01*
X193391217Y-65048334D01*
X193391203Y-65048337D01*
X193347883Y-65065488D01*
X193342358Y-65067380D01*
X193297613Y-65080380D01*
X193297610Y-65080381D01*
X193280366Y-65090579D01*
X193262905Y-65099133D01*
X193244274Y-65106510D01*
X193244262Y-65106517D01*
X193206570Y-65133902D01*
X193201687Y-65137109D01*
X193161580Y-65160829D01*
X193147414Y-65174995D01*
X193132624Y-65187627D01*
X193116414Y-65199404D01*
X193116411Y-65199407D01*
X193086710Y-65235309D01*
X193082777Y-65239631D01*
X192690228Y-65632181D01*
X192628905Y-65665666D01*
X192602547Y-65668500D01*
X157536453Y-65668500D01*
X157469414Y-65648815D01*
X157448772Y-65632181D01*
X156655175Y-64838584D01*
X156621690Y-64777261D01*
X156626674Y-64707569D01*
X156668546Y-64651636D01*
X156690452Y-64638521D01*
X156887575Y-64546601D01*
X156887577Y-64546600D01*
X157081082Y-64411105D01*
X157248105Y-64244082D01*
X157378425Y-64057968D01*
X157433002Y-64014344D01*
X157502501Y-64007151D01*
X157564855Y-64038673D01*
X157581575Y-64057968D01*
X157711894Y-64244082D01*
X157878917Y-64411105D01*
X158072421Y-64546600D01*
X158286507Y-64646429D01*
X158286516Y-64646433D01*
X158500000Y-64703634D01*
X158500000Y-63985301D01*
X158519685Y-63918262D01*
X158572489Y-63872507D01*
X158641647Y-63862563D01*
X158714237Y-63873000D01*
X158714238Y-63873000D01*
X158785762Y-63873000D01*
X158785763Y-63873000D01*
X158858353Y-63862563D01*
X158927512Y-63872507D01*
X158980315Y-63918262D01*
X159000000Y-63985301D01*
X159000000Y-64703633D01*
X159213483Y-64646433D01*
X159213492Y-64646429D01*
X159427578Y-64546600D01*
X159621082Y-64411105D01*
X159788105Y-64244082D01*
X159918425Y-64057968D01*
X159973002Y-64014344D01*
X160042501Y-64007151D01*
X160104855Y-64038673D01*
X160121575Y-64057968D01*
X160251894Y-64244082D01*
X160418917Y-64411105D01*
X160612421Y-64546600D01*
X160826507Y-64646429D01*
X160826516Y-64646433D01*
X161040000Y-64703634D01*
X161040000Y-63985301D01*
X161059685Y-63918262D01*
X161112489Y-63872507D01*
X161181647Y-63862563D01*
X161254237Y-63873000D01*
X161254238Y-63873000D01*
X161325762Y-63873000D01*
X161325763Y-63873000D01*
X161398353Y-63862563D01*
X161467512Y-63872507D01*
X161520315Y-63918262D01*
X161540000Y-63985301D01*
X161540000Y-64703633D01*
X161753483Y-64646433D01*
X161753492Y-64646429D01*
X161967578Y-64546600D01*
X162161082Y-64411105D01*
X162328105Y-64244082D01*
X162458425Y-64057968D01*
X162513002Y-64014344D01*
X162582501Y-64007151D01*
X162644855Y-64038673D01*
X162661575Y-64057968D01*
X162791894Y-64244082D01*
X162958917Y-64411105D01*
X163152421Y-64546600D01*
X163366507Y-64646429D01*
X163366516Y-64646433D01*
X163580000Y-64703634D01*
X163580000Y-63985301D01*
X163599685Y-63918262D01*
X163652489Y-63872507D01*
X163721647Y-63862563D01*
X163794237Y-63873000D01*
X163794238Y-63873000D01*
X163865762Y-63873000D01*
X163865763Y-63873000D01*
X163938352Y-63862563D01*
X164007510Y-63872507D01*
X164060314Y-63918261D01*
X164079999Y-63985301D01*
X164079999Y-64703634D01*
X164293483Y-64646433D01*
X164293492Y-64646429D01*
X164507578Y-64546600D01*
X164701082Y-64411105D01*
X164868105Y-64244082D01*
X164998425Y-64057968D01*
X165053002Y-64014344D01*
X165122501Y-64007151D01*
X165184855Y-64038673D01*
X165201575Y-64057968D01*
X165331894Y-64244082D01*
X165498917Y-64411105D01*
X165692421Y-64546600D01*
X165906507Y-64646429D01*
X165906516Y-64646433D01*
X166120000Y-64703634D01*
X166120000Y-63985301D01*
X166139685Y-63918262D01*
X166192489Y-63872507D01*
X166261647Y-63862563D01*
X166334237Y-63873000D01*
X166334238Y-63873000D01*
X166405762Y-63873000D01*
X166405763Y-63873000D01*
X166478352Y-63862563D01*
X166547510Y-63872507D01*
X166600314Y-63918261D01*
X166619999Y-63985301D01*
X166619999Y-64703634D01*
X166833483Y-64646433D01*
X166833492Y-64646429D01*
X167047578Y-64546600D01*
X167241082Y-64411105D01*
X167408105Y-64244082D01*
X167538425Y-64057968D01*
X167593002Y-64014344D01*
X167662501Y-64007151D01*
X167724855Y-64038673D01*
X167741575Y-64057968D01*
X167871894Y-64244082D01*
X168038917Y-64411105D01*
X168232421Y-64546600D01*
X168446507Y-64646429D01*
X168446516Y-64646433D01*
X168660000Y-64703634D01*
X168660000Y-63985301D01*
X168679685Y-63918262D01*
X168732489Y-63872507D01*
X168801647Y-63862563D01*
X168874237Y-63873000D01*
X168874238Y-63873000D01*
X168945762Y-63873000D01*
X168945763Y-63873000D01*
X169018353Y-63862563D01*
X169087512Y-63872507D01*
X169140315Y-63918262D01*
X169160000Y-63985301D01*
X169160000Y-64703634D01*
X169373483Y-64646433D01*
X169373492Y-64646429D01*
X169587578Y-64546600D01*
X169781082Y-64411105D01*
X169948105Y-64244082D01*
X170078425Y-64057968D01*
X170133002Y-64014344D01*
X170202501Y-64007151D01*
X170264855Y-64038673D01*
X170281575Y-64057968D01*
X170411894Y-64244082D01*
X170578917Y-64411105D01*
X170772421Y-64546600D01*
X170986507Y-64646429D01*
X170986516Y-64646433D01*
X171200000Y-64703634D01*
X171200000Y-63985301D01*
X171219685Y-63918262D01*
X171272489Y-63872507D01*
X171341647Y-63862563D01*
X171414237Y-63873000D01*
X171414238Y-63873000D01*
X171485762Y-63873000D01*
X171485763Y-63873000D01*
X171558353Y-63862563D01*
X171627512Y-63872507D01*
X171680315Y-63918262D01*
X171700000Y-63985301D01*
X171700000Y-64703633D01*
X171913483Y-64646433D01*
X171913492Y-64646429D01*
X172127578Y-64546600D01*
X172321082Y-64411105D01*
X172488105Y-64244082D01*
X172618425Y-64057968D01*
X172673002Y-64014344D01*
X172742501Y-64007151D01*
X172804855Y-64038673D01*
X172821575Y-64057968D01*
X172951894Y-64244082D01*
X173118917Y-64411105D01*
X173312421Y-64546600D01*
X173526507Y-64646429D01*
X173526516Y-64646433D01*
X173740000Y-64703634D01*
X173740000Y-63985301D01*
X173759685Y-63918262D01*
X173812489Y-63872507D01*
X173881647Y-63862563D01*
X173954237Y-63873000D01*
X173954238Y-63873000D01*
X174025762Y-63873000D01*
X174025763Y-63873000D01*
X174098353Y-63862563D01*
X174167512Y-63872507D01*
X174220315Y-63918262D01*
X174240000Y-63985301D01*
X174240000Y-64703633D01*
X174453483Y-64646433D01*
X174453492Y-64646429D01*
X174667578Y-64546600D01*
X174861082Y-64411105D01*
X175028105Y-64244082D01*
X175158425Y-64057968D01*
X175213002Y-64014344D01*
X175282501Y-64007151D01*
X175344855Y-64038673D01*
X175361575Y-64057968D01*
X175491894Y-64244082D01*
X175658917Y-64411105D01*
X175852421Y-64546600D01*
X176066507Y-64646429D01*
X176066516Y-64646433D01*
X176280000Y-64703634D01*
X176280000Y-63985301D01*
X176299685Y-63918262D01*
X176352489Y-63872507D01*
X176421647Y-63862563D01*
X176494237Y-63873000D01*
X176494238Y-63873000D01*
X176565762Y-63873000D01*
X176565763Y-63873000D01*
X176638353Y-63862563D01*
X176707512Y-63872507D01*
X176760315Y-63918262D01*
X176780000Y-63985301D01*
X176780000Y-64703633D01*
X176993483Y-64646433D01*
X176993492Y-64646429D01*
X177207578Y-64546600D01*
X177401082Y-64411105D01*
X177568105Y-64244082D01*
X177698425Y-64057968D01*
X177753002Y-64014344D01*
X177822501Y-64007151D01*
X177884855Y-64038673D01*
X177901575Y-64057968D01*
X178031894Y-64244082D01*
X178198917Y-64411105D01*
X178392421Y-64546600D01*
X178606507Y-64646429D01*
X178606516Y-64646433D01*
X178820000Y-64703634D01*
X178820000Y-63985301D01*
X178839685Y-63918262D01*
X178892489Y-63872507D01*
X178961647Y-63862563D01*
X179034237Y-63873000D01*
X179034238Y-63873000D01*
X179105762Y-63873000D01*
X179105763Y-63873000D01*
X179178353Y-63862563D01*
X179247512Y-63872507D01*
X179300315Y-63918262D01*
X179320000Y-63985301D01*
X179320000Y-64703633D01*
X179533483Y-64646433D01*
X179533492Y-64646429D01*
X179747578Y-64546600D01*
X179941082Y-64411105D01*
X180108105Y-64244082D01*
X180238425Y-64057968D01*
X180293002Y-64014344D01*
X180362501Y-64007151D01*
X180424855Y-64038673D01*
X180441575Y-64057968D01*
X180571894Y-64244082D01*
X180738917Y-64411105D01*
X180932421Y-64546600D01*
X181146507Y-64646429D01*
X181146516Y-64646433D01*
X181360000Y-64703634D01*
X181360000Y-63985301D01*
X181379685Y-63918262D01*
X181432489Y-63872507D01*
X181501647Y-63862563D01*
X181574237Y-63873000D01*
X181574238Y-63873000D01*
X181645762Y-63873000D01*
X181645763Y-63873000D01*
X181718353Y-63862563D01*
X181787512Y-63872507D01*
X181840315Y-63918262D01*
X181860000Y-63985301D01*
X181860000Y-64703633D01*
X182073483Y-64646433D01*
X182073492Y-64646429D01*
X182287578Y-64546600D01*
X182481082Y-64411105D01*
X182648105Y-64244082D01*
X182778425Y-64057968D01*
X182833002Y-64014344D01*
X182902501Y-64007151D01*
X182964855Y-64038673D01*
X182981575Y-64057968D01*
X183111894Y-64244082D01*
X183278917Y-64411105D01*
X183472421Y-64546600D01*
X183686507Y-64646429D01*
X183686516Y-64646433D01*
X183900000Y-64703634D01*
X183900000Y-63985301D01*
X183919685Y-63918262D01*
X183972489Y-63872507D01*
X184041647Y-63862563D01*
X184114237Y-63873000D01*
X184114238Y-63873000D01*
X184185762Y-63873000D01*
X184185763Y-63873000D01*
X184258353Y-63862563D01*
X184327512Y-63872507D01*
X184380315Y-63918262D01*
X184400000Y-63985301D01*
X184400000Y-64703634D01*
X184613483Y-64646433D01*
X184613492Y-64646429D01*
X184827578Y-64546600D01*
X185021082Y-64411105D01*
X185188105Y-64244082D01*
X185318425Y-64057968D01*
X185373002Y-64014344D01*
X185442501Y-64007151D01*
X185504855Y-64038673D01*
X185521575Y-64057968D01*
X185651894Y-64244082D01*
X185818917Y-64411105D01*
X186012421Y-64546600D01*
X186226507Y-64646429D01*
X186226516Y-64646433D01*
X186439999Y-64703633D01*
X186439999Y-63985301D01*
X186459683Y-63918262D01*
X186512487Y-63872507D01*
X186581646Y-63862563D01*
X186588380Y-63863531D01*
X186654237Y-63873000D01*
X186654238Y-63873000D01*
X186725762Y-63873000D01*
X186725763Y-63873000D01*
X186798353Y-63862563D01*
X186867512Y-63872507D01*
X186920315Y-63918262D01*
X186940000Y-63985301D01*
X186940000Y-64703633D01*
X187153483Y-64646433D01*
X187153492Y-64646429D01*
X187367578Y-64546600D01*
X187561082Y-64411105D01*
X187728105Y-64244082D01*
X187858425Y-64057968D01*
X187913002Y-64014344D01*
X187982501Y-64007151D01*
X188044855Y-64038673D01*
X188061575Y-64057968D01*
X188191894Y-64244082D01*
X188358917Y-64411105D01*
X188552421Y-64546600D01*
X188766507Y-64646429D01*
X188766516Y-64646433D01*
X188980000Y-64703634D01*
X188980000Y-63985301D01*
X188999685Y-63918262D01*
X189052489Y-63872507D01*
X189121647Y-63862563D01*
X189194237Y-63873000D01*
X189194238Y-63873000D01*
X189265762Y-63873000D01*
X189265763Y-63873000D01*
X189338352Y-63862563D01*
X189407510Y-63872507D01*
X189460314Y-63918261D01*
X189479999Y-63985301D01*
X189479999Y-64703634D01*
X189693483Y-64646433D01*
X189693492Y-64646429D01*
X189907578Y-64546600D01*
X190101082Y-64411105D01*
X190268105Y-64244082D01*
X190398425Y-64057968D01*
X190453002Y-64014344D01*
X190522501Y-64007151D01*
X190584855Y-64038673D01*
X190601575Y-64057968D01*
X190731894Y-64244082D01*
X190898917Y-64411105D01*
X191092421Y-64546600D01*
X191306507Y-64646429D01*
X191306516Y-64646433D01*
X191520000Y-64703634D01*
X191520000Y-63985301D01*
X191539685Y-63918262D01*
X191592489Y-63872507D01*
X191661647Y-63862563D01*
X191734237Y-63873000D01*
X191734238Y-63873000D01*
X191805762Y-63873000D01*
X191805763Y-63873000D01*
X191878353Y-63862563D01*
X191947512Y-63872507D01*
X192000315Y-63918262D01*
X192020000Y-63985301D01*
X192020000Y-64703633D01*
X192233483Y-64646433D01*
X192233492Y-64646429D01*
X192447578Y-64546600D01*
X192641082Y-64411105D01*
X192808105Y-64244082D01*
X192938425Y-64057968D01*
X192993002Y-64014344D01*
X193062501Y-64007151D01*
X193124855Y-64038673D01*
X193141575Y-64057968D01*
X193271894Y-64244082D01*
X193438917Y-64411105D01*
X193632421Y-64546600D01*
X193846507Y-64646429D01*
X193846516Y-64646433D01*
X194060000Y-64703634D01*
X194060000Y-63985301D01*
X194079685Y-63918262D01*
X194132489Y-63872507D01*
X194201647Y-63862563D01*
X194274237Y-63873000D01*
X194274238Y-63873000D01*
X194345762Y-63873000D01*
X194345763Y-63873000D01*
X194418353Y-63862563D01*
X194487512Y-63872507D01*
G37*
%TD.AperFunction*%
%TA.AperFunction,Conductor*%
G36*
X137883692Y-63142685D02*
G01*
X137929447Y-63195489D01*
X137939391Y-63264647D01*
X137935631Y-63281933D01*
X137930000Y-63301111D01*
X137930000Y-63444888D01*
X137935631Y-63464067D01*
X137935630Y-63533936D01*
X137897855Y-63592714D01*
X137834299Y-63621738D01*
X137816653Y-63623000D01*
X136503347Y-63623000D01*
X136436308Y-63603315D01*
X136390553Y-63550511D01*
X136380609Y-63481353D01*
X136384369Y-63464067D01*
X136390000Y-63444888D01*
X136390000Y-63301111D01*
X136384369Y-63281933D01*
X136384370Y-63212064D01*
X136422145Y-63153286D01*
X136485701Y-63124262D01*
X136503347Y-63123000D01*
X137816653Y-63123000D01*
X137883692Y-63142685D01*
G37*
%TD.AperFunction*%
%TA.AperFunction,Conductor*%
G36*
X140423692Y-63142685D02*
G01*
X140469447Y-63195489D01*
X140479391Y-63264647D01*
X140475631Y-63281933D01*
X140470000Y-63301111D01*
X140470000Y-63444888D01*
X140475631Y-63464067D01*
X140475630Y-63533936D01*
X140437855Y-63592714D01*
X140374299Y-63621738D01*
X140356653Y-63623000D01*
X139043347Y-63623000D01*
X138976308Y-63603315D01*
X138930553Y-63550511D01*
X138920609Y-63481353D01*
X138924369Y-63464067D01*
X138930000Y-63444888D01*
X138930000Y-63301111D01*
X138924369Y-63281933D01*
X138924370Y-63212064D01*
X138962145Y-63153286D01*
X139025701Y-63124262D01*
X139043347Y-63123000D01*
X140356653Y-63123000D01*
X140423692Y-63142685D01*
G37*
%TD.AperFunction*%
%TA.AperFunction,Conductor*%
G36*
X142963692Y-63142685D02*
G01*
X143009447Y-63195489D01*
X143019391Y-63264647D01*
X143015631Y-63281933D01*
X143010000Y-63301111D01*
X143010000Y-63444888D01*
X143015631Y-63464067D01*
X143015630Y-63533936D01*
X142977855Y-63592714D01*
X142914299Y-63621738D01*
X142896653Y-63623000D01*
X141583347Y-63623000D01*
X141516308Y-63603315D01*
X141470553Y-63550511D01*
X141460609Y-63481353D01*
X141464369Y-63464067D01*
X141470000Y-63444888D01*
X141470000Y-63301111D01*
X141464369Y-63281933D01*
X141464370Y-63212064D01*
X141502145Y-63153286D01*
X141565701Y-63124262D01*
X141583347Y-63123000D01*
X142896653Y-63123000D01*
X142963692Y-63142685D01*
G37*
%TD.AperFunction*%
%TA.AperFunction,Conductor*%
G36*
X145503692Y-63142685D02*
G01*
X145549447Y-63195489D01*
X145559391Y-63264647D01*
X145555631Y-63281933D01*
X145550000Y-63301111D01*
X145550000Y-63444888D01*
X145555631Y-63464067D01*
X145555630Y-63533936D01*
X145517855Y-63592714D01*
X145454299Y-63621738D01*
X145436653Y-63623000D01*
X144123347Y-63623000D01*
X144056308Y-63603315D01*
X144010553Y-63550511D01*
X144000609Y-63481353D01*
X144004369Y-63464067D01*
X144010000Y-63444888D01*
X144010000Y-63301111D01*
X144004369Y-63281933D01*
X144004370Y-63212064D01*
X144042145Y-63153286D01*
X144105701Y-63124262D01*
X144123347Y-63123000D01*
X145436653Y-63123000D01*
X145503692Y-63142685D01*
G37*
%TD.AperFunction*%
%TA.AperFunction,Conductor*%
G36*
X148043692Y-63142685D02*
G01*
X148089447Y-63195489D01*
X148099391Y-63264647D01*
X148095631Y-63281933D01*
X148090000Y-63301111D01*
X148090000Y-63444888D01*
X148095631Y-63464067D01*
X148095630Y-63533936D01*
X148057855Y-63592714D01*
X147994299Y-63621738D01*
X147976653Y-63623000D01*
X146663347Y-63623000D01*
X146596308Y-63603315D01*
X146550553Y-63550511D01*
X146540609Y-63481353D01*
X146544369Y-63464067D01*
X146550000Y-63444888D01*
X146550000Y-63301111D01*
X146544369Y-63281933D01*
X146544370Y-63212064D01*
X146582145Y-63153286D01*
X146645701Y-63124262D01*
X146663347Y-63123000D01*
X147976653Y-63123000D01*
X148043692Y-63142685D01*
G37*
%TD.AperFunction*%
%TA.AperFunction,Conductor*%
G36*
X158203692Y-63142685D02*
G01*
X158249447Y-63195489D01*
X158259391Y-63264647D01*
X158255631Y-63281933D01*
X158250000Y-63301111D01*
X158250000Y-63444888D01*
X158255631Y-63464067D01*
X158255630Y-63533936D01*
X158217855Y-63592714D01*
X158154299Y-63621738D01*
X158136653Y-63623000D01*
X156823347Y-63623000D01*
X156756308Y-63603315D01*
X156710553Y-63550511D01*
X156700609Y-63481353D01*
X156704369Y-63464067D01*
X156710000Y-63444888D01*
X156710000Y-63301111D01*
X156704369Y-63281933D01*
X156704370Y-63212064D01*
X156742145Y-63153286D01*
X156805701Y-63124262D01*
X156823347Y-63123000D01*
X158136653Y-63123000D01*
X158203692Y-63142685D01*
G37*
%TD.AperFunction*%
%TA.AperFunction,Conductor*%
G36*
X160743692Y-63142685D02*
G01*
X160789447Y-63195489D01*
X160799391Y-63264647D01*
X160795631Y-63281933D01*
X160790000Y-63301111D01*
X160790000Y-63444888D01*
X160795631Y-63464067D01*
X160795630Y-63533936D01*
X160757855Y-63592714D01*
X160694299Y-63621738D01*
X160676653Y-63623000D01*
X159363347Y-63623000D01*
X159296308Y-63603315D01*
X159250553Y-63550511D01*
X159240609Y-63481353D01*
X159244369Y-63464067D01*
X159250000Y-63444888D01*
X159250000Y-63301111D01*
X159244369Y-63281933D01*
X159244370Y-63212064D01*
X159282145Y-63153286D01*
X159345701Y-63124262D01*
X159363347Y-63123000D01*
X160676653Y-63123000D01*
X160743692Y-63142685D01*
G37*
%TD.AperFunction*%
%TA.AperFunction,Conductor*%
G36*
X163283692Y-63142685D02*
G01*
X163329447Y-63195489D01*
X163339391Y-63264647D01*
X163335631Y-63281933D01*
X163330000Y-63301111D01*
X163330000Y-63444888D01*
X163335631Y-63464067D01*
X163335630Y-63533936D01*
X163297855Y-63592714D01*
X163234299Y-63621738D01*
X163216653Y-63623000D01*
X161903347Y-63623000D01*
X161836308Y-63603315D01*
X161790553Y-63550511D01*
X161780609Y-63481353D01*
X161784369Y-63464067D01*
X161790000Y-63444888D01*
X161790000Y-63301111D01*
X161784369Y-63281933D01*
X161784370Y-63212064D01*
X161822145Y-63153286D01*
X161885701Y-63124262D01*
X161903347Y-63123000D01*
X163216653Y-63123000D01*
X163283692Y-63142685D01*
G37*
%TD.AperFunction*%
%TA.AperFunction,Conductor*%
G36*
X165823692Y-63142685D02*
G01*
X165869447Y-63195489D01*
X165879391Y-63264647D01*
X165875631Y-63281933D01*
X165870000Y-63301111D01*
X165870000Y-63444888D01*
X165875631Y-63464067D01*
X165875630Y-63533936D01*
X165837855Y-63592714D01*
X165774299Y-63621738D01*
X165756653Y-63623000D01*
X164443347Y-63623000D01*
X164376308Y-63603315D01*
X164330553Y-63550511D01*
X164320609Y-63481353D01*
X164324369Y-63464067D01*
X164330000Y-63444888D01*
X164330000Y-63301111D01*
X164324369Y-63281933D01*
X164324370Y-63212064D01*
X164362145Y-63153286D01*
X164425701Y-63124262D01*
X164443347Y-63123000D01*
X165756653Y-63123000D01*
X165823692Y-63142685D01*
G37*
%TD.AperFunction*%
%TA.AperFunction,Conductor*%
G36*
X168363692Y-63142685D02*
G01*
X168409447Y-63195489D01*
X168419391Y-63264647D01*
X168415631Y-63281933D01*
X168410000Y-63301111D01*
X168410000Y-63444888D01*
X168415631Y-63464067D01*
X168415630Y-63533936D01*
X168377855Y-63592714D01*
X168314299Y-63621738D01*
X168296653Y-63623000D01*
X166983347Y-63623000D01*
X166916308Y-63603315D01*
X166870553Y-63550511D01*
X166860609Y-63481353D01*
X166864369Y-63464067D01*
X166870000Y-63444888D01*
X166870000Y-63301111D01*
X166864369Y-63281933D01*
X166864370Y-63212064D01*
X166902145Y-63153286D01*
X166965701Y-63124262D01*
X166983347Y-63123000D01*
X168296653Y-63123000D01*
X168363692Y-63142685D01*
G37*
%TD.AperFunction*%
%TA.AperFunction,Conductor*%
G36*
X170903692Y-63142685D02*
G01*
X170949447Y-63195489D01*
X170959391Y-63264647D01*
X170955631Y-63281933D01*
X170950000Y-63301111D01*
X170950000Y-63444888D01*
X170955631Y-63464067D01*
X170955630Y-63533936D01*
X170917855Y-63592714D01*
X170854299Y-63621738D01*
X170836653Y-63623000D01*
X169523347Y-63623000D01*
X169456308Y-63603315D01*
X169410553Y-63550511D01*
X169400609Y-63481353D01*
X169404369Y-63464067D01*
X169410000Y-63444888D01*
X169410000Y-63301111D01*
X169404369Y-63281933D01*
X169404370Y-63212064D01*
X169442145Y-63153286D01*
X169505701Y-63124262D01*
X169523347Y-63123000D01*
X170836653Y-63123000D01*
X170903692Y-63142685D01*
G37*
%TD.AperFunction*%
%TA.AperFunction,Conductor*%
G36*
X173443692Y-63142685D02*
G01*
X173489447Y-63195489D01*
X173499391Y-63264647D01*
X173495631Y-63281933D01*
X173490000Y-63301111D01*
X173490000Y-63444888D01*
X173495631Y-63464067D01*
X173495630Y-63533936D01*
X173457855Y-63592714D01*
X173394299Y-63621738D01*
X173376653Y-63623000D01*
X172063347Y-63623000D01*
X171996308Y-63603315D01*
X171950553Y-63550511D01*
X171940609Y-63481353D01*
X171944369Y-63464067D01*
X171950000Y-63444888D01*
X171950000Y-63301111D01*
X171944369Y-63281933D01*
X171944370Y-63212064D01*
X171982145Y-63153286D01*
X172045701Y-63124262D01*
X172063347Y-63123000D01*
X173376653Y-63123000D01*
X173443692Y-63142685D01*
G37*
%TD.AperFunction*%
%TA.AperFunction,Conductor*%
G36*
X175983692Y-63142685D02*
G01*
X176029447Y-63195489D01*
X176039391Y-63264647D01*
X176035631Y-63281933D01*
X176030000Y-63301111D01*
X176030000Y-63444888D01*
X176035631Y-63464067D01*
X176035630Y-63533936D01*
X175997855Y-63592714D01*
X175934299Y-63621738D01*
X175916653Y-63623000D01*
X174603347Y-63623000D01*
X174536308Y-63603315D01*
X174490553Y-63550511D01*
X174480609Y-63481353D01*
X174484369Y-63464067D01*
X174490000Y-63444888D01*
X174490000Y-63301111D01*
X174484369Y-63281933D01*
X174484370Y-63212064D01*
X174522145Y-63153286D01*
X174585701Y-63124262D01*
X174603347Y-63123000D01*
X175916653Y-63123000D01*
X175983692Y-63142685D01*
G37*
%TD.AperFunction*%
%TA.AperFunction,Conductor*%
G36*
X178523692Y-63142685D02*
G01*
X178569447Y-63195489D01*
X178579391Y-63264647D01*
X178575631Y-63281933D01*
X178570000Y-63301111D01*
X178570000Y-63444888D01*
X178575631Y-63464067D01*
X178575630Y-63533936D01*
X178537855Y-63592714D01*
X178474299Y-63621738D01*
X178456653Y-63623000D01*
X177143347Y-63623000D01*
X177076308Y-63603315D01*
X177030553Y-63550511D01*
X177020609Y-63481353D01*
X177024369Y-63464067D01*
X177030000Y-63444888D01*
X177030000Y-63301111D01*
X177024369Y-63281933D01*
X177024370Y-63212064D01*
X177062145Y-63153286D01*
X177125701Y-63124262D01*
X177143347Y-63123000D01*
X178456653Y-63123000D01*
X178523692Y-63142685D01*
G37*
%TD.AperFunction*%
%TA.AperFunction,Conductor*%
G36*
X181063692Y-63142685D02*
G01*
X181109447Y-63195489D01*
X181119391Y-63264647D01*
X181115631Y-63281933D01*
X181110000Y-63301111D01*
X181110000Y-63444888D01*
X181115631Y-63464067D01*
X181115630Y-63533936D01*
X181077855Y-63592714D01*
X181014299Y-63621738D01*
X180996653Y-63623000D01*
X179683347Y-63623000D01*
X179616308Y-63603315D01*
X179570553Y-63550511D01*
X179560609Y-63481353D01*
X179564369Y-63464067D01*
X179570000Y-63444888D01*
X179570000Y-63301111D01*
X179564369Y-63281933D01*
X179564370Y-63212064D01*
X179602145Y-63153286D01*
X179665701Y-63124262D01*
X179683347Y-63123000D01*
X180996653Y-63123000D01*
X181063692Y-63142685D01*
G37*
%TD.AperFunction*%
%TA.AperFunction,Conductor*%
G36*
X183603692Y-63142685D02*
G01*
X183649447Y-63195489D01*
X183659391Y-63264647D01*
X183655631Y-63281933D01*
X183650000Y-63301111D01*
X183650000Y-63444888D01*
X183655631Y-63464067D01*
X183655630Y-63533936D01*
X183617855Y-63592714D01*
X183554299Y-63621738D01*
X183536653Y-63623000D01*
X182223347Y-63623000D01*
X182156308Y-63603315D01*
X182110553Y-63550511D01*
X182100609Y-63481353D01*
X182104369Y-63464067D01*
X182110000Y-63444888D01*
X182110000Y-63301111D01*
X182104369Y-63281933D01*
X182104370Y-63212064D01*
X182142145Y-63153286D01*
X182205701Y-63124262D01*
X182223347Y-63123000D01*
X183536653Y-63123000D01*
X183603692Y-63142685D01*
G37*
%TD.AperFunction*%
%TA.AperFunction,Conductor*%
G36*
X186143692Y-63142685D02*
G01*
X186189447Y-63195489D01*
X186199391Y-63264647D01*
X186195631Y-63281933D01*
X186190000Y-63301111D01*
X186190000Y-63444888D01*
X186195631Y-63464067D01*
X186195630Y-63533936D01*
X186157855Y-63592714D01*
X186094299Y-63621738D01*
X186076653Y-63623000D01*
X184763347Y-63623000D01*
X184696308Y-63603315D01*
X184650553Y-63550511D01*
X184640609Y-63481353D01*
X184644369Y-63464067D01*
X184650000Y-63444888D01*
X184650000Y-63301111D01*
X184644369Y-63281933D01*
X184644370Y-63212064D01*
X184682145Y-63153286D01*
X184745701Y-63124262D01*
X184763347Y-63123000D01*
X186076653Y-63123000D01*
X186143692Y-63142685D01*
G37*
%TD.AperFunction*%
%TA.AperFunction,Conductor*%
G36*
X188683692Y-63142685D02*
G01*
X188729447Y-63195489D01*
X188739391Y-63264647D01*
X188735631Y-63281933D01*
X188730000Y-63301111D01*
X188730000Y-63444888D01*
X188735631Y-63464067D01*
X188735630Y-63533936D01*
X188697855Y-63592714D01*
X188634299Y-63621738D01*
X188616653Y-63623000D01*
X187303347Y-63623000D01*
X187236308Y-63603315D01*
X187190553Y-63550511D01*
X187180609Y-63481353D01*
X187184369Y-63464067D01*
X187190000Y-63444888D01*
X187190000Y-63301111D01*
X187184369Y-63281933D01*
X187184370Y-63212064D01*
X187222145Y-63153286D01*
X187285701Y-63124262D01*
X187303347Y-63123000D01*
X188616653Y-63123000D01*
X188683692Y-63142685D01*
G37*
%TD.AperFunction*%
%TA.AperFunction,Conductor*%
G36*
X191223692Y-63142685D02*
G01*
X191269447Y-63195489D01*
X191279391Y-63264647D01*
X191275631Y-63281933D01*
X191270000Y-63301111D01*
X191270000Y-63444888D01*
X191275631Y-63464067D01*
X191275630Y-63533936D01*
X191237855Y-63592714D01*
X191174299Y-63621738D01*
X191156653Y-63623000D01*
X189843347Y-63623000D01*
X189776308Y-63603315D01*
X189730553Y-63550511D01*
X189720609Y-63481353D01*
X189724369Y-63464067D01*
X189730000Y-63444888D01*
X189730000Y-63301111D01*
X189724369Y-63281933D01*
X189724370Y-63212064D01*
X189762145Y-63153286D01*
X189825701Y-63124262D01*
X189843347Y-63123000D01*
X191156653Y-63123000D01*
X191223692Y-63142685D01*
G37*
%TD.AperFunction*%
%TA.AperFunction,Conductor*%
G36*
X193763692Y-63142685D02*
G01*
X193809447Y-63195489D01*
X193819391Y-63264647D01*
X193815631Y-63281933D01*
X193810000Y-63301111D01*
X193810000Y-63444888D01*
X193815631Y-63464067D01*
X193815630Y-63533936D01*
X193777855Y-63592714D01*
X193714299Y-63621738D01*
X193696653Y-63623000D01*
X192383347Y-63623000D01*
X192316308Y-63603315D01*
X192270553Y-63550511D01*
X192260609Y-63481353D01*
X192264369Y-63464067D01*
X192270000Y-63444888D01*
X192270000Y-63301111D01*
X192264369Y-63281933D01*
X192264370Y-63212064D01*
X192302145Y-63153286D01*
X192365701Y-63124262D01*
X192383347Y-63123000D01*
X193696653Y-63123000D01*
X193763692Y-63142685D01*
G37*
%TD.AperFunction*%
%TA.AperFunction,Conductor*%
G36*
X196303692Y-63142685D02*
G01*
X196349447Y-63195489D01*
X196359391Y-63264647D01*
X196355631Y-63281933D01*
X196350000Y-63301111D01*
X196350000Y-63444888D01*
X196355631Y-63464067D01*
X196355630Y-63533936D01*
X196317855Y-63592714D01*
X196254299Y-63621738D01*
X196236653Y-63623000D01*
X194923347Y-63623000D01*
X194856308Y-63603315D01*
X194810553Y-63550511D01*
X194800609Y-63481353D01*
X194804369Y-63464067D01*
X194810000Y-63444888D01*
X194810000Y-63301111D01*
X194804369Y-63281933D01*
X194804370Y-63212064D01*
X194842145Y-63153286D01*
X194905701Y-63124262D01*
X194923347Y-63123000D01*
X196236653Y-63123000D01*
X196303692Y-63142685D01*
G37*
%TD.AperFunction*%
%TD*%
M02*
