%TF.GenerationSoftware,KiCad,Pcbnew,7.0.7*%
%TF.CreationDate,2023-09-16T00:08:42-05:00*%
%TF.ProjectId,50-to-34-pin-floppy-adapter,35302d74-6f2d-4333-942d-70696e2d666c,rev?*%
%TF.SameCoordinates,Original*%
%TF.FileFunction,Legend,Top*%
%TF.FilePolarity,Positive*%
%FSLAX46Y46*%
G04 Gerber Fmt 4.6, Leading zero omitted, Abs format (unit mm)*
G04 Created by KiCad (PCBNEW 7.0.7) date 2023-09-16 00:08:42*
%MOMM*%
%LPD*%
G01*
G04 APERTURE LIST*
%ADD10C,0.150000*%
%ADD11C,0.120000*%
G04 APERTURE END LIST*
D10*
X192900541Y-71132819D02*
X193519588Y-71132819D01*
X193519588Y-71132819D02*
X193186255Y-71513771D01*
X193186255Y-71513771D02*
X193329112Y-71513771D01*
X193329112Y-71513771D02*
X193424350Y-71561390D01*
X193424350Y-71561390D02*
X193471969Y-71609009D01*
X193471969Y-71609009D02*
X193519588Y-71704247D01*
X193519588Y-71704247D02*
X193519588Y-71942342D01*
X193519588Y-71942342D02*
X193471969Y-72037580D01*
X193471969Y-72037580D02*
X193424350Y-72085200D01*
X193424350Y-72085200D02*
X193329112Y-72132819D01*
X193329112Y-72132819D02*
X193043398Y-72132819D01*
X193043398Y-72132819D02*
X192948160Y-72085200D01*
X192948160Y-72085200D02*
X192900541Y-72037580D01*
X193852922Y-71132819D02*
X194471969Y-71132819D01*
X194471969Y-71132819D02*
X194138636Y-71513771D01*
X194138636Y-71513771D02*
X194281493Y-71513771D01*
X194281493Y-71513771D02*
X194376731Y-71561390D01*
X194376731Y-71561390D02*
X194424350Y-71609009D01*
X194424350Y-71609009D02*
X194471969Y-71704247D01*
X194471969Y-71704247D02*
X194471969Y-71942342D01*
X194471969Y-71942342D02*
X194424350Y-72037580D01*
X194424350Y-72037580D02*
X194376731Y-72085200D01*
X194376731Y-72085200D02*
X194281493Y-72132819D01*
X194281493Y-72132819D02*
X193995779Y-72132819D01*
X193995779Y-72132819D02*
X193900541Y-72085200D01*
X193900541Y-72085200D02*
X193852922Y-72037580D01*
X140052588Y-72132819D02*
X139481160Y-72132819D01*
X139766874Y-72132819D02*
X139766874Y-71132819D01*
X139766874Y-71132819D02*
X139671636Y-71275676D01*
X139671636Y-71275676D02*
X139576398Y-71370914D01*
X139576398Y-71370914D02*
X139481160Y-71418533D01*
X139481160Y-68561057D02*
X139528779Y-68513438D01*
X139528779Y-68513438D02*
X139624017Y-68465819D01*
X139624017Y-68465819D02*
X139862112Y-68465819D01*
X139862112Y-68465819D02*
X139957350Y-68513438D01*
X139957350Y-68513438D02*
X140004969Y-68561057D01*
X140004969Y-68561057D02*
X140052588Y-68656295D01*
X140052588Y-68656295D02*
X140052588Y-68751533D01*
X140052588Y-68751533D02*
X140004969Y-68894390D01*
X140004969Y-68894390D02*
X139433541Y-69465819D01*
X139433541Y-69465819D02*
X140052588Y-69465819D01*
X136242588Y-66544819D02*
X135671160Y-66544819D01*
X135956874Y-66544819D02*
X135956874Y-65544819D01*
X135956874Y-65544819D02*
X135861636Y-65687676D01*
X135861636Y-65687676D02*
X135766398Y-65782914D01*
X135766398Y-65782914D02*
X135671160Y-65830533D01*
X196599350Y-65878152D02*
X196599350Y-66544819D01*
X196361255Y-65497200D02*
X196123160Y-66211485D01*
X196123160Y-66211485D02*
X196742207Y-66211485D01*
X197170779Y-66544819D02*
X197361255Y-66544819D01*
X197361255Y-66544819D02*
X197456493Y-66497200D01*
X197456493Y-66497200D02*
X197504112Y-66449580D01*
X197504112Y-66449580D02*
X197599350Y-66306723D01*
X197599350Y-66306723D02*
X197646969Y-66116247D01*
X197646969Y-66116247D02*
X197646969Y-65735295D01*
X197646969Y-65735295D02*
X197599350Y-65640057D01*
X197599350Y-65640057D02*
X197551731Y-65592438D01*
X197551731Y-65592438D02*
X197456493Y-65544819D01*
X197456493Y-65544819D02*
X197266017Y-65544819D01*
X197266017Y-65544819D02*
X197170779Y-65592438D01*
X197170779Y-65592438D02*
X197123160Y-65640057D01*
X197123160Y-65640057D02*
X197075541Y-65735295D01*
X197075541Y-65735295D02*
X197075541Y-65973390D01*
X197075541Y-65973390D02*
X197123160Y-66068628D01*
X197123160Y-66068628D02*
X197170779Y-66116247D01*
X197170779Y-66116247D02*
X197266017Y-66163866D01*
X197266017Y-66163866D02*
X197456493Y-66163866D01*
X197456493Y-66163866D02*
X197551731Y-66116247D01*
X197551731Y-66116247D02*
X197599350Y-66068628D01*
X197599350Y-66068628D02*
X197646969Y-65973390D01*
X192900541Y-68465819D02*
X193519588Y-68465819D01*
X193519588Y-68465819D02*
X193186255Y-68846771D01*
X193186255Y-68846771D02*
X193329112Y-68846771D01*
X193329112Y-68846771D02*
X193424350Y-68894390D01*
X193424350Y-68894390D02*
X193471969Y-68942009D01*
X193471969Y-68942009D02*
X193519588Y-69037247D01*
X193519588Y-69037247D02*
X193519588Y-69275342D01*
X193519588Y-69275342D02*
X193471969Y-69370580D01*
X193471969Y-69370580D02*
X193424350Y-69418200D01*
X193424350Y-69418200D02*
X193329112Y-69465819D01*
X193329112Y-69465819D02*
X193043398Y-69465819D01*
X193043398Y-69465819D02*
X192948160Y-69418200D01*
X192948160Y-69418200D02*
X192900541Y-69370580D01*
X194376731Y-68799152D02*
X194376731Y-69465819D01*
X194138636Y-68418200D02*
X193900541Y-69132485D01*
X193900541Y-69132485D02*
X194519588Y-69132485D01*
X142710819Y-70310333D02*
X143425104Y-70310333D01*
X143425104Y-70310333D02*
X143567961Y-70357952D01*
X143567961Y-70357952D02*
X143663200Y-70453190D01*
X143663200Y-70453190D02*
X143710819Y-70596047D01*
X143710819Y-70596047D02*
X143710819Y-70691285D01*
X142806057Y-69881761D02*
X142758438Y-69834142D01*
X142758438Y-69834142D02*
X142710819Y-69738904D01*
X142710819Y-69738904D02*
X142710819Y-69500809D01*
X142710819Y-69500809D02*
X142758438Y-69405571D01*
X142758438Y-69405571D02*
X142806057Y-69357952D01*
X142806057Y-69357952D02*
X142901295Y-69310333D01*
X142901295Y-69310333D02*
X142996533Y-69310333D01*
X142996533Y-69310333D02*
X143139390Y-69357952D01*
X143139390Y-69357952D02*
X143710819Y-69929380D01*
X143710819Y-69929380D02*
X143710819Y-69310333D01*
D11*
%TO.C,J2*%
X145550000Y-76054000D02*
X146550000Y-76054000D01*
X146550000Y-76054000D02*
X146050000Y-75054000D01*
X146050000Y-75054000D02*
X145550000Y-76054000D01*
X140840000Y-74664000D02*
X140840000Y-65544000D01*
X164320000Y-74664000D02*
X164320000Y-73354000D01*
X191900000Y-74664000D02*
X140840000Y-74664000D01*
X142140000Y-73354000D02*
X142140000Y-66854000D01*
X164320000Y-73354000D02*
X142140000Y-73354000D01*
X168420000Y-73354000D02*
X168420000Y-74664000D01*
X168420000Y-73354000D02*
X168420000Y-73354000D01*
X190600000Y-73354000D02*
X168420000Y-73354000D01*
X142140000Y-66854000D02*
X190600000Y-66854000D01*
X190600000Y-66854000D02*
X190600000Y-73354000D01*
X140840000Y-65544000D02*
X191900000Y-65544000D01*
X191900000Y-65544000D02*
X191900000Y-74664000D01*
%TD*%
M02*
