%TF.GenerationSoftware,KiCad,Pcbnew,7.0.7*%
%TF.CreationDate,2023-09-15T23:53:17-05:00*%
%TF.ProjectId,composite-video-adapter,636f6d70-6f73-4697-9465-2d766964656f,rev?*%
%TF.SameCoordinates,Original*%
%TF.FileFunction,Copper,L1,Top*%
%TF.FilePolarity,Positive*%
%FSLAX46Y46*%
G04 Gerber Fmt 4.6, Leading zero omitted, Abs format (unit mm)*
G04 Created by KiCad (PCBNEW 7.0.7) date 2023-09-15 23:53:17*
%MOMM*%
%LPD*%
G01*
G04 APERTURE LIST*
%TA.AperFunction,ComponentPad*%
%ADD10C,2.500000*%
%TD*%
%TA.AperFunction,ComponentPad*%
%ADD11O,4.400000X2.100000*%
%TD*%
%TA.AperFunction,ComponentPad*%
%ADD12O,2.100000X4.400000*%
%TD*%
%TA.AperFunction,ComponentPad*%
%ADD13R,1.700000X1.700000*%
%TD*%
%TA.AperFunction,ComponentPad*%
%ADD14O,1.700000X1.700000*%
%TD*%
G04 APERTURE END LIST*
D10*
%TO.P,J2,1,In*%
%TO.N,Net-(J1-Pin_10)*%
X145697600Y-99190800D03*
D11*
%TO.P,J2,2,Ext*%
%TO.N,GND*%
X145897600Y-104190800D03*
D12*
X150997600Y-99190800D03*
D11*
X145897600Y-94190800D03*
%TD*%
D13*
%TO.P,J1,1,Pin_1*%
%TO.N,GND*%
X141325600Y-101752400D03*
D14*
%TO.P,J1,2,Pin_2*%
%TO.N,unconnected-(J1-Pin_2-Pad2)*%
X141325600Y-104292400D03*
%TO.P,J1,3,Pin_3*%
%TO.N,GND*%
X138785600Y-101752400D03*
%TO.P,J1,4,Pin_4*%
%TO.N,unconnected-(J1-Pin_4-Pad4)*%
X138785600Y-104292400D03*
%TO.P,J1,5,Pin_5*%
%TO.N,GND*%
X136245600Y-101752400D03*
%TO.P,J1,6,Pin_6*%
%TO.N,unconnected-(J1-Pin_6-Pad6)*%
X136245600Y-104292400D03*
%TO.P,J1,7,Pin_7*%
%TO.N,GND*%
X133705600Y-101752400D03*
%TO.P,J1,8,Pin_8*%
%TO.N,unconnected-(J1-Pin_8-Pad8)*%
X133705600Y-104292400D03*
%TO.P,J1,9,Pin_9*%
%TO.N,GND*%
X131165600Y-101752400D03*
%TO.P,J1,10,Pin_10*%
%TO.N,Net-(J1-Pin_10)*%
X131165600Y-104292400D03*
%TD*%
%TA.AperFunction,Conductor*%
%TO.N,GND*%
G36*
X152291739Y-92679385D02*
G01*
X152337494Y-92732189D01*
X152348700Y-92783700D01*
X152348700Y-96901488D01*
X152329015Y-96968527D01*
X152276211Y-97014282D01*
X152207053Y-97024226D01*
X152143497Y-96995201D01*
X152131885Y-96983715D01*
X152074818Y-96919300D01*
X151880964Y-96761025D01*
X151880958Y-96761021D01*
X151664236Y-96635896D01*
X151430249Y-96547156D01*
X151430237Y-96547152D01*
X151247600Y-96509866D01*
X151247600Y-97423843D01*
X151227915Y-97490882D01*
X151175111Y-97536637D01*
X151115138Y-97547554D01*
X150959716Y-97536923D01*
X150959715Y-97536923D01*
X150959714Y-97536923D01*
X150896828Y-97549991D01*
X150827186Y-97544357D01*
X150771645Y-97501966D01*
X150747839Y-97436277D01*
X150747600Y-97428584D01*
X150747600Y-96509770D01*
X150686547Y-96517184D01*
X150446179Y-96586808D01*
X150446176Y-96586809D01*
X150220078Y-96694093D01*
X150014119Y-96836256D01*
X150014118Y-96836257D01*
X149833633Y-97009617D01*
X149683291Y-97209685D01*
X149566994Y-97431269D01*
X149487742Y-97668659D01*
X149447600Y-97915668D01*
X149447600Y-98940800D01*
X150323600Y-98940800D01*
X150390639Y-98960485D01*
X150436394Y-99013289D01*
X150447600Y-99064800D01*
X150447600Y-99316800D01*
X150427915Y-99383839D01*
X150375111Y-99429594D01*
X150323600Y-99440800D01*
X149447600Y-99440800D01*
X149447600Y-100403271D01*
X149462693Y-100590245D01*
X149522584Y-100833229D01*
X149620677Y-101063461D01*
X149754435Y-101274984D01*
X149920381Y-101462299D01*
X150114235Y-101620574D01*
X150114241Y-101620578D01*
X150330963Y-101745703D01*
X150564962Y-101834447D01*
X150747600Y-101871732D01*
X150747600Y-100957756D01*
X150767285Y-100890717D01*
X150820089Y-100844962D01*
X150880063Y-100834045D01*
X150884645Y-100834358D01*
X150884647Y-100834359D01*
X151035486Y-100844677D01*
X151098371Y-100831609D01*
X151168013Y-100837242D01*
X151223554Y-100879632D01*
X151247361Y-100945320D01*
X151247600Y-100953015D01*
X151247600Y-101871828D01*
X151308645Y-101864417D01*
X151308652Y-101864416D01*
X151549023Y-101794790D01*
X151775121Y-101687506D01*
X151981080Y-101545343D01*
X151981081Y-101545342D01*
X152138802Y-101393849D01*
X152200787Y-101361606D01*
X152270364Y-101367992D01*
X152325443Y-101410981D01*
X152348537Y-101476924D01*
X152348700Y-101483278D01*
X152348700Y-105539500D01*
X152329015Y-105606539D01*
X152276211Y-105652294D01*
X152224700Y-105663500D01*
X148046902Y-105663500D01*
X147979863Y-105643815D01*
X147934108Y-105591011D01*
X147924164Y-105521853D01*
X147953189Y-105458297D01*
X147977863Y-105437073D01*
X147977786Y-105436970D01*
X147979355Y-105435790D01*
X147980627Y-105434697D01*
X147981783Y-105433965D01*
X148169099Y-105268018D01*
X148327374Y-105074164D01*
X148327378Y-105074158D01*
X148452503Y-104857436D01*
X148541247Y-104623437D01*
X148578533Y-104440800D01*
X147664556Y-104440800D01*
X147597517Y-104421115D01*
X147551762Y-104368311D01*
X147540845Y-104308337D01*
X147541159Y-104303753D01*
X147551477Y-104152914D01*
X147538409Y-104090027D01*
X147544043Y-104020386D01*
X147586434Y-103964845D01*
X147652123Y-103941039D01*
X147659816Y-103940800D01*
X148578630Y-103940800D01*
X148571215Y-103879747D01*
X148501591Y-103639379D01*
X148501590Y-103639376D01*
X148394306Y-103413278D01*
X148252143Y-103207319D01*
X148252142Y-103207318D01*
X148078782Y-103026833D01*
X147878714Y-102876491D01*
X147657130Y-102760194D01*
X147419740Y-102680942D01*
X147172732Y-102640800D01*
X146147600Y-102640800D01*
X146147600Y-103516800D01*
X146127915Y-103583839D01*
X146075111Y-103629594D01*
X146023600Y-103640800D01*
X145771600Y-103640800D01*
X145704561Y-103621115D01*
X145658806Y-103568311D01*
X145647600Y-103516800D01*
X145647600Y-102640800D01*
X144685129Y-102640800D01*
X144498154Y-102655893D01*
X144255170Y-102715784D01*
X144024938Y-102813877D01*
X143813415Y-102947635D01*
X143626100Y-103113581D01*
X143467825Y-103307435D01*
X143467821Y-103307441D01*
X143342696Y-103524163D01*
X143253952Y-103758162D01*
X143216666Y-103940800D01*
X144130644Y-103940800D01*
X144197683Y-103960485D01*
X144243438Y-104013289D01*
X144254355Y-104073263D01*
X144254041Y-104077845D01*
X144254041Y-104077847D01*
X144243723Y-104228686D01*
X144256791Y-104291572D01*
X144251157Y-104361214D01*
X144208766Y-104416755D01*
X144143077Y-104440561D01*
X144135384Y-104440800D01*
X143216570Y-104440800D01*
X143223984Y-104501852D01*
X143293608Y-104742220D01*
X143293609Y-104742223D01*
X143400893Y-104968321D01*
X143543056Y-105174280D01*
X143543057Y-105174281D01*
X143716417Y-105354766D01*
X143830333Y-105440369D01*
X143872102Y-105496379D01*
X143876959Y-105566080D01*
X143843362Y-105627342D01*
X143781977Y-105660714D01*
X143755841Y-105663500D01*
X142115270Y-105663500D01*
X142048231Y-105643815D01*
X142002476Y-105591011D01*
X141992532Y-105521853D01*
X142021557Y-105458297D01*
X142044146Y-105437925D01*
X142045510Y-105436970D01*
X142197001Y-105330895D01*
X142364095Y-105163801D01*
X142499635Y-104970230D01*
X142599503Y-104756063D01*
X142660663Y-104527808D01*
X142681259Y-104292400D01*
X142660663Y-104056992D01*
X142599503Y-103828737D01*
X142499635Y-103614571D01*
X142494024Y-103606558D01*
X142364096Y-103421000D01*
X142356374Y-103413278D01*
X142241779Y-103298683D01*
X142208296Y-103237363D01*
X142213280Y-103167671D01*
X142255151Y-103111737D01*
X142286129Y-103094822D01*
X142417686Y-103045754D01*
X142417693Y-103045750D01*
X142532787Y-102959590D01*
X142532790Y-102959587D01*
X142618950Y-102844493D01*
X142618954Y-102844486D01*
X142669196Y-102709779D01*
X142669198Y-102709772D01*
X142675599Y-102650244D01*
X142675600Y-102650227D01*
X142675600Y-102002400D01*
X141938947Y-102002400D01*
X141871908Y-101982715D01*
X141826153Y-101929911D01*
X141816209Y-101860753D01*
X141819969Y-101843467D01*
X141825600Y-101824288D01*
X141825600Y-101680511D01*
X141819969Y-101661333D01*
X141819970Y-101591464D01*
X141857745Y-101532686D01*
X141921301Y-101503662D01*
X141938947Y-101502400D01*
X142675600Y-101502400D01*
X142675600Y-100854572D01*
X142675599Y-100854555D01*
X142669198Y-100795027D01*
X142669196Y-100795020D01*
X142618954Y-100660313D01*
X142618952Y-100660310D01*
X142558541Y-100579612D01*
X142534123Y-100514148D01*
X142548974Y-100445875D01*
X142598379Y-100396469D01*
X142657807Y-100381300D01*
X143180440Y-100381300D01*
X143180583Y-100381328D01*
X143180584Y-100381324D01*
X143205197Y-100381339D01*
X143205200Y-100381341D01*
X143205583Y-100381183D01*
X143205700Y-100380899D01*
X143205741Y-100380800D01*
X143205740Y-100380797D01*
X143205783Y-100356689D01*
X143205700Y-100356267D01*
X143205700Y-99190804D01*
X143942192Y-99190804D01*
X143961796Y-99452420D01*
X143961797Y-99452425D01*
X144020176Y-99708202D01*
X144020178Y-99708211D01*
X144020180Y-99708216D01*
X144116032Y-99952443D01*
X144247214Y-100179657D01*
X144365850Y-100328422D01*
X144410798Y-100384785D01*
X144540684Y-100505300D01*
X144603121Y-100563233D01*
X144819896Y-100711028D01*
X144819901Y-100711030D01*
X144819902Y-100711031D01*
X144819903Y-100711032D01*
X144945443Y-100771488D01*
X145056273Y-100824861D01*
X145056274Y-100824861D01*
X145056277Y-100824863D01*
X145306985Y-100902196D01*
X145566418Y-100941300D01*
X145828782Y-100941300D01*
X146088215Y-100902196D01*
X146338923Y-100824863D01*
X146568522Y-100714294D01*
X146575296Y-100711032D01*
X146575296Y-100711031D01*
X146575304Y-100711028D01*
X146792079Y-100563233D01*
X146945969Y-100420444D01*
X146984401Y-100384785D01*
X146984401Y-100384783D01*
X146984405Y-100384781D01*
X147147986Y-100179657D01*
X147279168Y-99952443D01*
X147375020Y-99708216D01*
X147433402Y-99452430D01*
X147434274Y-99440800D01*
X147453008Y-99190804D01*
X147453008Y-99190795D01*
X147433403Y-98929179D01*
X147433402Y-98929174D01*
X147433402Y-98929170D01*
X147375020Y-98673384D01*
X147279168Y-98429157D01*
X147147986Y-98201943D01*
X146984405Y-97996819D01*
X146984404Y-97996818D01*
X146984401Y-97996814D01*
X146792079Y-97818367D01*
X146677778Y-97740438D01*
X146575304Y-97670572D01*
X146575300Y-97670570D01*
X146575297Y-97670568D01*
X146575296Y-97670567D01*
X146338925Y-97556738D01*
X146338927Y-97556738D01*
X146088223Y-97479406D01*
X146088219Y-97479405D01*
X146088215Y-97479404D01*
X145963423Y-97460594D01*
X145828787Y-97440300D01*
X145828782Y-97440300D01*
X145566418Y-97440300D01*
X145566412Y-97440300D01*
X145404847Y-97464653D01*
X145306985Y-97479404D01*
X145306981Y-97479405D01*
X145306982Y-97479405D01*
X145306976Y-97479406D01*
X145056273Y-97556738D01*
X144819903Y-97670567D01*
X144819902Y-97670568D01*
X144603120Y-97818367D01*
X144410798Y-97996814D01*
X144247214Y-98201943D01*
X144116032Y-98429156D01*
X144020182Y-98673378D01*
X144020176Y-98673397D01*
X143961797Y-98929174D01*
X143961796Y-98929179D01*
X143942192Y-99190795D01*
X143942192Y-99190804D01*
X143205700Y-99190804D01*
X143205700Y-95083465D01*
X143225385Y-95016426D01*
X143278189Y-94970671D01*
X143347347Y-94960727D01*
X143410903Y-94989752D01*
X143431750Y-95013025D01*
X143543056Y-95174280D01*
X143543057Y-95174281D01*
X143716417Y-95354766D01*
X143916485Y-95505108D01*
X144138069Y-95621405D01*
X144375459Y-95700657D01*
X144622468Y-95740800D01*
X145647600Y-95740800D01*
X145647600Y-94864800D01*
X145667285Y-94797761D01*
X145720089Y-94752006D01*
X145771600Y-94740800D01*
X146023600Y-94740800D01*
X146090639Y-94760485D01*
X146136394Y-94813289D01*
X146147600Y-94864800D01*
X146147600Y-95740800D01*
X147110071Y-95740800D01*
X147297045Y-95725706D01*
X147540029Y-95665815D01*
X147770261Y-95567722D01*
X147981784Y-95433964D01*
X148169099Y-95268018D01*
X148327374Y-95074164D01*
X148327378Y-95074158D01*
X148452503Y-94857436D01*
X148541247Y-94623437D01*
X148578533Y-94440800D01*
X147664556Y-94440800D01*
X147597517Y-94421115D01*
X147551762Y-94368311D01*
X147540845Y-94308337D01*
X147541159Y-94303753D01*
X147551477Y-94152914D01*
X147538409Y-94090027D01*
X147544043Y-94020386D01*
X147586434Y-93964845D01*
X147652123Y-93941039D01*
X147659816Y-93940800D01*
X148578630Y-93940800D01*
X148571215Y-93879747D01*
X148501591Y-93639379D01*
X148501590Y-93639376D01*
X148394306Y-93413278D01*
X148252143Y-93207319D01*
X148252142Y-93207318D01*
X148078782Y-93026833D01*
X147887151Y-92882831D01*
X147845382Y-92826821D01*
X147840525Y-92757120D01*
X147874122Y-92695858D01*
X147935507Y-92662486D01*
X147961643Y-92659700D01*
X152224700Y-92659700D01*
X152291739Y-92679385D01*
G37*
%TD.AperFunction*%
%TA.AperFunction,Conductor*%
G36*
X133159292Y-101522085D02*
G01*
X133205047Y-101574889D01*
X133214991Y-101644047D01*
X133211231Y-101661333D01*
X133205600Y-101680511D01*
X133205600Y-101824288D01*
X133211231Y-101843467D01*
X133211230Y-101913336D01*
X133173455Y-101972114D01*
X133109899Y-102001138D01*
X133092253Y-102002400D01*
X131778947Y-102002400D01*
X131711908Y-101982715D01*
X131666153Y-101929911D01*
X131656209Y-101860753D01*
X131659969Y-101843467D01*
X131665600Y-101824288D01*
X131665600Y-101680511D01*
X131659969Y-101661333D01*
X131659970Y-101591464D01*
X131697745Y-101532686D01*
X131761301Y-101503662D01*
X131778947Y-101502400D01*
X133092253Y-101502400D01*
X133159292Y-101522085D01*
G37*
%TD.AperFunction*%
%TA.AperFunction,Conductor*%
G36*
X135699292Y-101522085D02*
G01*
X135745047Y-101574889D01*
X135754991Y-101644047D01*
X135751231Y-101661333D01*
X135745600Y-101680511D01*
X135745600Y-101824288D01*
X135751231Y-101843467D01*
X135751230Y-101913336D01*
X135713455Y-101972114D01*
X135649899Y-102001138D01*
X135632253Y-102002400D01*
X134318947Y-102002400D01*
X134251908Y-101982715D01*
X134206153Y-101929911D01*
X134196209Y-101860753D01*
X134199969Y-101843467D01*
X134205600Y-101824288D01*
X134205600Y-101680511D01*
X134199969Y-101661333D01*
X134199970Y-101591464D01*
X134237745Y-101532686D01*
X134301301Y-101503662D01*
X134318947Y-101502400D01*
X135632253Y-101502400D01*
X135699292Y-101522085D01*
G37*
%TD.AperFunction*%
%TA.AperFunction,Conductor*%
G36*
X138239292Y-101522085D02*
G01*
X138285047Y-101574889D01*
X138294991Y-101644047D01*
X138291231Y-101661333D01*
X138285600Y-101680511D01*
X138285600Y-101824288D01*
X138291231Y-101843467D01*
X138291230Y-101913336D01*
X138253455Y-101972114D01*
X138189899Y-102001138D01*
X138172253Y-102002400D01*
X136858947Y-102002400D01*
X136791908Y-101982715D01*
X136746153Y-101929911D01*
X136736209Y-101860753D01*
X136739969Y-101843467D01*
X136745600Y-101824288D01*
X136745600Y-101680511D01*
X136739969Y-101661333D01*
X136739970Y-101591464D01*
X136777745Y-101532686D01*
X136841301Y-101503662D01*
X136858947Y-101502400D01*
X138172253Y-101502400D01*
X138239292Y-101522085D01*
G37*
%TD.AperFunction*%
%TA.AperFunction,Conductor*%
G36*
X140779292Y-101522085D02*
G01*
X140825047Y-101574889D01*
X140834991Y-101644047D01*
X140831231Y-101661333D01*
X140825600Y-101680511D01*
X140825600Y-101824288D01*
X140831231Y-101843467D01*
X140831230Y-101913336D01*
X140793455Y-101972114D01*
X140729899Y-102001138D01*
X140712253Y-102002400D01*
X139398947Y-102002400D01*
X139331908Y-101982715D01*
X139286153Y-101929911D01*
X139276209Y-101860753D01*
X139279969Y-101843467D01*
X139285600Y-101824288D01*
X139285600Y-101680511D01*
X139279969Y-101661333D01*
X139279970Y-101591464D01*
X139317745Y-101532686D01*
X139381301Y-101503662D01*
X139398947Y-101502400D01*
X140712253Y-101502400D01*
X140779292Y-101522085D01*
G37*
%TD.AperFunction*%
%TD*%
M02*
