%TF.GenerationSoftware,KiCad,Pcbnew,7.0.7*%
%TF.CreationDate,2023-09-15T23:53:17-05:00*%
%TF.ProjectId,composite-video-adapter,636f6d70-6f73-4697-9465-2d766964656f,rev?*%
%TF.SameCoordinates,Original*%
%TF.FileFunction,Legend,Top*%
%TF.FilePolarity,Positive*%
%FSLAX46Y46*%
G04 Gerber Fmt 4.6, Leading zero omitted, Abs format (unit mm)*
G04 Created by KiCad (PCBNEW 7.0.7) date 2023-09-15 23:53:17*
%MOMM*%
%LPD*%
G01*
G04 APERTURE LIST*
%ADD10C,0.150000*%
%ADD11C,0.254000*%
G04 APERTURE END LIST*
D10*
X152490266Y-86834619D02*
X152490266Y-87548904D01*
X152490266Y-87548904D02*
X152442647Y-87691761D01*
X152442647Y-87691761D02*
X152347409Y-87787000D01*
X152347409Y-87787000D02*
X152204552Y-87834619D01*
X152204552Y-87834619D02*
X152109314Y-87834619D01*
X152918838Y-86929857D02*
X152966457Y-86882238D01*
X152966457Y-86882238D02*
X153061695Y-86834619D01*
X153061695Y-86834619D02*
X153299790Y-86834619D01*
X153299790Y-86834619D02*
X153395028Y-86882238D01*
X153395028Y-86882238D02*
X153442647Y-86929857D01*
X153442647Y-86929857D02*
X153490266Y-87025095D01*
X153490266Y-87025095D02*
X153490266Y-87120333D01*
X153490266Y-87120333D02*
X153442647Y-87263190D01*
X153442647Y-87263190D02*
X152871219Y-87834619D01*
X152871219Y-87834619D02*
X153490266Y-87834619D01*
D11*
%TO.C,J2*%
X148297600Y-104690800D02*
X151397600Y-104690800D01*
X151397600Y-104690800D02*
X151397600Y-103590800D01*
X151397600Y-103590800D02*
X151697600Y-103590800D01*
X151697600Y-94790800D02*
X151397600Y-94790800D01*
X148297600Y-93690800D02*
X151397600Y-93690800D01*
X151397600Y-93690800D02*
X151397600Y-94790800D01*
%TD*%
M02*
